<?xml version="1.0" encoding="UTF-8" standalone="no"?>
<svg
   xmlns:dc="http://purl.org/dc/elements/1.1/"
   xmlns:cc="http://creativecommons.org/ns#"
   xmlns:rdf="http://www.w3.org/1999/02/22-rdf-syntax-ns#"
   xmlns:svg="http://www.w3.org/2000/svg"
   xmlns="http://www.w3.org/2000/svg"
   xmlns:sodipodi="http://sodipodi.sourceforge.net/DTD/sodipodi-0.dtd"
   xmlns:inkscape="http://www.inkscape.org/namespaces/inkscape"
   version="1.1"
   id="svg2"
   xml:space="preserve"
   width="146.16736mm"
   height="110.82314mm"
   viewBox="0 0 552.44356 418.85909"
   sodipodi:docname="computer-as-controller.svg"
   inkscape:version="1.0.2 (e86c870879, 2021-01-15)"><metadata
     id="metadata8"><rdf:RDF><cc:Work
         rdf:about=""><dc:format>image/svg+xml</dc:format><dc:type
           rdf:resource="http://purl.org/dc/dcmitype/StillImage" /><dc:title></dc:title></cc:Work></rdf:RDF></metadata><defs
     id="defs6"><clipPath
       clipPathUnits="userSpaceOnUse"
       id="clipPath18"><path
         d="M 0,0.028 H 719.971 V 539.999 H 0 Z"
         clip-rule="evenodd"
         id="path16" /></clipPath><clipPath
       clipPathUnits="userSpaceOnUse"
       id="clipPath28"><path
         d="m 19.757,26.248 h 680.485 v 22.62 H 19.757 Z"
         clip-rule="evenodd"
         id="path26" /></clipPath><clipPath
       clipPathUnits="userSpaceOnUse"
       id="clipPath36"><path
         d="M 0,0 H 680.513 V 22.649 H 0 Z"
         id="path34" /></clipPath><linearGradient
       x1="341"
       y1="24"
       x2="341"
       y2="0"
       gradientUnits="userSpaceOnUse"
       spreadMethod="pad"
       id="linearGradient42"><stop
         style="stop-opacity:1;stop-color:#182f76"
         offset="0"
         id="stop38" /><stop
         style="stop-opacity:1;stop-color:#182f76"
         offset="1"
         id="stop40" /></linearGradient><clipPath
       clipPathUnits="userSpaceOnUse"
       id="clipPath52"><path
         d="M 0,0.028 H 719.971 V 539.999 H 0 Z"
         clip-rule="evenodd"
         id="path50" /></clipPath><clipPath
       clipPathUnits="userSpaceOnUse"
       id="clipPath76"><path
         d="m 19.785,464.371 h 680.428 v 55.474 H 19.785 Z"
         clip-rule="evenodd"
         id="path74" /></clipPath><clipPath
       clipPathUnits="userSpaceOnUse"
       id="clipPath84"><path
         d="M 0,0 H 680.457 V 55.502 H 0 Z"
         id="path82" /></clipPath><linearGradient
       x1="340"
       y1="57"
       x2="340"
       y2="0"
       gradientUnits="userSpaceOnUse"
       spreadMethod="pad"
       id="linearGradient90"><stop
         style="stop-opacity:1;stop-color:#83afdb"
         offset="0"
         id="stop86" /><stop
         style="stop-opacity:1;stop-color:#83afdb"
         offset="1"
         id="stop88" /></linearGradient><clipPath
       clipPathUnits="userSpaceOnUse"
       id="clipPath100"><path
         d="M 0,0.028 H 719.971 V 539.999 H 0 Z"
         clip-rule="evenodd"
         id="path98" /></clipPath></defs><sodipodi:namedview
     pagecolor="#ffffff"
     bordercolor="#666666"
     borderopacity="1"
     objecttolerance="10"
     gridtolerance="10"
     guidetolerance="10"
     inkscape:pageopacity="0"
     inkscape:pageshadow="2"
     inkscape:window-width="1592"
     inkscape:window-height="1171"
     id="namedview4"
     showgrid="false"
     fit-margin-top="2"
     units="mm"
     lock-margins="true"
     fit-margin-left="2"
     fit-margin-right="2"
     fit-margin-bottom="2"
     inkscape:zoom="0.6"
     inkscape:cx="341.66538"
     inkscape:cy="411.04283"
     inkscape:window-x="1920"
     inkscape:window-y="0"
     inkscape:window-maximized="1"
     inkscape:current-layer="g10" /><g
     id="g10"
     inkscape:groupmode="layer"
     inkscape:label="b35apo_lecture09-irq-events"
     transform="matrix(1.3333333,0,0,-1.3333333,-351.31363,482.80167)"><g
       id="g114" /><g
       id="g128" /><g
       id="g142" /><g
       id="g156" /><g
       id="g170" /><g
       id="g178" /><g
       id="g186" /><g
       id="g194" /><g
       id="g202" /><path
       d="m 468,138.019 h -72 v 65.99 h 144 v -65.99 z"
       style="fill:#99ccff;fill-opacity:1;fill-rule:evenodd;stroke:none"
       id="path204" /><g
       id="g206"><path
         d="m 468,138.019 h -72 v 65.99 h 144 v -65.99 z"
         style="fill:none;stroke:#000000;stroke-width:1.44564;stroke-linecap:butt;stroke-linejoin:round;stroke-miterlimit:10;stroke-dasharray:none;stroke-opacity:1"
         id="path208" /></g><g
       id="g210"><text
         transform="matrix(1,0,0,-1,428.598,174.813)"
         style="font-variant:normal;font-weight:normal;font-size:18px;font-family:'Liberation Sans';-inkscape-font-specification:LiberationSans;writing-mode:lr-tb;fill:#000000;fill-opacity:1;fill-rule:nonzero;stroke:none"
         id="text214"><tspan
           x="0 12.996 22.896 37.889999 47.897999 57.798 62.874001 72.774002 78.767998"
           y="0"
           sodipodi:role="line"
           id="tspan212">Computer </tspan></text></g><g
       id="g216"><text
         transform="matrix(1,0,0,-1,404.107,154.687)"
         style="font-variant:normal;font-weight:normal;font-size:18px;font-family:'Liberation Sans';-inkscape-font-specification:LiberationSans;writing-mode:lr-tb;fill:#000000;fill-opacity:1;fill-rule:nonzero;stroke:none"
         id="text220"><tspan
           x="0 5.994 14.886 24.893999 34.902 39.888 45.882 55.889999 59.796001 64.872002 73.872002 82.872002 91.872002 96.858002 106.866 121.86"
           y="0"
           sodipodi:role="line"
           id="tspan218">(control system)</tspan></text></g><path
       d="m 468,228.019 h -72 v 65.99 h 144 v -65.99 z"
       style="fill:#99ccff;fill-opacity:1;fill-rule:evenodd;stroke:none"
       id="path222" /><g
       id="g224"><path
         d="m 468,228.019 h -72 v 65.99 h 144 v -65.99 z"
         style="fill:none;stroke:#000000;stroke-width:1.44564;stroke-linecap:butt;stroke-linejoin:round;stroke-miterlimit:10;stroke-dasharray:none;stroke-opacity:1"
         id="path226" /></g><g
       id="g228"><text
         transform="matrix(1,0,0,-1,413.688,264.813)"
         style="font-variant:normal;font-weight:normal;font-size:18px;font-family:'Liberation Sans';-inkscape-font-specification:LiberationSans;writing-mode:lr-tb;fill:#000000;fill-opacity:1;fill-rule:nonzero;stroke:none"
         id="text232"><tspan
           x="0 9 19.007999 28.007999 37.908001 47.916 57.816002 61.812 71.82 81.720001 85.716003 94.716003 104.616"
           y="0"
           sodipodi:role="line"
           id="tspan230">Technological</tspan></text></g><g
       id="g234"><text
         transform="matrix(1,0,0,-1,408.614,244.687)"
         style="font-variant:normal;font-weight:normal;font-size:18px;font-family:'Liberation Sans';-inkscape-font-specification:LiberationSans;writing-mode:lr-tb;fill:#000000;fill-opacity:1;fill-rule:nonzero;stroke:none"
         id="text238"><tspan
           x="0 10.008 16.002001 25.902 34.902 44.91 53.91 62.91 67.896004 73.889999 83.898003 87.893997 97.793999 107.802 112.788"
           y="0"
           sodipodi:role="line"
           id="tspan236">process (plant)</tspan></text></g><g
       id="g240"><text
         transform="matrix(1,0,0,-1,601.087,279.609)"
         style="font-variant:normal;font-weight:normal;font-size:18px;font-family:'Liberation Sans';-inkscape-font-specification:LiberationSans;writing-mode:lr-tb;fill:#000000;fill-opacity:1;fill-rule:nonzero;stroke:none"
         id="text244"><tspan
           x="0 9.8999996 19.908001 24.983999 34.883999 44.891998"
           y="0"
           sodipodi:role="line"
           id="tspan242">output</tspan></text></g><g
       id="g246"><text
         transform="matrix(1,0,0,-1,601.087,259.398)"
         style="font-variant:normal;font-weight:normal;font-size:18px;font-family:'Liberation Sans';-inkscape-font-specification:LiberationSans;writing-mode:lr-tb;fill:#000000;fill-opacity:1;fill-rule:nonzero;stroke:none"
         id="text250"><tspan
           x="0 9 19.007999 25.002001 28.908001 38.916 48.816002 52.812 62.712002"
           y="0"
           sodipodi:role="line"
           id="tspan248">variables</tspan></text></g><g
       id="g252"><text
         transform="matrix(1,0,0,-1,583.087,208.091)"
         style="font-variant:normal;font-weight:normal;font-size:18px;font-family:'Liberation Sans';-inkscape-font-specification:LiberationSans;writing-mode:lr-tb;fill:#000000;fill-opacity:1;fill-rule:nonzero;stroke:none"
         id="text256"><tspan
           x="0 9 13.986 23.993999 28.98"
           y="0"
           sodipodi:role="line"
           id="tspan254">state</tspan></text></g><g
       id="g258"><text
         transform="matrix(1,0,0,-1,583.087,187.994)"
         style="font-variant:normal;font-weight:normal;font-size:18px;font-family:'Liberation Sans';-inkscape-font-specification:LiberationSans;writing-mode:lr-tb;fill:#000000;fill-opacity:1;fill-rule:nonzero;stroke:none"
         id="text262"><tspan
           x="0 3.9960001 13.896 18.972 28.872 34.866001 49.860001 59.868 64.853996 68.849998 78.75"
           y="0"
           sodipodi:role="line"
           id="tspan260">information</tspan></text></g><g
       id="g264"><text
         transform="matrix(1,0,0,-1,302.003,274.11)"
         style="font-variant:normal;font-weight:normal;font-size:18px;font-family:'Liberation Sans';-inkscape-font-specification:LiberationSans;writing-mode:lr-tb;fill:#000000;fill-opacity:1;fill-rule:nonzero;stroke:none"
         id="text268"><tspan
           x="0 3.9960001 13.896 23.903999 33.911999"
           y="0"
           sodipodi:role="line"
           id="tspan266">input</tspan></text></g><g
       id="g270"><text
         transform="matrix(1,0,0,-1,269.093,254.013)"
         style="font-variant:normal;font-weight:normal;font-size:18px;font-family:'Liberation Sans';-inkscape-font-specification:LiberationSans;writing-mode:lr-tb;fill:#000000;fill-opacity:1;fill-rule:nonzero;stroke:none"
         id="text274"><tspan
           x="0 9.0900002 18.99 24.983999 28.98 38.880001 48.888 52.883999 62.784"
           y="0"
           sodipodi:role="line"
           id="tspan272">variables</tspan></text></g><g
       id="g276"><text
         transform="matrix(1,0,0,-1,305.008,213.506)"
         style="font-variant:normal;font-weight:normal;font-size:18px;font-family:'Liberation Sans';-inkscape-font-specification:LiberationSans;writing-mode:lr-tb;fill:#000000;fill-opacity:1;fill-rule:nonzero;stroke:none"
         id="text280"><tspan
           x="0 9.0900002 18.99 28.889999 33.966 39.959999 49.967999"
           y="0"
           sodipodi:role="line"
           id="tspan278">control</tspan></text></g><g
       id="g282"><text
         transform="matrix(1,0,0,-1,287.093,193.408)"
         style="font-variant:normal;font-weight:normal;font-size:18px;font-family:'Liberation Sans';-inkscape-font-specification:LiberationSans;writing-mode:lr-tb;fill:#000000;fill-opacity:1;fill-rule:nonzero;stroke:none"
         id="text286"><tspan
           x="0 9.0900002 18.99 24.983999 28.98 38.880001 48.888 52.883999 62.784"
           y="0"
           sodipodi:role="line"
           id="tspan284">variables</tspan></text></g><g
       id="g296"><text
         transform="matrix(1,0,0,-1,431.603,94.11)"
         style="font-variant:normal;font-weight:normal;font-size:18px;font-family:'Liberation Sans';-inkscape-font-specification:LiberationSans;writing-mode:lr-tb;fill:#000000;fill-opacity:1;fill-rule:nonzero;stroke:none"
         id="text300"><tspan
           x="0 10.008 16.002001 25.902 35.91 41.903999 51.804001"
           y="0"
           sodipodi:role="line"
           id="tspan298">program</tspan></text></g><g
       id="g302"><text
         transform="matrix(1,0,0,-1,379.191,74.013)"
         style="font-variant:normal;font-weight:normal;font-size:18px;font-family:'Liberation Sans';-inkscape-font-specification:LiberationSans;writing-mode:lr-tb;fill:#000000;fill-opacity:1;fill-rule:nonzero;stroke:none"
         id="text306"><tspan
           x="0 10.008 16.002001 20.988001 30.996 34.902 44.91 54.917999 64.818001 70.811996 75.797997 79.793999 89.802002 98.802002 108.702 112.698 117.684 126.684 136.692 146.7 151.686 157.67999 167.688 171.59399"
           y="0"
           sodipodi:role="line"
           id="tspan304">or higher level control </tspan></text></g><g
       id="g308"><text
         transform="matrix(1,0,0,-1,410.202,53.802)"
         style="font-variant:normal;font-weight:normal;font-size:18px;font-family:'Liberation Sans';-inkscape-font-specification:LiberationSans;writing-mode:lr-tb;fill:#000000;fill-opacity:1;fill-rule:nonzero;stroke:none"
         id="text312"><tspan
           x="0 9.8999996 19.908001 29.916 34.902 43.902 53.91 63.810001 76.806 86.706001 96.713997"
           y="0"
           sodipodi:role="line"
           id="tspan310">and knowhow</tspan></text></g><g
       id="g314"><path
         d="m 347.981,270 h 29.452"
         style="fill:none;stroke:#000000;stroke-width:2.89129;stroke-linecap:butt;stroke-linejoin:round;stroke-miterlimit:10;stroke-dasharray:none;stroke-opacity:1"
         id="path316" /></g><path
       d="m 396,270 -19.417,6.463 v -12.954 z"
       style="fill:#000000;fill-opacity:1;fill-rule:evenodd;stroke:none"
       id="path318" /><g
       id="g320"><path
         d="m 540,270 h 29.424"
         style="fill:none;stroke:#000000;stroke-width:2.89129;stroke-linecap:butt;stroke-linejoin:round;stroke-miterlimit:10;stroke-dasharray:none;stroke-opacity:1"
         id="path322" /></g><path
       d="m 587.991,270 -19.418,6.463 v -12.954 z"
       style="fill:#000000;fill-opacity:1;fill-rule:evenodd;stroke:none"
       id="path324" /><g
       id="g326"><path
         d="M 461.991,336.019 V 312.576"
         style="fill:none;stroke:#000000;stroke-width:2.89129;stroke-linecap:butt;stroke-linejoin:round;stroke-miterlimit:10;stroke-dasharray:none;stroke-opacity:1"
         id="path328" /></g><path
       d="m 461.991,294.009 6.491,19.418 h -12.954 z"
       style="fill:#000000;fill-opacity:1;fill-rule:evenodd;stroke:none"
       id="path330" /><g
       id="g332"><path
         d="m 468,108 v 11.452"
         style="fill:none;stroke:#000000;stroke-width:2.89129;stroke-linecap:butt;stroke-linejoin:round;stroke-miterlimit:10;stroke-dasharray:none;stroke-opacity:1"
         id="path334" /></g><path
       d="m 468,138.019 -6.463,-19.446 h 12.954 z"
       style="fill:#000000;fill-opacity:1;fill-rule:evenodd;stroke:none"
       id="path336" /><g
       id="g338"><path
         d="m 540,246.019 h 29.991 l 0.028,-78.01 h -11.452"
         style="fill:none;stroke:#000000;stroke-width:2.89129;stroke-linecap:butt;stroke-linejoin:round;stroke-miterlimit:10;stroke-dasharray:none;stroke-opacity:1"
         id="path340" /></g><path
       d="m 540,168.009 19.446,-6.463 v 12.955 z"
       style="fill:#000000;fill-opacity:1;fill-rule:evenodd;stroke:none"
       id="path342" /><g
       id="g344"><path
         d="m 396,168.009 h -30.019 v 78.01 h 11.452"
         style="fill:none;stroke:#000000;stroke-width:2.89129;stroke-linecap:butt;stroke-linejoin:round;stroke-miterlimit:10;stroke-dasharray:none;stroke-opacity:1"
         id="path346" /></g><path
       d="m 396,246.019 -19.446,6.491 v -12.954 z"
       style="fill:#000000;fill-opacity:1;fill-rule:evenodd;stroke:none"
       id="path348" /><g
       id="g354"><text
         transform="matrix(1,0,0,-1,433.106,343.389)"
         style="font-variant:normal;font-weight:normal;font-size:18px;font-family:'Liberation Sans';-inkscape-font-specification:LiberationSans;writing-mode:lr-tb;fill:#000000;fill-opacity:1;fill-rule:nonzero;stroke:none"
         id="text358"><tspan
           x="0 10.008 16.002001 21.996 32.004002 37.998001 46.889999 51.966 61.866001 71.874001 81.882004 86.867996 96.875999 106.776 110.772 119.772"
           y="0"
           sodipodi:role="line"
           id="tspan356">errors and noise</tspan></text></g></g></svg>
