<?xml version="1.0" encoding="UTF-8" standalone="no"?>
<svg
   xmlns:dc="http://purl.org/dc/elements/1.1/"
   xmlns:cc="http://creativecommons.org/ns#"
   xmlns:rdf="http://www.w3.org/1999/02/22-rdf-syntax-ns#"
   xmlns:svg="http://www.w3.org/2000/svg"
   xmlns="http://www.w3.org/2000/svg"
   version="1.1"
   id="svg2"
   xml:space="preserve"
   width="922.20471"
   height="529.13385"
   viewBox="0 0 922.20471 529.13385"><metadata
     id="metadata8"><rdf:RDF><cc:Work
         rdf:about=""><dc:format>image/svg+xml</dc:format><dc:type
           rdf:resource="http://purl.org/dc/dcmitype/StillImage" /><dc:title></dc:title></cc:Work></rdf:RDF></metadata><defs
     id="defs6"><clipPath
       clipPathUnits="userSpaceOnUse"
       id="clipPath18"><path
         d="M 0,0.028 H 691.625 V 396.85 H 0 Z"
         clip-rule="evenodd"
         id="path16" /></clipPath><clipPath
       clipPathUnits="userSpaceOnUse"
       id="clipPath110"><path
         d="M 250.781,8.645 H 527.442 V 179.659 H 250.781 Z"
         clip-rule="evenodd"
         id="path108" /></clipPath><clipPath
       clipPathUnits="userSpaceOnUse"
       id="clipPath256"><path
         d="M 0,0.028 H 691.625 V 396.85 H 0 Z"
         clip-rule="evenodd"
         id="path254" /></clipPath></defs><g
     id="g10"
     transform="matrix(1.3333333,0,0,-1.3333333,0,529.13386)"><g
       id="g12"><g
         id="g14"
         clip-path="url(#clipPath18)"><path
           d="M 0,396.85 H 691.625 V 0.028 L 0,0.028 Z"
           style="fill:#ffffff;fill-opacity:1;fill-rule:evenodd;stroke:none"
           id="path20" /><g
           id="g22"><path
             d="m 555.846,328.252 c 0,-0.482 -0.907,-0.993 -2.665,-1.446 -1.757,-0.425 -4.28,-0.794 -7.285,-1.049 -3.033,-0.255 -6.491,-0.397 -9.978,-0.397 -3.487,0 -6.945,0.142 -9.949,0.397 -3.034,0.255 -5.556,0.624 -7.314,1.049 -1.757,0.453 -2.664,0.964 -2.664,1.446 0,0.51 0.907,1.02 2.664,1.474 1.758,0.425 4.28,0.793 7.314,1.048 3.004,0.256 6.462,0.397 9.949,0.397 3.487,0 6.945,-0.141 9.978,-0.397 3.005,-0.255 5.528,-0.623 7.285,-1.048 1.758,-0.454 2.665,-0.964 2.665,-1.474 z"
             style="fill:none;stroke:#000000;stroke-width:0.73699;stroke-linecap:butt;stroke-linejoin:miter;stroke-miterlimit:3.8637;stroke-dasharray:none;stroke-opacity:1"
             id="path24" /></g><g
           id="g26"><path
             d="m 465.08,328.252 c 0,-0.482 -0.907,-0.993 -2.664,-1.446 -1.729,-0.425 -4.224,-0.794 -7.257,-1.049 -3.005,-0.255 -6.435,-0.397 -9.893,-0.397 -3.486,0 -6.916,0.142 -9.921,0.397 -3.033,0.255 -5.528,0.624 -7.257,1.049 -1.757,0.453 -2.664,0.964 -2.664,1.446 0,0.51 0.907,1.02 2.664,1.474 1.729,0.425 4.224,0.793 7.257,1.048 3.005,0.256 6.435,0.397 9.921,0.397 3.458,0 6.888,-0.141 9.893,-0.397 3.033,-0.255 5.528,-0.623 7.257,-1.048 1.757,-0.454 2.664,-0.964 2.664,-1.474 z"
             style="fill:none;stroke:#000000;stroke-width:0.73699;stroke-linecap:butt;stroke-linejoin:miter;stroke-miterlimit:3.8637;stroke-dasharray:none;stroke-opacity:1"
             id="path28" /></g><g
           id="g30"><path
             d="m 555.846,328.28 14.995,-7.342"
             style="fill:none;stroke:#000000;stroke-width:0.73699;stroke-linecap:butt;stroke-linejoin:miter;stroke-miterlimit:10;stroke-dasharray:none;stroke-opacity:1"
             id="path32" /></g><path
           d="m 578.353,317.253 -9.298,-0.425 -0.142,1.531 6.548,0.283 -3.77,5.386 1.304,0.85 z"
           style="fill:#000000;fill-opacity:1;fill-rule:evenodd;stroke:none"
           id="path34" /><g
           id="g36"><path
             d="M 425.424,328.28 321.279,293.244"
             style="fill:none;stroke:#000000;stroke-width:0.73699;stroke-linecap:butt;stroke-linejoin:miter;stroke-miterlimit:10;stroke-dasharray:none;stroke-opacity:1"
             id="path38" /></g><path
           d="m 313.342,290.579 6.321,6.86 1.162,-1.02 -4.45,-4.791 6.463,-1.162 -0.34,-1.531 z"
           style="fill:#000000;fill-opacity:1;fill-rule:evenodd;stroke:none"
           id="path40" /><g
           id="g42"><path
             d="M 576.085,320.258 H 683.887 V 279.212 H 576.085 v 41.046 z"
             style="fill:none;stroke:#000000;stroke-width:0.73699;stroke-linecap:butt;stroke-linejoin:miter;stroke-miterlimit:3.8637;stroke-dasharray:none;stroke-opacity:1"
             id="path44" /></g><g
           id="g46"><text
             transform="matrix(1,0,0,-1,587.991,302.541)"
             style="font-variant:normal;font-weight:normal;font-size:14.003px;font-family:'Liberation Sans';-inkscape-font-specification:LiberationSans;writing-mode:lr-tb;fill:#000000;fill-opacity:1;fill-rule:nonzero;stroke:none"
             id="text50"><tspan
               x="0 7.7856679 15.571336 19.562191 27.347858 34.433376 42.219044 46.2099 53.211399 60.997066 68.082588 72.073441"
               y="0"
               id="tspan48">datová cesta</tspan></text></g><g
           id="g52" /><g
           id="g54"><text
             transform="matrix(1,0,0,-1,584.107,285.76)"
             style="font-variant:normal;font-weight:normal;font-size:14.003px;font-family:'Liberation Sans';-inkscape-font-specification:LiberationSans;writing-mode:lr-tb;fill:#000000;fill-opacity:1;fill-rule:nonzero;stroke:none"
             id="text58"><tspan
               x="0 3.990855 11.076373 18.862041 21.956703 29.042221 36.04372 43.129238 47.120094 54.905762 62.691429 70.477097 74.467957 82.253624"
               y="0"
               id="tspan56">typicky 32b/4B</tspan></text></g><g
           id="g60"><path
             d="M 239.528,287.064 H 374.825 V 260.419 H 239.528 v 26.645 z"
             style="fill:none;stroke:#000000;stroke-width:0.73699;stroke-linecap:butt;stroke-linejoin:miter;stroke-miterlimit:3.8637;stroke-dasharray:none;stroke-opacity:1"
             id="path62" /></g><g
           id="g64"><text
             transform="matrix(1,0,0,-1,254.296,267.363)"
             style="font-variant:normal;font-weight:normal;font-size:15.987px;font-family:'Liberation Sans';-inkscape-font-specification:LiberationSans;writing-mode:lr-tb;fill:#000000;fill-opacity:1;fill-rule:nonzero;stroke:none"
             id="text68"><tspan
               x="0 8.888772 17.777544 22.973318 31.862091 39.935528 48.728374 53.204735 62.09351 66.489929 75.378708 79.775131 88.663902 92.244987 96.641418"
               y="0"
               id="tspan66">adresa – n bitů</tspan></text></g><g
           id="g70"><path
             d="M 142.384,60.321 H 119.679 V 372.104 H 165.09 V 60.321 Z"
             style="fill:none;stroke:#000000;stroke-width:0.73699;stroke-linecap:butt;stroke-linejoin:round;stroke-miterlimit:10;stroke-dasharray:none;stroke-opacity:1"
             id="path72" /></g><g
           id="g74"><path
             d="m 238.819,275.726 -62.022,56.749"
             style="fill:none;stroke:#000000;stroke-width:0.73699;stroke-linecap:butt;stroke-linejoin:miter;stroke-miterlimit:10;stroke-dasharray:none;stroke-opacity:1"
             id="path76" /></g><path
           d="m 170.617,338.116 9.043,-2.211 -0.312,-1.531 -6.35,1.588 2.098,-6.208 -1.474,-0.454 z"
           style="fill:#000000;fill-opacity:1;fill-rule:evenodd;stroke:none"
           id="path78" /><g
           id="g80"><path
             d="M 238.819,270.085 177.307,224.078"
             style="fill:none;stroke:#000000;stroke-width:0.73699;stroke-linecap:butt;stroke-linejoin:miter;stroke-miterlimit:10;stroke-dasharray:none;stroke-opacity:1"
             id="path82" /></g><path
           d="m 170.617,219.061 3.855,8.476 1.446,-0.596 -2.749,-5.952 6.491,0.935 0.17,-1.559 z"
           style="fill:#000000;fill-opacity:1;fill-rule:evenodd;stroke:none"
           id="path84" /><g
           id="g86"><path
             d="M 238.819,264.415 173.65,96.321"
             style="fill:none;stroke:#000000;stroke-width:0.73699;stroke-linecap:butt;stroke-linejoin:miter;stroke-miterlimit:10;stroke-dasharray:none;stroke-opacity:1"
             id="path88" /></g><path
           d="m 170.617,88.526 -1.219,9.241 1.531,0.255 0.851,-6.492 5.017,4.224 0.935,-1.247 z"
           style="fill:#000000;fill-opacity:1;fill-rule:evenodd;stroke:none"
           id="path90" /><g
           id="g92"><text
             transform="matrix(1,0,0,-1,50.202,34.441)"
             style="font-variant:normal;font-weight:bold;font-size:18px;font-family:'Liberation Sans';-inkscape-font-specification:LiberationSans-Bold;writing-mode:lr-tb;fill:#000000;fill-opacity:1;fill-rule:nonzero;stroke:none"
             id="text96"><tspan
               x="0 10.008 19.908001 24.983999 29.969999 39.978001 50.958 60.966 66.959999 71.945999 82.926003 92.933998 108.936 118.836 127.512 138.492 148.5 158.39999"
               y="0"
               id="tspan94">velikost paměťové </tspan></text></g><g
           id="g98"><text
             transform="matrix(1,0,0,-1,55.502,12.841)"
             style="font-variant:normal;font-weight:bold;font-size:18px;font-family:'Liberation Sans';-inkscape-font-specification:LiberationSans-Bold;writing-mode:lr-tb;fill:#000000;fill-opacity:1;fill-rule:nonzero;stroke:none"
             id="text102"><tspan
               x="0 10.98 22.068001 33.048 43.056 52.956001 58.032001 64.026001 73.926003 84.905998 89.982002 99.989998 109.89 119.898 124.884 134.892"
               y="0"
               id="tspan100">buňky typicky 1B</tspan></text></g></g></g><g
       id="g104"><g
         id="g106"
         clip-path="url(#clipPath110)"><path
           d="m 251.631,179.234 h 61.144 v -38.211 h -61.144 z"
           style="fill:#bbe0e3;fill-opacity:1;fill-rule:evenodd;stroke:none"
           id="path112" /><g
           id="g114" /><g
           id="g116"><text
             transform="matrix(1,0,0,-1,281.594,157.549)"
             style="font-variant:normal;font-weight:bold;font-size:19.899px;font-family:'Liberation Sans';-inkscape-font-specification:LiberationSans-Bold;writing-mode:lr-tb;fill:#ff0000;fill-opacity:1;fill-rule:nonzero;stroke:none"
             id="text120"><tspan
               x="0"
               y="0"
               id="tspan118">n</tspan></text></g><path
           d="M 312.775,179.234 H 526.592 V 141.023 H 312.775 Z"
           style="fill:#bbe0e3;fill-opacity:1;fill-rule:evenodd;stroke:none"
           id="path122" /><g
           id="g124"><text
             transform="matrix(1,0,0,-1,409.011,150.236)"
             style="font-variant:normal;font-weight:bold;font-size:19.899px;font-family:'Liberation Sans';-inkscape-font-specification:LiberationSans-Bold;writing-mode:lr-tb;fill:#ff0000;fill-opacity:1;fill-rule:nonzero;stroke:none"
             id="text128"><tspan
               x="0"
               y="0"
               id="tspan126">2</tspan></text></g><g
           id="g130"><text
             transform="matrix(1,0,0,-1,420.094,160.242)"
             style="font-variant:normal;font-weight:bold;font-size:16.894px;font-family:'Liberation Sans';-inkscape-font-specification:LiberationSans-Bold;writing-mode:lr-tb;fill:#ff0000;fill-opacity:1;fill-rule:nonzero;stroke:none"
             id="text134"><tspan
               x="0"
               y="0"
               id="tspan132">n</tspan></text></g><path
           d="m 251.631,141.023 h 61.144 v -31.238 h -61.144 z"
           style="fill:#e7f3f4;fill-opacity:1;fill-rule:evenodd;stroke:none"
           id="path136" /><g
           id="g138" /><g
           id="g140"><text
             transform="matrix(1,0,0,-1,282.104,119.338)"
             style="font-variant:normal;font-weight:normal;font-size:19.899px;font-family:'Liberation Sans';-inkscape-font-specification:LiberationSans;writing-mode:lr-tb;fill:#000000;fill-opacity:1;fill-rule:nonzero;stroke:none"
             id="text144"><tspan
               x="0"
               y="0"
               id="tspan142">8</tspan></text></g><path
           d="M 312.775,141.023 H 526.592 V 109.785 H 312.775 Z"
           style="fill:#e7f3f4;fill-opacity:1;fill-rule:evenodd;stroke:none"
           id="path146" /><g
           id="g148"><text
             transform="matrix(1,0,0,-1,335.395,119.338)"
             style="font-variant:normal;font-weight:normal;font-size:19.899px;font-family:'Liberation Sans';-inkscape-font-specification:LiberationSans;writing-mode:lr-tb;fill:#000000;fill-opacity:1;fill-rule:nonzero;stroke:none"
             id="text152"><tspan
               x="0 11.083743 22.087891 33.171635 38.663757 45.349819 56.433563 66.422859 77.506607 87.495903 97.485199 108.66844 114.16056 125.16471 136.24846 147.3322 158.41594"
               y="0"
               id="tspan150">256 různých buněk</tspan></text></g><path
           d="m 251.631,109.785 h 61.144 V 78.519 h -61.144 z"
           style="fill:#f3f9fa;fill-opacity:1;fill-rule:evenodd;stroke:none"
           id="path154" /><g
           id="g156"><text
             transform="matrix(1,0,0,-1,271.106,88.157)"
             style="font-variant:normal;font-weight:normal;font-size:19.899px;font-family:'Liberation Sans';-inkscape-font-specification:LiberationSans;writing-mode:lr-tb;fill:#000000;fill-opacity:1;fill-rule:nonzero;stroke:none"
             id="text160"><tspan
               x="0 11.083743"
               y="0"
               id="tspan158">16</tspan></text></g><path
           d="M 312.775,109.785 H 526.592 V 78.519 H 312.775 Z"
           style="fill:#f3f9fa;fill-opacity:1;fill-rule:evenodd;stroke:none"
           id="path162" /><g
           id="g164"><text
             transform="matrix(1,0,0,-1,357.902,88.157)"
             style="font-variant:normal;font-weight:normal;font-size:19.899px;font-family:'Liberation Sans';-inkscape-font-specification:LiberationSans;writing-mode:lr-tb;fill:#000000;fill-opacity:1;fill-rule:nonzero;stroke:none"
             id="text168"><tspan
               x="0 11.083743 22.167486 35.360523 40.852646 47.538712 60.731747 72.41246 83.496201 94.579948 105.66369 116.74744"
               y="0"
               id="tspan166">64K (K=1024)</tspan></text></g><path
           d="m 251.631,78.519 h 61.144 V 47.281 h -61.144 z"
           style="fill:#e7f3f4;fill-opacity:1;fill-rule:evenodd;stroke:none"
           id="path170" /><g
           id="g172"><text
             transform="matrix(1,0,0,-1,272.211,56.863)"
             style="font-variant:normal;font-weight:normal;font-size:19.899px;font-family:'Liberation Sans';-inkscape-font-specification:LiberationSans;writing-mode:lr-tb;fill:#000000;fill-opacity:1;fill-rule:nonzero;stroke:none"
             id="text176"><tspan
               x="0"
               y="0"
               id="tspan174">…</tspan></text></g><path
           d="M 312.775,78.519 H 526.592 V 47.281 H 312.775 Z"
           style="fill:#e7f3f4;fill-opacity:1;fill-rule:evenodd;stroke:none"
           id="path178" /><g
           id="g180"><text
             transform="matrix(1,0,0,-1,399.798,56.863)"
             style="font-variant:normal;font-weight:normal;font-size:19.899px;font-family:'Liberation Sans';-inkscape-font-specification:LiberationSans;writing-mode:lr-tb;fill:#000000;fill-opacity:1;fill-rule:nonzero;stroke:none"
             id="text184"><tspan
               x="0 19.899"
               y="0"
               id="tspan182">……</tspan></text></g><path
           d="m 251.631,47.281 h 61.144 V 9.07 h -61.144 z"
           style="fill:#f3f9fa;fill-opacity:1;fill-rule:evenodd;stroke:none"
           id="path186" /><g
           id="g188"><text
             transform="matrix(1,0,0,-1,271.106,25.54)"
             style="font-variant:normal;font-weight:normal;font-size:19.899px;font-family:'Liberation Sans';-inkscape-font-specification:LiberationSans;writing-mode:lr-tb;fill:#000000;fill-opacity:1;fill-rule:nonzero;stroke:none"
             id="text192"><tspan
               x="0 11.083743"
               y="0"
               id="tspan190">32</tspan></text></g><path
           d="M 312.775,47.281 H 526.592 V 9.07 H 312.775 Z"
           style="fill:#f3f9fa;fill-opacity:1;fill-rule:evenodd;stroke:none"
           id="path194" /><g
           id="g196"><text
             transform="matrix(1,0,0,-1,335.509,18.34)"
             style="font-variant:normal;font-weight:normal;font-size:19.899px;font-family:'Liberation Sans';-inkscape-font-specification:LiberationSans;writing-mode:lr-tb;fill:#000000;fill-opacity:1;fill-rule:nonzero;stroke:none"
             id="text200"><tspan
               x="0 11.083743 26.565165 32.057289 38.743355 49.827095 60.910839 71.994583 83.078323 99.65419 105.14632 110.53895 127.11481 138.79553"
               y="0"
               id="tspan198">4G (4096M, M=K</tspan></text></g><g
           id="g202"><text
             transform="matrix(1,0,0,-1,487.701,28.261)"
             style="font-variant:normal;font-weight:normal;font-size:16.894px;font-family:'Liberation Sans';-inkscape-font-specification:LiberationSans;writing-mode:lr-tb;fill:#000000;fill-opacity:1;fill-rule:nonzero;stroke:none"
             id="text206"><tspan
               x="0"
               y="0"
               id="tspan204">2</tspan></text></g><g
           id="g208"><text
             transform="matrix(1,0,0,-1,497.112,18.34)"
             style="font-variant:normal;font-weight:normal;font-size:19.899px;font-family:'Liberation Sans';-inkscape-font-specification:LiberationSans;writing-mode:lr-tb;fill:#000000;fill-opacity:1;fill-rule:nonzero;stroke:none"
             id="text212"><tspan
               x="0"
               y="0"
               id="tspan210">)</tspan></text></g><g
           id="g214"><path
             d="M 251.263,179.234 H 526.961"
             style="fill:none;stroke:#ffffff;stroke-width:0.73256;stroke-linecap:butt;stroke-linejoin:round;stroke-miterlimit:10;stroke-dasharray:none;stroke-opacity:1"
             id="path216" /></g><g
           id="g218"><path
             d="M 251.631,179.603 V 8.702"
             style="fill:none;stroke:#ffffff;stroke-width:0.73256;stroke-linecap:butt;stroke-linejoin:round;stroke-miterlimit:10;stroke-dasharray:none;stroke-opacity:1"
             id="path220" /></g><g
           id="g222"><path
             d="M 312.775,179.603 V 8.702"
             style="fill:none;stroke:#ffffff;stroke-width:0.73256;stroke-linecap:butt;stroke-linejoin:round;stroke-miterlimit:10;stroke-dasharray:none;stroke-opacity:1"
             id="path224" /></g><g
           id="g226"><path
             d="M 526.592,179.603 V 8.702"
             style="fill:none;stroke:#ffffff;stroke-width:0.73256;stroke-linecap:butt;stroke-linejoin:round;stroke-miterlimit:10;stroke-dasharray:none;stroke-opacity:1"
             id="path228" /></g><g
           id="g230"><path
             d="M 251.263,141.023 H 526.961"
             style="fill:none;stroke:#ffffff;stroke-width:1.29608;stroke-linecap:butt;stroke-linejoin:round;stroke-miterlimit:10;stroke-dasharray:none;stroke-opacity:1"
             id="path232" /></g><g
           id="g234"><path
             d="M 251.263,109.785 H 526.961"
             style="fill:none;stroke:#ffffff;stroke-width:0.73256;stroke-linecap:butt;stroke-linejoin:round;stroke-miterlimit:10;stroke-dasharray:none;stroke-opacity:1"
             id="path236" /></g><g
           id="g238"><path
             d="M 251.263,78.519 H 526.961"
             style="fill:none;stroke:#ffffff;stroke-width:0.73256;stroke-linecap:butt;stroke-linejoin:round;stroke-miterlimit:10;stroke-dasharray:none;stroke-opacity:1"
             id="path240" /></g><g
           id="g242"><path
             d="M 251.263,47.281 H 526.961"
             style="fill:none;stroke:#ffffff;stroke-width:0.73256;stroke-linecap:butt;stroke-linejoin:round;stroke-miterlimit:10;stroke-dasharray:none;stroke-opacity:1"
             id="path244" /></g><g
           id="g246"><path
             d="M 251.263,9.07 H 526.961"
             style="fill:none;stroke:#ffffff;stroke-width:0.73256;stroke-linecap:butt;stroke-linejoin:round;stroke-miterlimit:10;stroke-dasharray:none;stroke-opacity:1"
             id="path248" /></g></g></g><g
       id="g250"><g
         id="g252"
         clip-path="url(#clipPath256)"><g
           id="g258"><path
             d="m 20.154,84.954 h 93.94 V 60.689 h -93.94 v 24.265 z"
             style="fill:none;stroke:#000000;stroke-width:0.73699;stroke-linecap:butt;stroke-linejoin:miter;stroke-miterlimit:3.8637;stroke-dasharray:none;stroke-opacity:1"
             id="path260" /></g><g
           id="g262"><text
             transform="matrix(1,0,0,-1,50.088,67.237)"
             style="font-variant:normal;font-weight:normal;font-size:14.003px;font-family:'Liberation Sans';-inkscape-font-specification:LiberationSans;writing-mode:lr-tb;fill:#000000;fill-opacity:1;fill-rule:nonzero;stroke:none"
             id="text266"><tspan
               x="0 7.7856679 15.571336 23.357004 31.142672 38.928341 46.714008"
               y="0"
               id="tspan264">000000H</tspan></text></g><g
           id="g268"><path
             d="m 20.183,372.104 h 88.696 V 347.839 H 20.183 v 24.265 z"
             style="fill:none;stroke:#000000;stroke-width:0.73699;stroke-linecap:butt;stroke-linejoin:miter;stroke-miterlimit:3.8637;stroke-dasharray:none;stroke-opacity:1"
             id="path270" /></g><g
           id="g272"><text
             transform="matrix(1,0,0,-1,35.093,354.359)"
             style="font-variant:normal;font-weight:normal;font-size:14.003px;font-family:'Liberation Sans';-inkscape-font-specification:LiberationSans;writing-mode:lr-tb;fill:#000000;fill-opacity:1;fill-rule:nonzero;stroke:none"
             id="text276"><tspan
               x="0 8.4998207 16.999641 25.499462 39.586479 48.086304 56.586124"
               y="0"
               id="tspan274">FFF…FFH</tspan></text></g><g
           id="g278"><path
             d="m 119.679,315.411 h 45.382"
             style="fill:none;stroke:#000000;stroke-width:0.73699;stroke-linecap:butt;stroke-linejoin:miter;stroke-miterlimit:3.8637;stroke-dasharray:none;stroke-opacity:1"
             id="path280" /></g><g
           id="g282"><path
             d="m 119.679,298.431 h 45.382"
             style="fill:none;stroke:#000000;stroke-width:0.73699;stroke-linecap:butt;stroke-linejoin:miter;stroke-miterlimit:3.8637;stroke-dasharray:none;stroke-opacity:1"
             id="path284" /></g><g
           id="g286"><path
             d="M 142.271,309.685 248.06,351.921"
             style="fill:none;stroke:#000000;stroke-width:0.73699;stroke-linecap:butt;stroke-linejoin:miter;stroke-miterlimit:10;stroke-dasharray:none;stroke-opacity:1"
             id="path288" /></g><path
           d="m 255.827,355.011 -5.925,-7.172 -1.219,0.935 4.167,5.046 -6.519,0.794 0.255,1.53 z"
           style="fill:#000000;fill-opacity:1;fill-rule:evenodd;stroke:none"
           id="path290" /><g
           id="g292"><path
             d="M 255.742,366.434 H 369.184 V 334.941 H 255.742 v 31.493 z"
             style="fill:none;stroke:#000000;stroke-width:0.73699;stroke-linecap:butt;stroke-linejoin:miter;stroke-miterlimit:3.8637;stroke-dasharray:none;stroke-opacity:1"
             id="path294" /></g><g
           id="g296"><text
             transform="matrix(1,0,0,-1,276.208,342.737)"
             style="font-variant:normal;font-weight:normal;font-size:20.013px;font-family:'Liberation Sans';-inkscape-font-specification:LiberationSans;writing-mode:lr-tb;fill:#000000;fill-opacity:1;fill-rule:nonzero;stroke:none"
             id="text300"><tspan
               x="0 11.187267 22.294481 33.48175 44.669018 55.77623 61.279804"
               y="0"
               id="tspan298">hodnota</tspan></text></g><path
           d="m 490.62,339.959 h -76.251 v 41.896 h 152.503 v -41.896 z"
           style="fill:#729fcf;fill-opacity:1;fill-rule:evenodd;stroke:none"
           id="path302" /><g
           id="g304"><path
             d="m 490.62,339.959 h -76.251 v 41.896 h 152.503 v -41.896 z"
             style="fill:none;stroke:#000000;stroke-width:0.85038;stroke-linecap:butt;stroke-linejoin:round;stroke-miterlimit:10;stroke-dasharray:none;stroke-opacity:1"
             id="path306" /></g><g
           id="g308"><text
             transform="matrix(1,0,0,-1,463.805,354.642)"
             style="font-variant:normal;font-weight:normal;font-size:18px;font-family:'Liberation Sans';-inkscape-font-specification:LiberationSans;writing-mode:lr-tb;fill:#000000;fill-opacity:1;fill-rule:nonzero;stroke:none"
             id="text312"><tspan
               x="0 11.988 21.996 36.990002 46.889999"
               y="0"
               id="tspan310">Paměť</tspan></text></g><path
           d="m 445.294,259.256 h -30.188 v 53.263 h 60.377 v -53.263 z"
           style="fill:#729fcf;fill-opacity:1;fill-rule:evenodd;stroke:none"
           id="path314" /><g
           id="g316"><path
             d="m 445.294,259.256 h -30.188 v 53.263 h 60.377 v -53.263 z"
             style="fill:none;stroke:#000000;stroke-width:0.85038;stroke-linecap:butt;stroke-linejoin:round;stroke-miterlimit:10;stroke-dasharray:none;stroke-opacity:1"
             id="path318" /></g><g
           id="g320"><text
             transform="matrix(1,0,0,-1,425.991,288.963)"
             style="font-variant:normal;font-weight:normal;font-size:14.995px;font-family:'Liberation Sans';-inkscape-font-specification:LiberationSans;writing-mode:lr-tb;fill:#000000;fill-opacity:1;fill-rule:nonzero;stroke:none"
             id="text324"><tspan
               x="0 10.7964 14.980005 23.362209 26.75108 34.248581"
               y="0"
               id="tspan322">Řídicí</tspan></text></g><g
           id="g326"><text
             transform="matrix(1,0,0,-1,416.693,272.352)"
             style="font-variant:normal;font-weight:normal;font-size:14.995px;font-family:'Liberation Sans';-inkscape-font-specification:LiberationSans;writing-mode:lr-tb;fill:#000000;fill-opacity:1;fill-rule:nonzero;stroke:none"
             id="text330"><tspan
               x="0 3.38887 11.771075 20.15328 28.535484 36.91769 41.101295 48.598797"
               y="0"
               id="tspan328">jednotka</tspan></text></g><path
           d="m 537.165,259.256 h -30.189 v 53.263 h 60.378 v -53.263 z"
           style="fill:#729fcf;fill-opacity:1;fill-rule:evenodd;stroke:none"
           id="path332" /><g
           id="g334"><path
             d="m 537.165,259.256 h -30.189 v 53.263 h 60.378 v -53.263 z"
             style="fill:none;stroke:#000000;stroke-width:0.85038;stroke-linecap:butt;stroke-linejoin:round;stroke-miterlimit:10;stroke-dasharray:none;stroke-opacity:1"
             id="path336" /></g><g
           id="g338"><text
             transform="matrix(1,0,0,-1,525.487,288.963)"
             style="font-variant:normal;font-weight:normal;font-size:14.995px;font-family:'Liberation Sans';-inkscape-font-specification:LiberationSans;writing-mode:lr-tb;fill:#000000;fill-opacity:1;fill-rule:nonzero;stroke:none"
             id="text342"><tspan
               x="0 9.8966999 14.980005"
               y="0"
               id="tspan340">A-L</tspan></text></g><g
           id="g344"><text
             transform="matrix(1,0,0,-1,508.592,272.352)"
             style="font-variant:normal;font-weight:normal;font-size:14.995px;font-family:'Liberation Sans';-inkscape-font-specification:LiberationSans;writing-mode:lr-tb;fill:#000000;fill-opacity:1;fill-rule:nonzero;stroke:none"
             id="text348"><tspan
               x="0 3.38887 11.771075 20.063311 28.55048 36.932686 41.116291 48.613789"
               y="0"
               id="tspan346">jednotka</tspan></text></g><path
           d="m 481.861,204.888 h -31.124 v 24.009 h 62.249 v -24.009 z"
           style="fill:#729fcf;fill-opacity:1;fill-rule:evenodd;stroke:none"
           id="path350" /><g
           id="g352"><path
             d="m 481.861,204.888 h -31.124 v 24.009 h 62.249 v -24.009 z"
             style="fill:none;stroke:#000000;stroke-width:0.85038;stroke-linecap:butt;stroke-linejoin:round;stroke-miterlimit:10;stroke-dasharray:none;stroke-opacity:1"
             id="path354" /></g><g
           id="g356"><text
             transform="matrix(1,0,0,-1,462.614,211.663)"
             style="font-variant:normal;font-weight:normal;font-size:14.995px;font-family:'Liberation Sans';-inkscape-font-specification:LiberationSans;writing-mode:lr-tb;fill:#000000;fill-opacity:1;fill-rule:nonzero;stroke:none"
             id="text360"><tspan
               x="0 9.9866695 17.484171 21.667774 30.04998"
               y="0"
               id="tspan358">Vstup</tspan></text></g><path
           d="m 595.247,204.888 h -31.124 v 24.009 h 62.249 v -24.009 z"
           style="fill:#729fcf;fill-opacity:1;fill-rule:evenodd;stroke:none"
           id="path362" /><g
           id="g364"><path
             d="m 595.247,204.888 h -31.124 v 24.009 h 62.249 v -24.009 z"
             style="fill:none;stroke:#000000;stroke-width:0.85038;stroke-linecap:butt;stroke-linejoin:round;stroke-miterlimit:10;stroke-dasharray:none;stroke-opacity:1"
             id="path366" /></g><g
           id="g368"><text
             transform="matrix(1,0,0,-1,572.202,211.663)"
             style="font-variant:normal;font-weight:normal;font-size:14.995px;font-family:'Liberation Sans';-inkscape-font-specification:LiberationSans;writing-mode:lr-tb;fill:#000000;fill-opacity:1;fill-rule:nonzero;stroke:none"
             id="text372"><tspan
               x="0 9.9866695 17.484171 25.07164 29.255245 37.637451"
               y="0"
               id="tspan370">Výstup</tspan></text></g><g
           id="g374"><path
             d="M 481.266,228.926 522.51,253.87"
             style="fill:none;stroke:#3465a4;stroke-width:1.4173;stroke-linecap:butt;stroke-linejoin:round;stroke-miterlimit:10;stroke-dasharray:none;stroke-opacity:1"
             id="path376" /></g><path
           d="m 532.942,260.163 -13.125,-2.948 4.394,-7.285 z"
           style="fill:#3465a4;fill-opacity:1;fill-rule:evenodd;stroke:none"
           id="path378" /><g
           id="g380"><path
             d="m 540,258.491 47.424,-23.726"
             style="fill:none;stroke:#3465a4;stroke-width:1.4173;stroke-linecap:butt;stroke-linejoin:round;stroke-miterlimit:10;stroke-dasharray:none;stroke-opacity:1"
             id="path382" /></g><path
           d="m 598.337,229.322 -9.496,9.497 -3.827,-7.597 z"
           style="fill:#3465a4;fill-opacity:1;fill-rule:evenodd;stroke:none"
           id="path384" /><g
           id="g386"><path
             d="m 444.586,312.661 0.255,16.158"
             style="fill:none;stroke:#3465a4;stroke-width:1.4173;stroke-linecap:butt;stroke-linejoin:round;stroke-miterlimit:10;stroke-dasharray:none;stroke-opacity:1"
             id="path388" /></g><path
           d="m 445.011,341.007 -4.45,-12.699 8.504,-0.113 z"
           style="fill:#3465a4;fill-opacity:1;fill-rule:evenodd;stroke:none"
           id="path390" /><g
           id="g392"><path
             d="m 534.813,325.332 0.085,3.968"
             style="fill:none;stroke:#3465a4;stroke-width:1.4173;stroke-linecap:butt;stroke-linejoin:round;stroke-miterlimit:10;stroke-dasharray:none;stroke-opacity:1"
             id="path394" /></g><path
           d="m 534.643,313.143 4.45,12.699 -8.504,0.114 z"
           style="fill:#3465a4;fill-opacity:1;fill-rule:evenodd;stroke:none"
           id="path396" /><path
           d="m 535.068,341.489 -4.451,-12.699 8.504,-0.113 z"
           style="fill:#3465a4;fill-opacity:1;fill-rule:evenodd;stroke:none"
           id="path398" /><g
           id="g400"><path
             d="m 494.079,286.072 -6.038,-0.142"
             style="fill:none;stroke:#3465a4;stroke-width:1.4173;stroke-linecap:butt;stroke-linejoin:round;stroke-miterlimit:10;stroke-dasharray:none;stroke-opacity:1"
             id="path402" /></g><path
           d="m 506.268,286.412 -12.87,3.912 0.227,-8.504 z"
           style="fill:#3465a4;fill-opacity:1;fill-rule:evenodd;stroke:none"
           id="path404" /><path
           d="m 475.852,285.59 12.869,-3.912 -0.227,8.504 z"
           style="fill:#3465a4;fill-opacity:1;fill-rule:evenodd;stroke:none"
           id="path406" /></g></g></g></svg>
