<?xml version="1.0" encoding="UTF-8" standalone="no"?>
<svg
   xmlns:dc="http://purl.org/dc/elements/1.1/"
   xmlns:cc="http://creativecommons.org/ns#"
   xmlns:rdf="http://www.w3.org/1999/02/22-rdf-syntax-ns#"
   xmlns:svg="http://www.w3.org/2000/svg"
   xmlns="http://www.w3.org/2000/svg"
   version="1.1"
   id="svg2"
   xml:space="preserve"
   width="471.86664"
   height="355.41998"
   viewBox="0 0 471.86664 355.41998"><metadata
     id="metadata8"><rdf:RDF><cc:Work
         rdf:about=""><dc:format>image/svg+xml</dc:format><dc:type
           rdf:resource="http://purl.org/dc/dcmitype/StillImage" /><dc:title></dc:title></cc:Work></rdf:RDF></metadata><defs
     id="defs6"><clipPath
       clipPathUnits="userSpaceOnUse"
       id="clipPath18"><path
         d="M 0,0.028 H 719.971 V 539.999 H 0 Z"
         clip-rule="evenodd"
         id="path16" /></clipPath><clipPath
       clipPathUnits="userSpaceOnUse"
       id="clipPath28"><path
         d="m 19.757,26.248 h 680.485 v 22.62 H 19.757 Z"
         clip-rule="evenodd"
         id="path26" /></clipPath><clipPath
       clipPathUnits="userSpaceOnUse"
       id="clipPath36"><path
         d="M 0,0 H 680.513 V 22.649 H 0 Z"
         id="path34" /></clipPath><linearGradient
       x1="341"
       y1="24"
       x2="341"
       y2="0"
       gradientUnits="userSpaceOnUse"
       spreadMethod="pad"
       id="linearGradient42"><stop
         style="stop-opacity:1;stop-color:#182f76"
         offset="0"
         id="stop38" /><stop
         style="stop-opacity:1;stop-color:#182f76"
         offset="1"
         id="stop40" /></linearGradient><clipPath
       clipPathUnits="userSpaceOnUse"
       id="clipPath52"><path
         d="M 0,0.028 H 719.971 V 539.999 H 0 Z"
         clip-rule="evenodd"
         id="path50" /></clipPath><clipPath
       clipPathUnits="userSpaceOnUse"
       id="clipPath76"><path
         d="m 19.785,468 h 680.428 v 48.245 H 19.785 Z"
         clip-rule="evenodd"
         id="path74" /></clipPath><clipPath
       clipPathUnits="userSpaceOnUse"
       id="clipPath84"><path
         d="M 0,0 H 680.457 V 48.274 H 0 Z"
         id="path82" /></clipPath><linearGradient
       x1="340"
       y1="49"
       x2="340"
       y2="0"
       gradientUnits="userSpaceOnUse"
       spreadMethod="pad"
       id="linearGradient90"><stop
         style="stop-opacity:1;stop-color:#83afdb"
         offset="0"
         id="stop86" /><stop
         style="stop-opacity:1;stop-color:#83afdb"
         offset="1"
         id="stop88" /></linearGradient><clipPath
       clipPathUnits="userSpaceOnUse"
       id="clipPath100"><path
         d="M 0,0.028 H 719.971 V 539.999 H 0 Z"
         clip-rule="evenodd"
         id="path98" /></clipPath></defs><g
     id="g10"
     transform="matrix(1.3333333,0,0,-1.3333333,-260.262,599.31665)"><g
       id="g126"><path
         d="M 262.148,319.663 457.824,319.55"
         style="fill:none;stroke:#231f20;stroke-width:0.73699;stroke-linecap:butt;stroke-linejoin:round;stroke-miterlimit:10;stroke-dasharray:none;stroke-opacity:1"
         id="path128" /></g><g
       id="g130"><path
         d="m 262.148,401.811 0.142,-172.63"
         style="fill:none;stroke:#231f20;stroke-width:0.73699;stroke-linecap:butt;stroke-linejoin:round;stroke-miterlimit:10;stroke-dasharray:none;stroke-opacity:1"
         id="path132" /></g><g
       id="g134"><path
         d="m 457.824,401.811 0.085,-172.63"
         style="fill:none;stroke:#231f20;stroke-width:0.73699;stroke-linecap:butt;stroke-linejoin:round;stroke-miterlimit:10;stroke-dasharray:none;stroke-opacity:1"
         id="path136" /></g><g
       id="g138"><path
         d="m 206.362,401.811 111.912,-0.113"
         style="fill:none;stroke:#231f20;stroke-width:0.73699;stroke-linecap:butt;stroke-linejoin:round;stroke-miterlimit:10;stroke-dasharray:none;stroke-opacity:1"
         id="path140" /></g><g
       id="g142"><path
         d="m 401.839,401.811 111.77,-0.113"
         style="fill:none;stroke:#231f20;stroke-width:0.73699;stroke-linecap:butt;stroke-linejoin:round;stroke-miterlimit:10;stroke-dasharray:none;stroke-opacity:1"
         id="path144" /></g><g
       id="g146"><path
         d="m 207.043,229.181 111.855,-0.113"
         style="fill:none;stroke:#231f20;stroke-width:0.73699;stroke-linecap:butt;stroke-linejoin:round;stroke-miterlimit:10;stroke-dasharray:none;stroke-opacity:1"
         id="path148" /></g><g
       id="g150"><path
         d="m 401.839,229.181 111.77,-0.113"
         style="fill:none;stroke:#231f20;stroke-width:0.73699;stroke-linecap:butt;stroke-linejoin:round;stroke-miterlimit:10;stroke-dasharray:none;stroke-opacity:1"
         id="path152" /></g><g
       id="g154"><path
         d="m 513.609,430.866 0.256,-57.231"
         style="fill:none;stroke:#231f20;stroke-width:0.73699;stroke-linecap:butt;stroke-linejoin:round;stroke-miterlimit:10;stroke-dasharray:none;stroke-opacity:1"
         id="path156" /></g><g
       id="g158"><path
         d="m 401.839,430.866 0.199,-57.231"
         style="fill:none;stroke:#231f20;stroke-width:0.73699;stroke-linecap:butt;stroke-linejoin:round;stroke-miterlimit:10;stroke-dasharray:none;stroke-opacity:1"
         id="path160" /></g><g
       id="g162"><path
         d="m 318.274,430.866 0.113,-57.231"
         style="fill:none;stroke:#231f20;stroke-width:0.73699;stroke-linecap:butt;stroke-linejoin:round;stroke-miterlimit:10;stroke-dasharray:none;stroke-opacity:1"
         id="path164" /></g><g
       id="g166"><path
         d="m 206.362,430.866 0.114,-57.231"
         style="fill:none;stroke:#231f20;stroke-width:0.73699;stroke-linecap:butt;stroke-linejoin:round;stroke-miterlimit:10;stroke-dasharray:none;stroke-opacity:1"
         id="path168" /></g><g
       id="g170"><path
         d="m 318.274,258.917 0.113,-57.771"
         style="fill:none;stroke:#231f20;stroke-width:0.73699;stroke-linecap:butt;stroke-linejoin:round;stroke-miterlimit:10;stroke-dasharray:none;stroke-opacity:1"
         id="path172" /></g><g
       id="g174"><path
         d="m 206.362,260.249 0.114,-57.799"
         style="fill:none;stroke:#231f20;stroke-width:0.73699;stroke-linecap:butt;stroke-linejoin:round;stroke-miterlimit:10;stroke-dasharray:none;stroke-opacity:1"
         id="path176" /></g><g
       id="g178"><path
         d="m 513.609,259.54 0.256,-57.713"
         style="fill:none;stroke:#231f20;stroke-width:0.73699;stroke-linecap:butt;stroke-linejoin:round;stroke-miterlimit:10;stroke-dasharray:none;stroke-opacity:1"
         id="path180" /></g><g
       id="g182"><path
         d="m 401.839,259.852 0.199,-57.77"
         style="fill:none;stroke:#231f20;stroke-width:0.73699;stroke-linecap:butt;stroke-linejoin:round;stroke-miterlimit:10;stroke-dasharray:none;stroke-opacity:1"
         id="path184" /></g><g
       id="g186"><path
         d="m 197.065,431.178 h 18.566 v 16.441 h -18.566 z"
         style="fill:none;stroke:#231f20;stroke-width:0.73699;stroke-linecap:round;stroke-linejoin:miter;stroke-miterlimit:3.8637;stroke-dasharray:none;stroke-opacity:1"
         id="path188" /></g><g
       id="g190"><path
         d="m 309.09,431.433 h 18.623 v 16.186 H 309.09 Z"
         style="fill:none;stroke:#231f20;stroke-width:0.73699;stroke-linecap:round;stroke-linejoin:miter;stroke-miterlimit:3.8637;stroke-dasharray:none;stroke-opacity:1"
         id="path192" /></g><g
       id="g194"><path
         d="m 197.065,356.854 h 18.566 v 16.554 h -18.566 z"
         style="fill:none;stroke:#231f20;stroke-width:0.73699;stroke-linecap:round;stroke-linejoin:miter;stroke-miterlimit:3.8637;stroke-dasharray:none;stroke-opacity:1"
         id="path196" /></g><g
       id="g198"><path
         d="m 310.224,357.165 h 18.595 v 16.243 h -18.595 z"
         style="fill:none;stroke:#231f20;stroke-width:0.73699;stroke-linecap:round;stroke-linejoin:miter;stroke-miterlimit:3.8637;stroke-dasharray:none;stroke-opacity:1"
         id="path200" /></g><g
       id="g202"><path
         d="m 393.364,431.178 h 18.879 v 16.441 h -18.879 z"
         style="fill:none;stroke:#231f20;stroke-width:0.73699;stroke-linecap:round;stroke-linejoin:miter;stroke-miterlimit:3.8637;stroke-dasharray:none;stroke-opacity:1"
         id="path204" /></g><g
       id="g206"><path
         d="m 504.567,431.433 h 18.624 v 16.186 h -18.624 z"
         style="fill:none;stroke:#231f20;stroke-width:0.73699;stroke-linecap:round;stroke-linejoin:miter;stroke-miterlimit:3.8637;stroke-dasharray:none;stroke-opacity:1"
         id="path208" /></g><g
       id="g210"><path
         d="m 392.372,356.854 h 18.737 v 16.554 h -18.737 z"
         style="fill:none;stroke:#231f20;stroke-width:0.73699;stroke-linecap:round;stroke-linejoin:miter;stroke-miterlimit:3.8637;stroke-dasharray:none;stroke-opacity:1"
         id="path212" /></g><g
       id="g214"><path
         d="m 505.757,357.165 h 18.624 v 16.243 h -18.624 z"
         style="fill:none;stroke:#231f20;stroke-width:0.73699;stroke-linecap:round;stroke-linejoin:miter;stroke-miterlimit:3.8637;stroke-dasharray:none;stroke-opacity:1"
         id="path216" /></g><g
       id="g218"><path
         d="m 197.065,260.504 h 18.566 v 16.554 h -18.566 z"
         style="fill:none;stroke:#231f20;stroke-width:0.73699;stroke-linecap:round;stroke-linejoin:miter;stroke-miterlimit:3.8637;stroke-dasharray:none;stroke-opacity:1"
         id="path220" /></g><g
       id="g222"><path
         d="m 308.976,275.868 v -16.299 h 18.539 v 16.299 z"
         style="fill:none;stroke:#231f20;stroke-width:0.73699;stroke-linecap:round;stroke-linejoin:miter;stroke-miterlimit:3.8637;stroke-dasharray:none;stroke-opacity:1"
         id="path224" /></g><g
       id="g226"><path
         d="m 197.065,185.329 h 18.566 v 16.498 h -18.566 z"
         style="fill:none;stroke:#231f20;stroke-width:0.73699;stroke-linecap:round;stroke-linejoin:miter;stroke-miterlimit:3.8637;stroke-dasharray:none;stroke-opacity:1"
         id="path228" /></g><g
       id="g230"><path
         d="m 308.976,201.146 v -16.355 h 18.539 v 16.355 z"
         style="fill:none;stroke:#231f20;stroke-width:0.73699;stroke-linecap:round;stroke-linejoin:miter;stroke-miterlimit:3.8637;stroke-dasharray:none;stroke-opacity:1"
         id="path232" /></g><g
       id="g234"><path
         d="m 392.995,277.058 v -16.554 h 18.737 v 16.554 z"
         style="fill:none;stroke:#231f20;stroke-width:0.73699;stroke-linecap:round;stroke-linejoin:miter;stroke-miterlimit:3.8637;stroke-dasharray:none;stroke-opacity:1"
         id="path236" /></g><g
       id="g238"><path
         d="m 504.935,260.504 h 18.624 v 16.554 h -18.624 z"
         style="fill:none;stroke:#231f20;stroke-width:0.73699;stroke-linecap:round;stroke-linejoin:miter;stroke-miterlimit:3.8637;stroke-dasharray:none;stroke-opacity:1"
         id="path240" /></g><g
       id="g242"><path
         d="m 392.372,185.981 h 18.737 v 16.469 h -18.737 z"
         style="fill:none;stroke:#231f20;stroke-width:0.73699;stroke-linecap:round;stroke-linejoin:miter;stroke-miterlimit:3.8637;stroke-dasharray:none;stroke-opacity:1"
         id="path244" /></g><g
       id="g246"><path
         d="m 504.454,184.791 h 18.566 v 16.355 h -18.566 z"
         style="fill:none;stroke:#231f20;stroke-width:0.73699;stroke-linecap:round;stroke-linejoin:miter;stroke-miterlimit:3.8637;stroke-dasharray:none;stroke-opacity:1"
         id="path248" /></g><path
       d="m 262.148,341.972 -7.739,-12.104 h 15.421 z"
       style="fill:#ffffff;fill-opacity:1;fill-rule:evenodd;stroke:none"
       id="path250" /><g
       id="g252"><path
         d="m 262.148,341.972 -7.739,-12.104 h 15.421 z"
         style="fill:none;stroke:#231f20;stroke-width:0.73699;stroke-linecap:round;stroke-linejoin:round;stroke-miterlimit:10;stroke-dasharray:none;stroke-opacity:1"
         id="path254" /></g><path
       d="m 458.702,341.972 -7.823,-12.104 h 15.619 z"
       style="fill:#ffffff;fill-opacity:1;fill-rule:evenodd;stroke:none"
       id="path256" /><g
       id="g258"><path
         d="m 458.702,341.972 -7.823,-12.104 h 15.619 z"
         style="fill:none;stroke:#231f20;stroke-width:0.73699;stroke-linecap:round;stroke-linejoin:round;stroke-miterlimit:10;stroke-dasharray:none;stroke-opacity:1"
         id="path260" /></g><path
       d="m 388.8,319.663 -15.307,6.123 v -12.132 z"
       style="fill:#ffffff;fill-opacity:1;fill-rule:evenodd;stroke:none"
       id="path262" /><g
       id="g264"><path
         d="m 388.8,319.663 -15.307,6.123 v -12.132 z"
         style="fill:none;stroke:#231f20;stroke-width:0.73699;stroke-linecap:round;stroke-linejoin:round;stroke-miterlimit:10;stroke-dasharray:none;stroke-opacity:1"
         id="path266" /></g><path
       d="m 429.534,319.663 -15.676,6.123 v -12.132 z"
       style="fill:#ffffff;fill-opacity:1;fill-rule:evenodd;stroke:none"
       id="path268" /><g
       id="g270"><path
         d="m 429.534,319.663 -15.676,6.123 v -12.132 z"
         style="fill:none;stroke:#231f20;stroke-width:0.73699;stroke-linecap:round;stroke-linejoin:round;stroke-miterlimit:10;stroke-dasharray:none;stroke-opacity:1"
         id="path272" /></g><path
       d="m 290.409,319.975 15.421,6.066 v -12.246 z"
       style="fill:#ffffff;fill-opacity:1;fill-rule:evenodd;stroke:none"
       id="path274" /><g
       id="g276"><path
         d="m 290.409,319.975 15.421,6.066 v -12.246 z"
         style="fill:none;stroke:#231f20;stroke-width:0.73699;stroke-linecap:round;stroke-linejoin:round;stroke-miterlimit:10;stroke-dasharray:none;stroke-opacity:1"
         id="path278" /></g><path
       d="m 330.576,319.918 15.421,6.123 v -12.302 z"
       style="fill:#ffffff;fill-opacity:1;fill-rule:evenodd;stroke:none"
       id="path280" /><g
       id="g282"><path
         d="m 330.576,319.918 15.421,6.123 v -12.302 z"
         style="fill:none;stroke:#231f20;stroke-width:0.73699;stroke-linecap:round;stroke-linejoin:round;stroke-miterlimit:10;stroke-dasharray:none;stroke-opacity:1"
         id="path284" /></g><path
       d="m 458.391,378.51 -7.796,-12.132 h 15.364 z"
       style="fill:#ffffff;fill-opacity:1;fill-rule:evenodd;stroke:none"
       id="path286" /><g
       id="g288"><path
         d="m 458.391,378.51 -7.796,-12.132 h 15.364 z"
         style="fill:none;stroke:#231f20;stroke-width:0.73699;stroke-linecap:round;stroke-linejoin:round;stroke-miterlimit:10;stroke-dasharray:none;stroke-opacity:1"
         id="path290" /></g><path
       d="m 262.148,378.51 -7.739,-12.132 h 15.421 z"
       style="fill:#ffffff;fill-opacity:1;fill-rule:evenodd;stroke:none"
       id="path292" /><g
       id="g294"><path
         d="m 262.148,378.51 -7.739,-12.132 h 15.421 z"
         style="fill:none;stroke:#231f20;stroke-width:0.73699;stroke-linecap:round;stroke-linejoin:round;stroke-miterlimit:10;stroke-dasharray:none;stroke-opacity:1"
         id="path296" /></g><path
       d="m 459.014,262.687 -7.937,12.104 h 15.506 z"
       style="fill:#ffffff;fill-opacity:1;fill-rule:evenodd;stroke:none"
       id="path298" /><g
       id="g300"><path
         d="m 459.014,262.687 -7.937,12.104 h 15.506 z"
         style="fill:none;stroke:#231f20;stroke-width:0.73699;stroke-linecap:round;stroke-linejoin:round;stroke-miterlimit:10;stroke-dasharray:none;stroke-opacity:1"
         id="path302" /></g><path
       d="m 458.702,295.172 -7.823,12.5 h 15.619 z"
       style="fill:#ffffff;fill-opacity:1;fill-rule:evenodd;stroke:none"
       id="path304" /><g
       id="g306"><path
         d="m 458.702,295.172 -7.823,12.5 h 15.619 z"
         style="fill:none;stroke:#231f20;stroke-width:0.73699;stroke-linecap:round;stroke-linejoin:round;stroke-miterlimit:10;stroke-dasharray:none;stroke-opacity:1"
         id="path308" /></g><path
       d="m 262.828,262.687 -7.625,12.104 h 15.421 z"
       style="fill:#ffffff;fill-opacity:1;fill-rule:evenodd;stroke:none"
       id="path310" /><g
       id="g312"><path
         d="m 262.828,262.687 -7.625,12.104 h 15.421 z"
         style="fill:none;stroke:#231f20;stroke-width:0.73699;stroke-linecap:round;stroke-linejoin:round;stroke-miterlimit:10;stroke-dasharray:none;stroke-opacity:1"
         id="path314" /></g><path
       d="m 262.148,294.803 -7.739,11.792 h 15.421 z"
       style="fill:#ffffff;fill-opacity:1;fill-rule:evenodd;stroke:none"
       id="path316" /><g
       id="g318"><path
         d="m 262.148,294.803 -7.739,11.792 h 15.421 z"
         style="fill:none;stroke:#231f20;stroke-width:0.73699;stroke-linecap:round;stroke-linejoin:round;stroke-miterlimit:10;stroke-dasharray:none;stroke-opacity:1"
         id="path320" /></g><path
       d="m 487.304,401.528 -15.421,6.179 v -12.246 z"
       style="fill:#ffffff;fill-opacity:1;fill-rule:evenodd;stroke:none"
       id="path322" /><g
       id="g324"><path
         d="m 487.304,401.528 -15.421,6.179 v -12.246 z"
         style="fill:none;stroke:#231f20;stroke-width:0.73699;stroke-linecap:round;stroke-linejoin:round;stroke-miterlimit:10;stroke-dasharray:none;stroke-opacity:1"
         id="path326" /></g><path
       d="m 491.131,229.521 -15.421,6.378 V 223.54 Z"
       style="fill:#ffffff;fill-opacity:1;fill-rule:evenodd;stroke:none"
       id="path328" /><g
       id="g330"><path
         d="m 491.131,229.521 -15.421,6.378 V 223.54 Z"
         style="fill:none;stroke:#231f20;stroke-width:0.73699;stroke-linecap:round;stroke-linejoin:round;stroke-miterlimit:10;stroke-dasharray:none;stroke-opacity:1"
         id="path332" /></g><path
       d="m 295.2,228.557 -15.619,6.322 v -12.501 z"
       style="fill:#ffffff;fill-opacity:1;fill-rule:evenodd;stroke:none"
       id="path334" /><g
       id="g336"><path
         d="m 295.2,228.557 -15.619,6.322 v -12.501 z"
         style="fill:none;stroke:#231f20;stroke-width:0.73699;stroke-linecap:round;stroke-linejoin:round;stroke-miterlimit:10;stroke-dasharray:none;stroke-opacity:1"
         id="path338" /></g><path
       d="m 289.191,402.066 -15.364,6.01 v -12.104 z"
       style="fill:#ffffff;fill-opacity:1;fill-rule:evenodd;stroke:none"
       id="path340" /><g
       id="g342"><path
         d="m 289.191,402.066 -15.364,6.01 v -12.104 z"
         style="fill:none;stroke:#231f20;stroke-width:0.73699;stroke-linecap:round;stroke-linejoin:round;stroke-miterlimit:10;stroke-dasharray:none;stroke-opacity:1"
         id="path344" /></g><path
       d="m 233.66,401.528 15.307,6.179 v -12.246 z"
       style="fill:#ffffff;fill-opacity:1;fill-rule:evenodd;stroke:none"
       id="path346" /><g
       id="g348"><path
         d="m 233.66,402.208 15.307,6.123 v -12.246 z"
         style="fill:none;stroke:#231f20;stroke-width:0.73699;stroke-linecap:round;stroke-linejoin:round;stroke-miterlimit:10;stroke-dasharray:none;stroke-opacity:1"
         id="path350" /></g><path
       d="m 229.294,229.124 15.619,6.265 v -12.387 z"
       style="fill:#ffffff;fill-opacity:1;fill-rule:evenodd;stroke:none"
       id="path352" /><g
       id="g354"><path
         d="m 229.294,229.124 15.619,6.265 v -12.387 z"
         style="fill:none;stroke:#231f20;stroke-width:0.73699;stroke-linecap:round;stroke-linejoin:round;stroke-miterlimit:10;stroke-dasharray:none;stroke-opacity:1"
         id="path356" /></g><path
       d="m 429.477,229.181 15.364,6.321 v -12.5 z"
       style="fill:#ffffff;fill-opacity:1;fill-rule:evenodd;stroke:none"
       id="path358" /><g
       id="g360"><path
         d="m 429.477,229.181 15.364,6.321 v -12.5 z"
         style="fill:none;stroke:#231f20;stroke-width:0.73699;stroke-linecap:round;stroke-linejoin:round;stroke-miterlimit:10;stroke-dasharray:none;stroke-opacity:1"
         id="path362" /></g><path
       d="m 428.712,401.528 15.42,6.179 v -12.246 z"
       style="fill:#ffffff;fill-opacity:1;fill-rule:evenodd;stroke:none"
       id="path364" /><g
       id="g366"><path
         d="m 428.712,401.528 15.42,6.179 v -12.246 z"
         style="fill:none;stroke:#231f20;stroke-width:0.73699;stroke-linecap:round;stroke-linejoin:round;stroke-miterlimit:10;stroke-dasharray:none;stroke-opacity:1"
         id="path368" /></g><path
       d="m 514.29,210.189 -7.682,12.132 h 15.42 z"
       style="fill:#ffffff;fill-opacity:1;fill-rule:evenodd;stroke:none"
       id="path370" /><g
       id="g372"><path
         d="m 513.609,210.189 -7.625,12.132 h 15.364 z"
         style="fill:none;stroke:#231f20;stroke-width:0.73699;stroke-linecap:round;stroke-linejoin:round;stroke-miterlimit:10;stroke-dasharray:none;stroke-opacity:1"
         id="path374" /></g><path
       d="m 401.783,211.521 -7.626,12.359 h 15.421 z"
       style="fill:#ffffff;fill-opacity:1;fill-rule:evenodd;stroke:none"
       id="path376" /><g
       id="g378"><path
         d="m 401.783,211.521 -7.626,12.359 h 15.421 z"
         style="fill:none;stroke:#231f20;stroke-width:0.73699;stroke-linecap:round;stroke-linejoin:round;stroke-miterlimit:10;stroke-dasharray:none;stroke-opacity:1"
         id="path380" /></g><path
       d="m 318.246,211.635 -8.051,12.245 h 15.619 z"
       style="fill:#ffffff;fill-opacity:1;fill-rule:evenodd;stroke:none"
       id="path382" /><g
       id="g384"><path
         d="m 318.246,211.635 -8.051,12.245 h 15.619 z"
         style="fill:none;stroke:#231f20;stroke-width:0.73699;stroke-linecap:round;stroke-linejoin:round;stroke-miterlimit:10;stroke-dasharray:none;stroke-opacity:1"
         id="path386" /></g><path
       d="m 206.419,211.89 -7.937,12.245 h 15.675 z"
       style="fill:#ffffff;fill-opacity:1;fill-rule:evenodd;stroke:none"
       id="path388" /><g
       id="g390"><path
         d="m 206.419,211.89 -7.937,12.245 h 15.675 z"
         style="fill:none;stroke:#231f20;stroke-width:0.73699;stroke-linecap:round;stroke-linejoin:round;stroke-miterlimit:10;stroke-dasharray:none;stroke-opacity:1"
         id="path392" /></g><path
       d="m 514.29,383.641 -7.682,12.132 h 15.42 z"
       style="fill:#ffffff;fill-opacity:1;fill-rule:evenodd;stroke:none"
       id="path394" /><g
       id="g396"><path
         d="m 513.609,383.641 -7.625,12.132 h 15.364 z"
         style="fill:none;stroke:#231f20;stroke-width:0.73699;stroke-linecap:round;stroke-linejoin:round;stroke-miterlimit:10;stroke-dasharray:none;stroke-opacity:1"
         id="path398" /></g><path
       d="m 401.698,384.094 -7.796,12.048 h 15.676 z"
       style="fill:#ffffff;fill-opacity:1;fill-rule:evenodd;stroke:none"
       id="path400" /><g
       id="g402"><path
         d="m 402.321,384.094 -7.795,12.048 h 15.676 z"
         style="fill:none;stroke:#231f20;stroke-width:0.73699;stroke-linecap:round;stroke-linejoin:round;stroke-miterlimit:10;stroke-dasharray:none;stroke-opacity:1"
         id="path404" /></g><path
       d="m 318.246,383.414 -8.051,12.359 h 15.619 z"
       style="fill:#ffffff;fill-opacity:1;fill-rule:evenodd;stroke:none"
       id="path406" /><g
       id="g408"><path
         d="m 318.869,383.414 -7.993,12.359 h 15.675 z"
         style="fill:none;stroke:#231f20;stroke-width:0.73699;stroke-linecap:round;stroke-linejoin:round;stroke-miterlimit:10;stroke-dasharray:none;stroke-opacity:1"
         id="path410" /></g><path
       d="m 206.419,382.649 -7.937,12.501 h 15.675 z"
       style="fill:#ffffff;fill-opacity:1;fill-rule:evenodd;stroke:none"
       id="path412" /><g
       id="g414"><path
         d="m 207.014,382.649 -7.823,12.501 h 15.618 z"
         style="fill:none;stroke:#231f20;stroke-width:0.73699;stroke-linecap:round;stroke-linejoin:round;stroke-miterlimit:10;stroke-dasharray:none;stroke-opacity:1"
         id="path416" /></g><path
       d="m 513.609,420.69 -7.795,-12.133 h 15.421 z"
       style="fill:#ffffff;fill-opacity:1;fill-rule:evenodd;stroke:none"
       id="path418" /><g
       id="g420"><path
         d="m 513.609,420.69 -7.795,-12.133 h 15.421 z"
         style="fill:none;stroke:#231f20;stroke-width:0.73699;stroke-linecap:round;stroke-linejoin:round;stroke-miterlimit:10;stroke-dasharray:none;stroke-opacity:1"
         id="path422" /></g><path
       d="m 402.038,422.079 -7.625,-12.189 h 15.505 z"
       style="fill:#ffffff;fill-opacity:1;fill-rule:evenodd;stroke:none"
       id="path424" /><g
       id="g426"><path
         d="m 402.038,422.079 -7.625,-12.189 h 15.505 z"
         style="fill:none;stroke:#231f20;stroke-width:0.73699;stroke-linecap:round;stroke-linejoin:round;stroke-miterlimit:10;stroke-dasharray:none;stroke-opacity:1"
         id="path428" /></g><path
       d="m 318.387,420.888 -7.625,-12.189 h 15.364 z"
       style="fill:#ffffff;fill-opacity:1;fill-rule:evenodd;stroke:none"
       id="path430" /><g
       id="g432"><path
         d="m 318.387,420.888 -7.625,-12.189 h 15.364 z"
         style="fill:none;stroke:#231f20;stroke-width:0.73699;stroke-linecap:round;stroke-linejoin:round;stroke-miterlimit:10;stroke-dasharray:none;stroke-opacity:1"
         id="path434" /></g><path
       d="m 206.731,420.69 -7.796,-12.133 h 15.308 z"
       style="fill:#ffffff;fill-opacity:1;fill-rule:evenodd;stroke:none"
       id="path436" /><g
       id="g438"><path
         d="m 205.994,420.69 -7.739,-12.133 h 15.364 z"
         style="fill:none;stroke:#231f20;stroke-width:0.73699;stroke-linecap:round;stroke-linejoin:round;stroke-miterlimit:10;stroke-dasharray:none;stroke-opacity:1"
         id="path440" /></g><path
       d="m 514.29,252.057 -7.682,-12.133 h 15.42 z"
       style="fill:#ffffff;fill-opacity:1;fill-rule:evenodd;stroke:none"
       id="path442" /><g
       id="g444"><path
         d="m 513.609,252.057 -7.625,-12.133 h 15.364 z"
         style="fill:none;stroke:#231f20;stroke-width:0.73699;stroke-linecap:round;stroke-linejoin:round;stroke-miterlimit:10;stroke-dasharray:none;stroke-opacity:1"
         id="path446" /></g><path
       d="m 401.783,248.769 -7.626,-12.133 h 15.421 z"
       style="fill:#ffffff;fill-opacity:1;fill-rule:evenodd;stroke:none"
       id="path448" /><g
       id="g450"><path
         d="m 401.783,249.392 -7.626,-12.132 h 15.421 z"
         style="fill:none;stroke:#231f20;stroke-width:0.73699;stroke-linecap:round;stroke-linejoin:round;stroke-miterlimit:10;stroke-dasharray:none;stroke-opacity:1"
         id="path452" /></g><path
       d="m 318.246,247.833 -8.051,-12.246 h 15.619 z"
       style="fill:#ffffff;fill-opacity:1;fill-rule:evenodd;stroke:none"
       id="path454" /><g
       id="g456"><path
         d="m 318.246,247.833 -8.051,-12.246 h 15.619 z"
         style="fill:none;stroke:#231f20;stroke-width:0.73699;stroke-linecap:round;stroke-linejoin:round;stroke-miterlimit:10;stroke-dasharray:none;stroke-opacity:1"
         id="path458" /></g><path
       d="m 206.419,248.117 -7.937,-12.501 h 15.675 z"
       style="fill:#ffffff;fill-opacity:1;fill-rule:evenodd;stroke:none"
       id="path460" /><g
       id="g462"><path
         d="m 206.419,248.117 -7.937,-12.501 h 15.675 z"
         style="fill:none;stroke:#231f20;stroke-width:0.73699;stroke-linecap:round;stroke-linejoin:round;stroke-miterlimit:10;stroke-dasharray:none;stroke-opacity:1"
         id="path464" /></g><g
       id="g466"><path
         d="m 401.102,343.786 h -1.162 l -1.02,-0.255 -1.106,-0.199 -0.935,-0.482 -0.907,-0.255 -0.936,-0.737 -0.623,-0.397 -0.624,-0.68 -0.85,-0.737 -0.624,-0.992 -0.567,-0.935 -0.368,-0.879 -0.256,-0.936 -0.51,-0.878 v -4.196 l 0.51,-0.935 0.256,-1.134 0.368,-0.879 0.567,-0.878 0.624,-0.936 0.85,-0.623 0.624,-0.681 0.623,-0.51 0.936,-0.68 0.907,-0.255 0.935,-0.539 1.106,-0.085 1.02,-0.284 h 2.098 l 1.19,0.284 0.879,0.085 1.077,0.539 0.879,0.255 0.935,0.68 0.624,0.51 0.737,0.681 0.737,0.623 0.652,0.936 0.539,0.878 0.368,0.879 0.312,1.134 0.397,0.935 v 0.936 l 0.255,1.134 -0.255,1.19 v 0.936 l -0.397,0.878 -0.312,0.936 -0.368,0.879 -0.539,0.935 -0.652,0.992 -1.474,1.417 -0.624,0.397 -0.935,0.737 -0.879,0.255 -1.077,0.482 -0.879,0.199 -1.19,0.255 z"
         style="fill:none;stroke:#231f20;stroke-width:0.73699;stroke-linecap:butt;stroke-linejoin:round;stroke-miterlimit:10;stroke-dasharray:none;stroke-opacity:1"
         id="path468" /></g><g
       id="g470"><path
         d="m 472.734,362.665 h -2.098 l -1.02,-0.511 -1.106,-0.255 -0.879,-0.425 -0.935,-0.624 -0.935,-0.51 -0.624,-0.935 -0.964,-0.624 -0.482,-1.105 -0.623,-0.936 -0.567,-0.879 -0.17,-0.935 -0.454,-1.247 v -4.394 l 0.454,-1.105 0.17,-1.021 0.567,-0.879 0.623,-0.935 0.482,-0.992 0.964,-0.624 0.624,-0.737 0.935,-0.709 0.935,-0.623 0.879,-0.595 1.106,-0.199 1.02,-0.142 1.162,-0.255 h 2.126 l 1.134,0.255 1.248,0.142 0.935,0.199 0.879,0.595 0.935,0.623 0.879,0.709 0.822,0.737 0.624,0.624 0.68,0.992 0.794,0.935 0.396,0.879 0.511,2.126 0.283,1.134 v 2.126 l -0.283,1.134 -0.255,1.247 -0.256,0.935 -0.396,0.879 -0.794,0.936 -0.68,1.105 -0.624,0.624 -0.822,0.935 -0.879,0.51 -0.935,0.624 -0.879,0.425 -0.935,0.255 -1.248,0.511 z"
         style="fill:none;stroke:#231f20;stroke-width:0.73699;stroke-linecap:butt;stroke-linejoin:round;stroke-miterlimit:10;stroke-dasharray:none;stroke-opacity:1"
         id="path472" /></g><g
       id="g474"><text
         transform="matrix(1,0,0,-1,397.304,330.491)"
         style="font-variant:normal;font-weight:normal;font-size:11.991px;font-family:'DejaVu Sans';-inkscape-font-specification:DejaVuSans;writing-mode:lr-tb;fill:#231f20;fill-opacity:1;fill-rule:nonzero;stroke:none"
         id="text478"><tspan
           x="0"
           y="0"
           id="tspan476">4</tspan></text></g><g
       id="g480"><path
         d="m 481.266,431.802 h -0.879 l -1.19,-0.256 -1.191,-0.311 -0.878,-0.426 -0.936,-0.51 -0.992,-0.368 -0.879,-0.822 -0.68,-0.624 -0.879,-0.624 -0.51,-0.935 -0.68,-1.106 -0.567,-0.878 -0.227,-1.191 -0.454,-0.935 v -4.564 l 0.454,-0.879 0.227,-1.19 0.567,-0.879 0.68,-0.935 0.51,-0.823 0.879,-0.878 0.68,-0.681 0.879,-0.68 0.992,-0.482 0.936,-0.567 0.878,-0.34 1.191,-0.283 1.19,-0.255 h 2.07 l 1.19,0.255 1.219,0.283 0.879,0.34 0.935,0.567 0.879,0.482 0.935,0.68 0.709,0.681 0.737,0.878 0.624,0.823 0.822,0.935 0.368,0.879 0.255,1.19 0.256,0.879 0.113,1.191 v 2.239 l -0.113,1.134 -0.256,0.935 -0.255,1.191 -0.368,0.878 -0.822,1.106 -0.624,0.935 -0.737,0.624 -0.709,0.624 -0.935,0.822 -0.879,0.368 -0.935,0.51 -0.879,0.426 -1.219,0.311 -1.19,0.256 z"
         style="fill:none;stroke:#231f20;stroke-width:0.73699;stroke-linecap:butt;stroke-linejoin:round;stroke-miterlimit:10;stroke-dasharray:none;stroke-opacity:1"
         id="path482" /></g><g
       id="g484"><text
         transform="matrix(1,0,0,-1,469.587,351.609)"
         style="font-variant:normal;font-weight:normal;font-size:8.589px;font-family:'DejaVu Sans';-inkscape-font-specification:DejaVuSans;writing-mode:lr-tb;fill:#231f20;fill-opacity:1;fill-rule:nonzero;stroke:none"
         id="text488"><tspan
           x="0"
           y="0"
           id="tspan486">3</tspan></text></g><g
       id="g490"><path
         d="m 536.315,394.072 h -2.324 l -1.191,-0.368 -0.879,-0.255 -0.935,-0.567 -0.936,-0.624 -0.878,-0.51 -0.851,-0.935 -0.878,-0.624 -0.397,-0.935 -0.794,-0.936 -0.369,-0.879 -0.255,-0.935 -0.567,-1.191 v -4.422 l 0.567,-1.19 0.255,-0.936 0.369,-0.878 0.794,-0.936 0.397,-0.935 0.878,-0.822 0.851,-0.624 0.878,-0.737 0.936,-0.737 0.935,-0.453 0.879,-0.199 1.191,-0.255 1.19,-0.283 h 2.069 l 1.191,0.283 1.049,0.255 1.02,0.199 0.936,0.453 0.935,0.737 0.936,0.737 0.68,0.624 0.794,0.822 0.623,0.935 0.709,0.936 0.482,0.878 0.141,0.936 0.256,1.19 0.226,1.134 v 2.126 l -0.226,1.162 -0.256,1.191 -0.141,0.935 -0.482,0.879 -0.709,0.936 -0.623,0.935 -0.794,0.624 -0.68,0.935 -0.936,0.51 -0.935,0.624 -0.936,0.567 -1.02,0.255 -1.049,0.368 z"
         style="fill:none;stroke:#231f20;stroke-width:0.73699;stroke-linecap:butt;stroke-linejoin:round;stroke-miterlimit:10;stroke-dasharray:none;stroke-opacity:1"
         id="path492" /></g><g
       id="g494"><text
         transform="matrix(1,0,0,-1,477.609,416.608)"
         style="font-variant:normal;font-weight:normal;font-size:11.991px;font-family:'DejaVu Sans';-inkscape-font-specification:DejaVuSans;writing-mode:lr-tb;fill:#231f20;fill-opacity:1;fill-rule:nonzero;stroke:none"
         id="text498"><tspan
           x="0"
           y="0"
           id="tspan496">2</tspan></text></g><g
       id="g500"><path
         d="m 535.946,425.509 h -2.324 l -1.191,-0.369 -0.935,-0.255 -0.879,-0.567 -0.935,-0.624 -0.879,-0.51 -0.85,-0.935 -0.936,-0.624 -0.397,-0.992 -0.737,-0.992 -0.453,-0.822 -0.227,-0.992 -0.51,-1.191 v -4.365 l 0.51,-1.191 0.227,-0.992 0.453,-0.879 0.737,-0.935 0.397,-0.879 0.936,-0.765 0.85,-0.68 0.879,-0.681 0.935,-0.737 0.879,-0.453 0.935,-0.255 1.191,-0.255 1.134,-0.227 h 2.126 l 1.134,0.227 1.049,0.255 1.077,0.255 0.907,0.453 0.935,0.737 0.964,0.681 0.624,0.68 0.793,0.765 0.681,0.879 0.623,0.935 0.567,0.879 0.142,0.992 0.198,1.191 0.284,1.105 v 2.183 l -0.284,1.077 -0.198,1.191 -0.142,0.992 -0.567,0.822 -0.623,0.992 -0.681,0.992 -0.793,0.624 -0.624,0.935 -0.964,0.51 -0.935,0.624 -0.907,0.567 -1.077,0.255 -1.049,0.369 z"
         style="fill:none;stroke:#231f20;stroke-width:0.73699;stroke-linecap:butt;stroke-linejoin:round;stroke-miterlimit:10;stroke-dasharray:none;stroke-opacity:1"
         id="path502" /></g><g
       id="g504"><text
         transform="matrix(1,0,0,-1,531.808,379.587)"
         style="font-variant:normal;font-weight:normal;font-size:11.991px;font-family:'DejaVu Sans';-inkscape-font-specification:DejaVuSans;writing-mode:lr-tb;fill:#231f20;fill-opacity:1;fill-rule:nonzero;stroke:none"
         id="text508"><tspan
           x="0"
           y="0"
           id="tspan506">1</tspan></text></g><g
       id="g510"><path
         d="m 433.474,432.17 h -0.935 l -1.134,-0.255 -1.191,-0.198 -0.935,-0.482 -0.879,-0.567 -0.935,-0.369 -0.993,-0.737 -0.623,-0.708 -0.964,-0.624 -0.482,-0.936 -0.623,-0.992 -0.567,-0.992 -0.256,-1.19 -0.368,-0.822 v -4.621 l 0.368,-0.935 0.256,-1.191 0.567,-0.879 0.623,-0.935 0.482,-0.794 1.587,-1.53 0.993,-0.681 0.935,-0.538 0.879,-0.511 0.935,-0.396 1.191,-0.284 1.134,-0.255 h 2.154 l 1.134,0.255 1.19,0.284 0.936,0.396 0.878,0.511 0.936,0.538 0.879,0.681 0.822,0.623 0.623,0.907 0.681,0.794 0.793,0.935 0.397,0.879 0.255,1.191 0.255,0.935 0.114,1.134 v 2.239 l -0.114,1.248 -0.255,0.822 -0.255,1.19 -0.397,0.992 -0.793,0.992 -0.681,0.936 -0.623,0.624 -0.822,0.708 -0.879,0.737 -0.936,0.369 -0.878,0.567 -0.936,0.482 -1.19,0.198 -1.134,0.255 z"
         style="fill:none;stroke:#231f20;stroke-width:0.73699;stroke-linecap:butt;stroke-linejoin:round;stroke-miterlimit:10;stroke-dasharray:none;stroke-opacity:1"
         id="path512" /></g><g
       id="g514"><text
         transform="matrix(1,0,0,-1,531.411,410.995)"
         style="font-variant:normal;font-weight:normal;font-size:11.991px;font-family:'DejaVu Sans';-inkscape-font-specification:DejaVuSans;writing-mode:lr-tb;fill:#231f20;fill-opacity:1;fill-rule:nonzero;stroke:none"
         id="text518"><tspan
           x="0"
           y="0"
           id="tspan516">1</tspan></text></g><g
       id="g520"><path
         d="m 475.739,296.787 h -2.126 l -0.993,-0.453 -1.105,-0.284 -0.879,-0.453 -0.935,-0.624 -0.936,-0.51 -0.623,-0.935 -0.936,-0.624 -0.51,-1.049 -0.624,-0.992 -0.566,-0.879 -0.171,-0.935 -0.453,-1.247 v -4.394 l 0.453,-1.049 0.171,-1.077 0.566,-0.879 0.624,-0.935 0.51,-0.907 0.936,-0.652 0.623,-0.794 0.936,-0.68 0.935,-0.624 0.879,-0.567 1.105,-0.255 0.993,-0.085 1.19,-0.284 h 2.183 l 1.134,0.284 1.19,0.085 0.936,0.255 0.878,0.567 0.936,0.624 0.879,0.68 0.822,0.794 0.623,0.652 0.737,0.907 0.737,0.935 0.34,0.879 0.312,1.077 0.255,1.049 0.284,1.134 v 2.126 l -0.284,1.134 -0.255,1.247 -0.312,0.935 -0.34,0.879 -0.737,0.992 -0.737,1.049 -0.623,0.624 -0.822,0.935 -0.879,0.51 -0.936,0.624 -0.878,0.453 -0.936,0.284 -1.19,0.453 z"
         style="fill:none;stroke:#231f20;stroke-width:0.73699;stroke-linecap:butt;stroke-linejoin:round;stroke-miterlimit:10;stroke-dasharray:none;stroke-opacity:1"
         id="path522" /></g><g
       id="g524"><text
         transform="matrix(1,0,0,-1,429.789,417.09)"
         style="font-variant:normal;font-weight:normal;font-size:11.991px;font-family:'DejaVu Sans';-inkscape-font-specification:DejaVuSans;writing-mode:lr-tb;fill:#231f20;fill-opacity:1;fill-rule:nonzero;stroke:none"
         id="text528"><tspan
           x="0"
           y="0"
           id="tspan526">2</tspan></text></g><g
       id="g530"><path
         d="m 321.562,343.786 h -1.219 l -1.077,-0.255 -0.992,-0.199 -0.935,-0.482 -0.936,-0.255 -0.879,-0.737 -0.708,-0.397 -0.624,-0.68 -0.879,-0.737 -0.623,-0.992 -0.482,-0.935 -0.454,-0.879 -0.283,-0.936 -0.454,-0.878 v -4.196 l 0.454,-0.935 0.283,-1.134 0.454,-0.879 0.482,-0.878 0.623,-0.936 0.879,-0.623 0.624,-0.681 0.708,-0.51 0.879,-0.68 0.936,-0.255 0.935,-0.539 0.992,-0.085 1.077,-0.284 h 2.098 l 1.19,0.284 0.936,0.085 0.992,0.539 0.964,0.255 0.879,0.68 0.68,0.51 0.624,0.681 0.85,0.623 0.595,0.936 0.482,0.878 0.454,0.879 0.283,1.134 0.34,0.935 v 0.936 l 0.284,1.134 -0.284,1.19 v 0.936 l -0.34,0.878 -0.283,0.936 -0.454,0.879 -0.482,0.935 -0.595,0.992 -0.85,0.737 -0.624,0.68 -0.68,0.397 -0.879,0.737 -0.964,0.255 -0.992,0.482 -0.936,0.199 -1.19,0.255 z"
         style="fill:none;stroke:#231f20;stroke-width:0.73699;stroke-linecap:butt;stroke-linejoin:round;stroke-miterlimit:10;stroke-dasharray:none;stroke-opacity:1"
         id="path532" /></g><g
       id="g534"><text
         transform="matrix(1,0,0,-1,472.592,282.387)"
         style="font-variant:normal;font-weight:normal;font-size:11.991px;font-family:'DejaVu Sans';-inkscape-font-specification:DejaVuSans;writing-mode:lr-tb;fill:#231f20;fill-opacity:1;fill-rule:nonzero;stroke:none"
         id="text538"><tspan
           x="0"
           y="0"
           id="tspan536">3</tspan></text></g><path
       d="m 360.113,269.915 v 45.128 l 0.142,0.226 0.284,0.142 0.311,-0.142 0.085,-0.226 v -45.128 l -0.085,-0.284 -0.311,-0.085 -0.284,0.085 z"
       style="fill:#231f20;fill-opacity:1;fill-rule:evenodd;stroke:none"
       id="path540" /><path
       d="m 357.307,313.909 3.203,6.321 3.118,-6.321 z"
       style="fill:#231f20;fill-opacity:1;fill-rule:evenodd;stroke:none"
       id="path542" /><g
       id="g544"><text
         transform="matrix(1,0,0,-1,317.707,330.491)"
         style="font-variant:normal;font-weight:normal;font-size:11.991px;font-family:'DejaVu Sans';-inkscape-font-specification:DejaVuSans;writing-mode:lr-tb;fill:#231f20;fill-opacity:1;fill-rule:nonzero;stroke:none"
         id="text548"><tspan
           x="0"
           y="0"
           id="tspan546">4</tspan></text></g><g
       id="g550"><text
         transform="matrix(1,0,0,-1,338.91,252.794)"
         style="font-variant:normal;font-weight:normal;font-size:14.003px;font-family:'Liberation Sans';-inkscape-font-specification:LiberationSans;writing-mode:lr-tb;fill:#231f20;fill-opacity:1;fill-rule:nonzero;stroke:none"
         id="text554"><tspan
           x="0 10.096163 17.88183 27.263842 31.954845 35.049507"
           y="0"
           id="tspan552">CLK-in</tspan></text></g></g></svg>
