<?xml version="1.0" encoding="UTF-8" standalone="no"?>
<svg
   xmlns:dc="http://purl.org/dc/elements/1.1/"
   xmlns:cc="http://creativecommons.org/ns#"
   xmlns:rdf="http://www.w3.org/1999/02/22-rdf-syntax-ns#"
   xmlns:svg="http://www.w3.org/2000/svg"
   xmlns="http://www.w3.org/2000/svg"
   version="1.1"
   id="svg2"
   xml:space="preserve"
   width="210.88033mm"
   height="15.239849mm"
   viewBox="0 0 797.028 57.59943"><metadata
     id="metadata8"><rdf:RDF><cc:Work
         rdf:about=""><dc:format>image/svg+xml</dc:format><dc:type
           rdf:resource="http://purl.org/dc/dcmitype/StillImage" /><dc:title></dc:title></cc:Work></rdf:RDF></metadata><defs
     id="defs6"><clipPath
       clipPathUnits="userSpaceOnUse"
       id="clipPath18"><path
         d="M 0,0.028 H 719.971 V 539.999 H 0 Z"
         clip-rule="evenodd"
         id="path16" /></clipPath><clipPath
       clipPathUnits="userSpaceOnUse"
       id="clipPath28"><path
         d="m 19.757,26.248 h 680.485 v 22.62 H 19.757 Z"
         clip-rule="evenodd"
         id="path26" /></clipPath><clipPath
       clipPathUnits="userSpaceOnUse"
       id="clipPath36"><path
         d="M 0,0 H 680.513 V 22.649 H 0 Z"
         id="path34" /></clipPath><linearGradient
       x1="341"
       y1="24"
       x2="341"
       y2="0"
       gradientUnits="userSpaceOnUse"
       spreadMethod="pad"
       id="linearGradient42"><stop
         style="stop-opacity:1;stop-color:#182f76"
         offset="0"
         id="stop38" /><stop
         style="stop-opacity:1;stop-color:#182f76"
         offset="1"
         id="stop40" /></linearGradient><clipPath
       clipPathUnits="userSpaceOnUse"
       id="clipPath52"><path
         d="M 0,0.028 H 719.971 V 539.999 H 0 Z"
         clip-rule="evenodd"
         id="path50" /></clipPath><clipPath
       clipPathUnits="userSpaceOnUse"
       id="clipPath76"><path
         d="m 19.785,468 h 680.428 v 48.245 H 19.785 Z"
         clip-rule="evenodd"
         id="path74" /></clipPath><clipPath
       clipPathUnits="userSpaceOnUse"
       id="clipPath84"><path
         d="M 0,0 H 680.457 V 48.274 H 0 Z"
         id="path82" /></clipPath><linearGradient
       x1="340"
       y1="49"
       x2="340"
       y2="0"
       gradientUnits="userSpaceOnUse"
       spreadMethod="pad"
       id="linearGradient90"><stop
         style="stop-opacity:1;stop-color:#83afdb"
         offset="0"
         id="stop86" /><stop
         style="stop-opacity:1;stop-color:#83afdb"
         offset="1"
         id="stop88" /></linearGradient><clipPath
       clipPathUnits="userSpaceOnUse"
       id="clipPath100"><path
         d="M 0,0.028 H 719.971 V 539.999 H 0 Z"
         clip-rule="evenodd"
         id="path98" /></clipPath></defs><g
     id="g10"
     transform="matrix(1.3333333,0,0,-1.3333333,-55.445007,552.22637)"><path
       d="M 183.6,377.008 H 86.598 v 31.124 h 193.975 v -31.124 z"
       style="fill:#bbe0e3;fill-opacity:1;fill-rule:evenodd;stroke:none"
       id="path150" /><g
       id="g152"><path
         d="M 183.6,377.008 H 86.598 v 31.124 h 193.975 v -31.124 z"
         style="fill:none;stroke:#000000;stroke-width:0.73699;stroke-linecap:butt;stroke-linejoin:miter;stroke-miterlimit:3.8637;stroke-dasharray:none;stroke-opacity:1"
         id="path154" /></g><g
       id="g156"><text
         transform="matrix(1,0,0,-1,109.502,384.605)"
         style="font-variant:normal;font-weight:normal;font-size:20.013px;font-family:'Liberation Sans';-inkscape-font-specification:LiberationSans;writing-mode:lr-tb;fill:#000000;fill-opacity:1;fill-rule:nonzero;stroke:none"
         id="text160"><tspan
           x="0 5.5035748 16.690842 26.777393 32.280968 38.965309 50.152576 60.159077 65.742706 70.145561 81.332832 92.440048 98.023674 110.23161 121.33882 126.92245 136.92894"
           y="0"
           id="tspan158">Instruction Fetch</tspan></text></g><path
       d="M 485.32,377.008 H 337.294 v 31.124 h 296.023 v -31.124 z"
       style="fill:#bbe0e3;fill-opacity:1;fill-rule:evenodd;stroke:none"
       id="path162" /><g
       id="g164"><path
         d="M 485.32,377.008 H 337.294 v 31.124 h 296.023 v -31.124 z"
         style="fill:none;stroke:#000000;stroke-width:0.73699;stroke-linecap:butt;stroke-linejoin:miter;stroke-miterlimit:3.8637;stroke-dasharray:none;stroke-opacity:1"
         id="path166" /></g><g
       id="g168"><text
         transform="matrix(1,0,0,-1,437.414,384.605)"
         style="font-variant:normal;font-weight:bold;font-size:20.013px;font-family:'Liberation Sans';-inkscape-font-specification:LiberationSans-Bold;writing-mode:lr-tb;fill:#000000;fill-opacity:1;fill-rule:nonzero;stroke:none"
         id="text172"><tspan
           x="0 13.388697 24.495913 35.683178 46.790394 59.078377 65.762718 71.266296 83.554276"
           y="0"
           id="tspan170">Execution</tspan></text></g><g
       id="g174"><path
         d="m 280.602,392.4 50.201,-0.057"
         style="fill:none;stroke:#000000;stroke-width:0.73699;stroke-linecap:butt;stroke-linejoin:round;stroke-miterlimit:10;stroke-dasharray:none;stroke-opacity:1"
         id="path176" /></g><path
       d="m 337.294,392.343 -6.406,-3.458 -0.538,0.539 4.932,2.551 -4.932,0.028 v 0.737 l 4.932,-0.028 -4.932,2.579 0.567,0.539 z"
       style="fill:#000000;fill-opacity:1;fill-rule:evenodd;stroke:none"
       id="path178" /><g
       id="g180"><path
         d="m 47.254,391.294 32.881,-0.085"
         style="fill:none;stroke:#000000;stroke-width:0.73699;stroke-linecap:butt;stroke-linejoin:round;stroke-miterlimit:10;stroke-dasharray:none;stroke-opacity:1"
         id="path182" /></g><path
       d="m 86.627,391.181 -6.407,-3.458 -0.538,0.567 4.932,2.551 h -4.932 v 0.737 h 4.932 l -4.932,2.551 0.567,0.539 z"
       style="fill:#000000;fill-opacity:1;fill-rule:evenodd;stroke:none"
       id="path184" /></g></svg>
