<?xml version="1.0" encoding="UTF-8" standalone="no"?>
<svg
   xmlns:dc="http://purl.org/dc/elements/1.1/"
   xmlns:cc="http://creativecommons.org/ns#"
   xmlns:rdf="http://www.w3.org/1999/02/22-rdf-syntax-ns#"
   xmlns:svg="http://www.w3.org/2000/svg"
   xmlns="http://www.w3.org/2000/svg"
   version="1.1"
   id="svg2955"
   xml:space="preserve"
   width="215.44449mm"
   height="129.2769mm"
   viewBox="0 0 814.27838 488.60562"><metadata
     id="metadata2961"><rdf:RDF><cc:Work
         rdf:about=""><dc:format>image/svg+xml</dc:format><dc:type
           rdf:resource="http://purl.org/dc/dcmitype/StillImage" /><dc:title></dc:title></cc:Work></rdf:RDF></metadata><defs
     id="defs2959"><clipPath
       clipPathUnits="userSpaceOnUse"
       id="clipPath2971"><path
         d="M 0,0.028 H 719.971 V 539.999 H 0 Z"
         clip-rule="evenodd"
         id="path2969" /></clipPath><clipPath
       clipPathUnits="userSpaceOnUse"
       id="clipPath2981"><path
         d="m 19.757,26.248 h 680.485 v 22.62 H 19.757 Z"
         clip-rule="evenodd"
         id="path2979" /></clipPath><clipPath
       clipPathUnits="userSpaceOnUse"
       id="clipPath2989"><path
         d="M 0,0 H 680.513 V 22.649 H 0 Z"
         id="path2987" /></clipPath><linearGradient
       x1="341"
       y1="24"
       x2="341"
       y2="0"
       gradientUnits="userSpaceOnUse"
       spreadMethod="pad"
       id="linearGradient2995"><stop
         style="stop-opacity:1;stop-color:#182f76"
         offset="0"
         id="stop2991" /><stop
         style="stop-opacity:1;stop-color:#182f76"
         offset="1"
         id="stop2993" /></linearGradient><clipPath
       clipPathUnits="userSpaceOnUse"
       id="clipPath3005"><path
         d="M 0,0.028 H 719.971 V 539.999 H 0 Z"
         clip-rule="evenodd"
         id="path3003" /></clipPath><clipPath
       clipPathUnits="userSpaceOnUse"
       id="clipPath3029"><path
         d="m 19.785,468 h 680.428 v 48.245 H 19.785 Z"
         clip-rule="evenodd"
         id="path3027" /></clipPath><clipPath
       clipPathUnits="userSpaceOnUse"
       id="clipPath3037"><path
         d="M 0,0 H 680.457 V 48.274 H 0 Z"
         id="path3035" /></clipPath><linearGradient
       x1="340"
       y1="49"
       x2="340"
       y2="0"
       gradientUnits="userSpaceOnUse"
       spreadMethod="pad"
       id="linearGradient3043"><stop
         style="stop-opacity:1;stop-color:#83afdb"
         offset="0"
         id="stop3039" /><stop
         style="stop-opacity:1;stop-color:#83afdb"
         offset="1"
         id="stop3041" /></linearGradient><clipPath
       clipPathUnits="userSpaceOnUse"
       id="clipPath3053"><path
         d="M 0,0.028 H 719.971 V 539.999 H 0 Z"
         clip-rule="evenodd"
         id="path3051" /></clipPath></defs><g
     id="g2963"
     transform="matrix(1.3333333,0,0,-1.3333333,-48.041632,626.33015)"><g
       id="g3061"><text
         transform="matrix(1,0,0,-1,36,452.494)"
         style="font-variant:normal;font-weight:normal;font-size:15.987px;font-family:'Liberation Sans';-inkscape-font-specification:LiberationSans;writing-mode:lr-tb;fill:#000000;fill-opacity:1;fill-rule:nonzero;stroke:none"
         id="text3065"><tspan
           x="0 10.679316 19.568089 23.964514 29.25621 39.935528 48.824299 57.617149 62.09351 65.674599 74.56337 87.848564 93.140259 97.53669 102.01305"
           y="0"
           id="tspan3063">P5 (Pentium) : </tspan></text></g><g
       id="g3067"><text
         transform="matrix(1,0,0,-1,187.002,452.494)"
         style="font-variant:normal;font-weight:bold;font-size:15.987px;font-family:'Liberation Sans';-inkscape-font-specification:LiberationSans-Bold;writing-mode:lr-tb;fill:#000000;fill-opacity:1;fill-rule:nonzero;stroke:none"
         id="text3071"><tspan
           x="0"
           y="0"
           id="tspan3069">5</tspan></text></g><g
       id="g3073"><text
         transform="matrix(1,0,0,-1,36,434.693)"
         style="font-variant:normal;font-weight:normal;font-size:15.987px;font-family:'Liberation Sans';-inkscape-font-specification:LiberationSans;writing-mode:lr-tb;fill:#000000;fill-opacity:1;fill-rule:nonzero;stroke:none"
         id="text3077"><tspan
           x="0 10.679316 19.568089 23.964514 29.25621 39.935528 48.824299 57.617149 62.09351 65.674599 74.56337 87.848564 92.244987 101.13376 106.42546 110.82188"
           y="0"
           id="tspan3075">P6 (Pentium 3): </tspan></text></g><g
       id="g3079"><text
         transform="matrix(1,0,0,-1,191.395,434.693)"
         style="font-variant:normal;font-weight:bold;font-size:15.987px;font-family:'Liberation Sans';-inkscape-font-specification:LiberationSans-Bold;writing-mode:lr-tb;fill:#000000;fill-opacity:1;fill-rule:nonzero;stroke:none"
         id="text3083"><tspan
           x="0 8.888772"
           y="0"
           id="tspan3081">10</tspan></text></g><g
       id="g3085"><text
         transform="matrix(1,0,0,-1,36,416.891)"
         style="font-variant:normal;font-weight:normal;font-size:15.987px;font-family:'Liberation Sans';-inkscape-font-specification:LiberationSans;writing-mode:lr-tb;fill:#000000;fill-opacity:1;fill-rule:nonzero;stroke:none"
         id="text3089"><tspan
           x="0 10.679316 19.568089 23.964514 29.25621 39.935528 48.824299 57.617149 62.09351 65.674599 74.56337 87.848564 92.244987 102.92431 108.216 117.10477 122.30055 126.77691"
           y="0"
           id="tspan3087">P6 (Pentium Pro): </tspan></text></g><g
       id="g3091"><text
         transform="matrix(1,0,0,-1,198.51,416.891)"
         style="font-variant:normal;font-weight:bold;font-size:15.987px;font-family:'Liberation Sans';-inkscape-font-specification:LiberationSans-Bold;writing-mode:lr-tb;fill:#000000;fill-opacity:1;fill-rule:nonzero;stroke:none"
         id="text3095"><tspan
           x="0 8.888772"
           y="0"
           id="tspan3093">14</tspan></text></g><g
       id="g3097"><text
         transform="matrix(1,0,0,-1,36,399.09)"
         style="font-variant:normal;font-weight:normal;font-size:15.987px;font-family:'Liberation Sans';-inkscape-font-specification:LiberationSans;writing-mode:lr-tb;fill:#000000;fill-opacity:1;fill-rule:nonzero;stroke:none"
         id="text3101"><tspan
           x="0 11.494653 20.383425 24.859785 35.44318 44.331951 49.62365 57.617149 62.09351 66.489929 71.781631 86.857368 90.438461 94.019547 97.600632 106.48941 119.7746 128.66338 133.0598 137.53616 146.42493 150.82137 155.21779 164.10655 172.99533 181.88409 186.28052 195.1693 208.4545 213.74619 218.22255 223.41832 227.89468 239.38934 248.27811 251.85919 260.74796 265.94376 274.83252 283.72128 288.11771 292.59409 303.27338 312.06625 320.95502 325.43137 329.01245 337.8053 351.18643 355.58286 364.47162 368.86804"
           y="0"
           id="tspan3099">NetBurst (Willamette, 180 nm) - Celeron, Pentium 4: </tspan></text></g><g
       id="g3103"><text
         transform="matrix(1,0,0,-1,418.791,399.09)"
         style="font-variant:normal;font-weight:bold;font-size:15.987px;font-family:'Liberation Sans';-inkscape-font-specification:LiberationSans-Bold;writing-mode:lr-tb;fill:#000000;fill-opacity:1;fill-rule:nonzero;stroke:none"
         id="text3107"><tspan
           x="0 8.888772"
           y="0"
           id="tspan3105">20</tspan></text></g><g
       id="g3109"><text
         transform="matrix(1,0,0,-1,36,381.402)"
         style="font-variant:normal;font-weight:normal;font-size:15.987px;font-family:'Liberation Sans';-inkscape-font-specification:LiberationSans;writing-mode:lr-tb;fill:#000000;fill-opacity:1;fill-rule:nonzero;stroke:none"
         id="text3113"><tspan
           x="0 11.494653 20.383425 24.859785 35.44318 44.331951 49.62365 57.617149 62.09351 66.489929 71.781631 83.276283 92.165054 97.456749 101.85318 110.74195 122.2366 131.12538 140.01414 148.90292 153.29935 157.69577 166.58453 175.47331 184.36209 188.75851 197.64728 210.93248 216.22418 220.70053 225.89632 230.37267 241.86732 250.75609 254.33719 263.13004 268.42172 277.31052 286.19928 290.5957 295.07205 305.65546 314.54422 323.43298 327.82944 331.41052 340.29929 353.68039 358.07681 366.96561 371.36203 375.83838 386.42178 395.31055 404.19931 408.59573 412.17682 421.06561 434.3508 438.82715 447.71594 452.11237 463.60703 471.60052 476.07687"
           y="0"
           id="tspan3111">NetBurst (Northwood, 130 nm) - Celeron, Pentium 4, Pentium 4 HT: </tspan></text></g><g
       id="g3115"><text
         transform="matrix(1,0,0,-1,521.688,381.402)"
         style="font-variant:normal;font-weight:bold;font-size:15.987px;font-family:'Liberation Sans';-inkscape-font-specification:LiberationSans-Bold;writing-mode:lr-tb;fill:#000000;fill-opacity:1;fill-rule:nonzero;stroke:none"
         id="text3119"><tspan
           x="0 8.7928495"
           y="0"
           id="tspan3117">20</tspan></text></g><g
       id="g3121"><text
         transform="matrix(1,0,0,-1,36,363.6)"
         style="font-variant:normal;font-weight:normal;font-size:15.987px;font-family:'Liberation Sans';-inkscape-font-specification:LiberationSans;writing-mode:lr-tb;fill:#000000;fill-opacity:1;fill-rule:nonzero;stroke:none"
         id="text3125"><tspan
           x="0 11.494653 20.383425 24.859785 35.44318 44.331951 49.62365 57.617149 62.09351 66.489929 71.781631 82.460945 87.75264 96.545494 104.61893 112.61243 121.5012 125.89763 130.37398 134.77042 139.24677 148.03963 156.92839 161.40475 170.29352 183.57872 188.87042 193.26685 198.55853 202.95497 214.44962 223.33839 226.91948 235.80824 241.09995 249.98872 258.78156 263.25793 274.75259 279.14902 283.62537 294.20877 303.09753 311.9863 316.38272 319.96381 328.8526 342.13779 346.61414 355.50293 359.89935 364.3757 374.95911 383.84787 392.73663 397.13306 400.71414 409.60294 422.88812 427.36447 436.25327 440.64969 452.14435 460.13785 464.6142 469.01062 479.68994 488.5787 497.46747 501.86389 505.44498 514.33374 527.61896 532.01538 540.90417 545.38049 556.05981 564.05334 574.73267 583.6214 588.01782"
           y="0"
           id="tspan3123">NetBurst (Prescott, 90 nm) - Celeron D, Pentium 4, Pentium 4 HT, Pentium 4 ExEd: </tspan></text></g><g
       id="g3127"><text
         transform="matrix(1,0,0,-1,629.405,363.6)"
         style="font-variant:normal;font-weight:bold;font-size:15.987px;font-family:'Liberation Sans';-inkscape-font-specification:LiberationSans-Bold;writing-mode:lr-tb;fill:#000000;fill-opacity:1;fill-rule:nonzero;stroke:none"
         id="text3131"><tspan
           x="0 8.888772"
           y="0"
           id="tspan3129">31</tspan></text></g><g
       id="g3133"><text
         transform="matrix(1,0,0,-1,36,345.798)"
         style="font-variant:normal;font-weight:normal;font-size:15.987px;font-family:'Liberation Sans';-inkscape-font-specification:LiberationSans;writing-mode:lr-tb;fill:#000000;fill-opacity:1;fill-rule:nonzero;stroke:none"
         id="text3137"><tspan
           x="0 11.494653 20.383425 24.859785 35.44318 44.331951 49.62365 57.617149 62.09351 66.489929 71.781631 83.276283 92.165054 101.05383 109.9426 115.13837 119.61473 132.89993 136.48102 140.0621 143.64319 148.03963 152.51598 161.40475 170.29352 174.68994 183.57872 196.86392 202.15561 206.55203"
           y="0"
           id="tspan3135">NetBurst (Cedar Mill, 65 nm): </tspan></text></g><g
       id="g3139"><text
         transform="matrix(1,0,0,-1,251.802,345.798)"
         style="font-variant:normal;font-weight:bold;font-size:15.987px;font-family:'Liberation Sans';-inkscape-font-specification:LiberationSans-Bold;writing-mode:lr-tb;fill:#000000;fill-opacity:1;fill-rule:nonzero;stroke:none"
         id="text3143"><tspan
           x="0 8.888772"
           y="0"
           id="tspan3141">31</tspan></text></g><g
       id="g3145"><text
         transform="matrix(1,0,0,-1,36,328.11)"
         style="font-variant:normal;font-weight:normal;font-size:15.987px;font-family:'Liberation Sans';-inkscape-font-specification:LiberationSans;writing-mode:lr-tb;fill:#000000;fill-opacity:1;fill-rule:nonzero;stroke:none"
         id="text3149"><tspan
           x="0 11.494653 20.383425 24.859785 35.44318 44.331951 49.62365 57.617149 62.09351 66.489929 71.781631 82.460945 87.75264 96.545494 104.61893 108.20001 117.08879 122.28456 126.76093 135.64969 144.44255 148.9189 157.80768 171.09288 176.38457 180.78099 186.07269 190.46912 201.14844 210.0372 218.92598 223.3224 226.90349 235.79227 249.07745 253.55382 265.04846"
           y="0"
           id="tspan3147">NetBurst (Presler 65 nm) - Pentium D:</tspan></text></g><g
       id="g3151"><text
         transform="matrix(1,0,0,-1,324,328.11)"
         style="font-variant:normal;font-weight:bold;font-size:15.987px;font-family:'Liberation Sans';-inkscape-font-specification:LiberationSans-Bold;writing-mode:lr-tb;fill:#000000;fill-opacity:1;fill-rule:nonzero;stroke:none"
         id="text3155"><tspan
           x="0 8.888772"
           y="0"
           id="tspan3153">31</tspan></text></g><g
       id="g3157"><text
         transform="matrix(1,0,0,-1,36,310.309)"
         style="font-variant:normal;font-weight:normal;font-size:15.987px;font-family:'Liberation Sans';-inkscape-font-specification:LiberationSans;writing-mode:lr-tb;fill:#000000;fill-opacity:1;fill-rule:nonzero;stroke:none"
         id="text3161"><tspan
           x="0 11.494653 20.383425 25.675121 34.563892 38.96032 43.43668"
           y="0"
           id="tspan3159">Core : </tspan></text></g><g
       id="g3163"><text
         transform="matrix(1,0,0,-1,150.491,310.309)"
         style="font-variant:normal;font-weight:bold;font-size:15.987px;font-family:'Liberation Sans';-inkscape-font-specification:LiberationSans-Bold;writing-mode:lr-tb;fill:#000000;fill-opacity:1;fill-rule:nonzero;stroke:none"
         id="text3167"><tspan
           x="0 8.888772"
           y="0"
           id="tspan3165">14</tspan></text></g><g
       id="g3169"><text
         transform="matrix(1,0,0,-1,36,292.507)"
         style="font-variant:normal;font-weight:normal;font-size:15.987px;font-family:'Liberation Sans';-inkscape-font-specification:LiberationSans;writing-mode:lr-tb;fill:#000000;fill-opacity:1;fill-rule:nonzero;stroke:none"
         id="text3173"><tspan
           x="0 10.679316 19.568089 28.45686 37.345631 46.138481 49.71957 53.300659 57.77702"
           y="0"
           id="tspan3171">Bonnell: </tspan></text></g><g
       id="g3175"><text
         transform="matrix(1,0,0,-1,147.09,292.507)"
         style="font-variant:normal;font-weight:bold;font-size:15.987px;font-family:'Liberation Sans';-inkscape-font-specification:LiberationSans-Bold;writing-mode:lr-tb;fill:#000000;fill-opacity:1;fill-rule:nonzero;stroke:none"
         id="text3179"><tspan
           x="0 8.888772"
           y="0"
           id="tspan3177">16</tspan></text></g><g
       id="g3181"><text
         transform="matrix(1,0,0,-1,36,256.989)"
         style="font-variant:normal;font-weight:normal;font-size:15.987px;font-family:'Liberation Sans';-inkscape-font-specification:LiberationSans;writing-mode:lr-tb;fill:#000000;fill-opacity:1;fill-rule:nonzero;stroke:none"
         id="text3185"><tspan
           x="0 10.679316 19.568089 23.165163 33.844479 39.040253 47.113689 56.00246 59.583549 63.979973 72.868744 80.862244 85.338608 94.131454 99.423157 108.31193 112.78828 117.98406 121.58114 132.26045 136.65688 145.54565 149.12674 158.0155 166.90428 171.3007 175.77707"
           y="0"
           id="tspan3183">K7 Architecture - Athlon : </tspan></text></g><g
       id="g3187"><text
         transform="matrix(1,0,0,-1,216.51,256.989)"
         style="font-variant:normal;font-weight:bold;font-size:15.987px;font-family:'Liberation Sans';-inkscape-font-specification:LiberationSans-Bold;writing-mode:lr-tb;fill:#000000;fill-opacity:1;fill-rule:nonzero;stroke:none"
         id="text3191"><tspan
           x="0 8.888772"
           y="0"
           id="tspan3189">10</tspan></text></g><g
       id="g3193"><text
         transform="matrix(1,0,0,-1,234.312,256.989)"
         style="font-variant:normal;font-weight:normal;font-size:15.987px;font-family:'Liberation Sans';-inkscape-font-specification:LiberationSans;writing-mode:lr-tb;fill:#000000;fill-opacity:1;fill-rule:nonzero;stroke:none"
         id="text3197"><tspan
           x="0"
           y="0"
           id="tspan3195">-</tspan></text></g><g
       id="g3199"><text
         transform="matrix(1,0,0,-1,239.613,256.989)"
         style="font-variant:normal;font-weight:bold;font-size:15.987px;font-family:'Liberation Sans';-inkscape-font-specification:LiberationSans-Bold;writing-mode:lr-tb;fill:#000000;fill-opacity:1;fill-rule:nonzero;stroke:none"
         id="text3203"><tspan
           x="0 8.7928495"
           y="0"
           id="tspan3201">15</tspan></text></g><g
       id="g3205"><text
         transform="matrix(1,0,0,-1,36,239.187)"
         style="font-variant:normal;font-weight:normal;font-size:15.987px;font-family:'Liberation Sans';-inkscape-font-specification:LiberationSans;writing-mode:lr-tb;fill:#000000;fill-opacity:1;fill-rule:nonzero;stroke:none"
         id="text3209"><tspan
           x="0 10.679316 19.568089 23.964514 29.25621 32.853287 43.5326 47.929028 56.817799 60.398888 69.287659 78.17643 82.572853 91.461624 100.3504 104.74683 109.22318 119.80658 128.69534 141.98055 150.86932 156.16101 165.04979 173.93855 178.33499 182.73141 195.12134 204.0101 208.40652 217.2953 222.58701 231.47577 240.26862 244.74498 248.93358 258.03018 266.91895 272.21066 275.79175 284.58459 293.47336 297.86978 306.75854 315.64734 320.04376"
           y="0"
           id="tspan3207">K8 - Athlon 64, Sempron, Opteron, Turion 64: </tspan></text></g><g
       id="g3211"><text
         transform="matrix(1,0,0,-1,360.992,239.187)"
         style="font-variant:normal;font-weight:bold;font-size:15.987px;font-family:'Liberation Sans';-inkscape-font-specification:LiberationSans-Bold;writing-mode:lr-tb;fill:#000000;fill-opacity:1;fill-rule:nonzero;stroke:none"
         id="text3215"><tspan
           x="0 8.888772"
           y="0"
           id="tspan3213">12</tspan></text></g><g
       id="g3217"><text
         transform="matrix(1,0,0,-1,378.794,239.187)"
         style="font-variant:normal;font-weight:normal;font-size:15.987px;font-family:'Liberation Sans';-inkscape-font-specification:LiberationSans;writing-mode:lr-tb;fill:#000000;fill-opacity:1;fill-rule:nonzero;stroke:none"
         id="text3221"><tspan
           x="0"
           y="0"
           id="tspan3219">-</tspan></text></g><g
       id="g3223"><text
         transform="matrix(1,0,0,-1,384.009,239.187)"
         style="font-variant:normal;font-weight:bold;font-size:15.987px;font-family:'Liberation Sans';-inkscape-font-specification:LiberationSans-Bold;writing-mode:lr-tb;fill:#000000;fill-opacity:1;fill-rule:nonzero;stroke:none"
         id="text3227"><tspan
           x="0 8.888772"
           y="0"
           id="tspan3225">17</tspan></text></g><g
       id="g3229"><text
         transform="matrix(1,0,0,-1,36,203.613)"
         style="font-variant:normal;font-weight:normal;font-size:15.987px;font-family:'Liberation Sans';-inkscape-font-specification:LiberationSans;writing-mode:lr-tb;fill:#000000;fill-opacity:1;fill-rule:nonzero;stroke:none"
         id="text3233"><tspan
           x="0 10.679316 22.173969 35.459167 39.935528 48.824299 54.020073 62.908844 67.385208"
           y="0"
           id="tspan3231">ARM 8-9: </tspan></text></g><g
       id="g3235"><text
         transform="matrix(1,0,0,-1,107.887,203.613)"
         style="font-variant:normal;font-weight:bold;font-size:15.987px;font-family:'Liberation Sans';-inkscape-font-specification:LiberationSans-Bold;writing-mode:lr-tb;fill:#000000;fill-opacity:1;fill-rule:nonzero;stroke:none"
         id="text3239"><tspan
           x="0"
           y="0"
           id="tspan3237">5</tspan></text></g><g
       id="g3241"><text
         transform="matrix(1,0,0,-1,36,185.896)"
         style="font-variant:normal;font-weight:normal;font-size:15.987px;font-family:'Liberation Sans';-inkscape-font-specification:LiberationSans;writing-mode:lr-tb;fill:#000000;fill-opacity:1;fill-rule:nonzero;stroke:none"
         id="text3245"><tspan
           x="0 10.679316 22.173969 35.459167 39.935528 47.625275 56.514046 60.910469"
           y="0"
           id="tspan3243">ARM 11: </tspan></text></g><g
       id="g3247"><text
         transform="matrix(1,0,0,-1,101.395,185.896)"
         style="font-variant:normal;font-weight:bold;font-size:15.987px;font-family:'Liberation Sans';-inkscape-font-specification:LiberationSans-Bold;writing-mode:lr-tb;fill:#000000;fill-opacity:1;fill-rule:nonzero;stroke:none"
         id="text3251"><tspan
           x="0"
           y="0"
           id="tspan3249">8</tspan></text></g><g
       id="g3253"><text
         transform="matrix(1,0,0,-1,36,168.094)"
         style="font-variant:normal;font-weight:normal;font-size:15.987px;font-family:'Liberation Sans';-inkscape-font-specification:LiberationSans;writing-mode:lr-tb;fill:#000000;fill-opacity:1;fill-rule:nonzero;stroke:none"
         id="text3257"><tspan
           x="0 11.494653 20.383425 25.675121 30.151482 38.944332 47.017769 50.614841 61.198235 70.087006 74.56337 83.356216 88.647919 100.14257 103.72366 112.61243 121.5012"
           y="0"
           id="tspan3255">Cortex A7 2-wide </tspan></text></g><g
       id="g3259"><text
         transform="matrix(1,0,0,-1,162.113,168.094)"
         style="font-variant:normal;font-weight:bold;font-size:15.987px;font-family:'Liberation Sans';-inkscape-font-specification:LiberationSans-Bold;writing-mode:lr-tb;fill:#000000;fill-opacity:1;fill-rule:nonzero;stroke:none"
         id="text3263"><tspan
           x="0"
           y="0"
           id="tspan3261">8</tspan></text></g><g
       id="g3265"><text
         transform="matrix(1,0,0,-1,171.014,168.094)"
         style="font-variant:normal;font-weight:normal;font-size:15.987px;font-family:'Liberation Sans';-inkscape-font-specification:LiberationSans;writing-mode:lr-tb;fill:#000000;fill-opacity:1;fill-rule:nonzero;stroke:none"
         id="text3269"><tspan
           x="0"
           y="0"
           id="tspan3267">-</tspan></text></g><g
       id="g3271"><text
         transform="matrix(1,0,0,-1,176.287,168.094)"
         style="font-variant:normal;font-weight:bold;font-size:15.987px;font-family:'Liberation Sans';-inkscape-font-specification:LiberationSans-Bold;writing-mode:lr-tb;fill:#000000;fill-opacity:1;fill-rule:nonzero;stroke:none"
         id="text3275"><tspan
           x="0 8.888772"
           y="0"
           id="tspan3273">10</tspan></text></g><g
       id="g3277"><text
         transform="matrix(1,0,0,-1,36,150.293)"
         style="font-variant:normal;font-weight:normal;font-size:15.987px;font-family:'Liberation Sans';-inkscape-font-specification:LiberationSans;writing-mode:lr-tb;fill:#000000;fill-opacity:1;fill-rule:nonzero;stroke:none"
         id="text3281"><tspan
           x="0 11.494653 20.383425 25.675121 30.151482 38.944332 47.017769 50.614841 61.198235 70.087006 74.56337 83.356216 88.647919 100.14257 103.72366 112.61243 121.5012"
           y="0"
           id="tspan3279">Cortex A8 2-wide </tspan></text></g><g
       id="g3283"><text
         transform="matrix(1,0,0,-1,162.113,150.293)"
         style="font-variant:normal;font-weight:bold;font-size:15.987px;font-family:'Liberation Sans';-inkscape-font-specification:LiberationSans-Bold;writing-mode:lr-tb;fill:#000000;fill-opacity:1;fill-rule:nonzero;stroke:none"
         id="text3287"><tspan
           x="0 8.888772"
           y="0"
           id="tspan3285">13</tspan></text></g><g
       id="g3289"><text
         transform="matrix(1,0,0,-1,36,132.491)"
         style="font-variant:normal;font-weight:normal;font-size:15.987px;font-family:'Liberation Sans';-inkscape-font-specification:LiberationSans;writing-mode:lr-tb;fill:#000000;fill-opacity:1;fill-rule:nonzero;stroke:none"
         id="text3293"><tspan
           x="0 11.494653 20.383425 25.675121 30.151482 38.944332 47.017769 50.614841 61.198235 70.087006 78.975777 83.372208 92.260979 97.552673 109.04733 112.62842 121.51719 130.40596"
           y="0"
           id="tspan3291">Cortex A15 3-wide </tspan></text></g><g
       id="g3295"><text
         transform="matrix(1,0,0,-1,171.014,132.491)"
         style="font-variant:normal;font-weight:bold;font-size:15.987px;font-family:'Liberation Sans';-inkscape-font-specification:LiberationSans-Bold;writing-mode:lr-tb;fill:#000000;fill-opacity:1;fill-rule:nonzero;stroke:none"
         id="text3299"><tspan
           x="0 8.888772"
           y="0"
           id="tspan3297">15</tspan></text></g><g
       id="g3301"><text
         transform="matrix(1,0,0,-1,188.787,132.491)"
         style="font-variant:normal;font-weight:normal;font-size:15.987px;font-family:'Liberation Sans';-inkscape-font-specification:LiberationSans;writing-mode:lr-tb;fill:#000000;fill-opacity:1;fill-rule:nonzero;stroke:none"
         id="text3305"><tspan
           x="0"
           y="0"
           id="tspan3303">-</tspan></text></g><g
       id="g3307"><text
         transform="matrix(1,0,0,-1,194.088,132.491)"
         style="font-variant:normal;font-weight:bold;font-size:15.987px;font-family:'Liberation Sans';-inkscape-font-specification:LiberationSans-Bold;writing-mode:lr-tb;fill:#000000;fill-opacity:1;fill-rule:nonzero;stroke:none"
         id="text3311"><tspan
           x="0 8.888772"
           y="0"
           id="tspan3309">25</tspan></text></g><g
       id="g3331"><text
         transform="matrix(1,0,0,-1,232.498,213.307)"
         style="font-variant:normal;font-weight:normal;font-size:15.987px;font-family:'Liberation Sans';-inkscape-font-specification:LiberationSans;writing-mode:lr-tb;fill:#000000;fill-opacity:1;fill-rule:nonzero;stroke:none"
         id="text3335"><tspan
           x="0 11.494653 20.383425 25.675121 30.071547 38.96032 46.953819 52.245518 62.924831 71.813606 80.702377 85.098801 93.987572 99.279266 110.77393 114.35501 123.24378 132.03664"
           y="0"
           id="tspan3333">Cortex-A35 2-wide </tspan></text></g><g
       id="g3337"><text
         transform="matrix(1,0,0,-1,386.901,213.307)"
         style="font-variant:normal;font-weight:bold;font-size:15.987px;font-family:'Liberation Sans';-inkscape-font-specification:LiberationSans-Bold;writing-mode:lr-tb;fill:#000000;fill-opacity:1;fill-rule:nonzero;stroke:none"
         id="text3341"><tspan
           x="0"
           y="0"
           id="tspan3339">8</tspan></text></g><g
       id="g3343"><text
         transform="matrix(1,0,0,-1,232.498,195.506)"
         style="font-variant:normal;font-weight:normal;font-size:15.987px;font-family:'Liberation Sans';-inkscape-font-specification:LiberationSans;writing-mode:lr-tb;fill:#000000;fill-opacity:1;fill-rule:nonzero;stroke:none"
         id="text3347"><tspan
           x="0 11.494653 20.383425 25.675121 30.071547 38.96032 46.953819 52.245518 62.924831 71.813606 80.702377 85.098801 93.987572 99.279266 110.77393 114.35501 123.24378 132.03664"
           y="0"
           id="tspan3345">Cortex-A53 2-wide </tspan></text></g><g
       id="g3349"><text
         transform="matrix(1,0,0,-1,386.901,195.506)"
         style="font-variant:normal;font-weight:bold;font-size:15.987px;font-family:'Liberation Sans';-inkscape-font-specification:LiberationSans-Bold;writing-mode:lr-tb;fill:#000000;fill-opacity:1;fill-rule:nonzero;stroke:none"
         id="text3353"><tspan
           x="0"
           y="0"
           id="tspan3351">8</tspan></text></g><g
       id="g3355"><text
         transform="matrix(1,0,0,-1,232.498,177.704)"
         style="font-variant:normal;font-weight:normal;font-size:15.987px;font-family:'Liberation Sans';-inkscape-font-specification:LiberationSans;writing-mode:lr-tb;fill:#000000;fill-opacity:1;fill-rule:nonzero;stroke:none"
         id="text3359"><tspan
           x="0 11.494653 20.383425 25.675121 30.071547 38.96032 46.953819 52.245518 62.924831 71.813606 80.702377 85.098801 93.987572 99.279266 110.77393 114.35501 123.24378 132.03664"
           y="0"
           id="tspan3357">Cortex-A57 3-wide </tspan></text></g><g
       id="g3361"><text
         transform="matrix(1,0,0,-1,382.507,177.704)"
         style="font-variant:normal;font-weight:bold;font-size:15.987px;font-family:'Liberation Sans';-inkscape-font-specification:LiberationSans-Bold;writing-mode:lr-tb;fill:#000000;fill-opacity:1;fill-rule:nonzero;stroke:none"
         id="text3365"><tspan
           x="0 8.888772"
           y="0"
           id="tspan3363">15</tspan></text></g><g
       id="g3367"><text
         transform="matrix(1,0,0,-1,232.498,159.987)"
         style="font-variant:normal;font-weight:normal;font-size:15.987px;font-family:'Liberation Sans';-inkscape-font-specification:LiberationSans;writing-mode:lr-tb;fill:#000000;fill-opacity:1;fill-rule:nonzero;stroke:none"
         id="text3371"><tspan
           x="0 11.494653 20.383425 25.675121 30.071547 38.96032 46.953819 52.245518 62.924831 71.813606 80.702377 85.098801 93.987572 99.279266 110.77393 114.35501 123.24378 132.03664"
           y="0"
           id="tspan3369">Cortex-A77 4-wide </tspan></text></g><g
       id="g3373"><text
         transform="matrix(1,0,0,-1,369.213,159.987)"
         style="font-variant:normal;font-weight:bold;font-size:15.987px;font-family:'Liberation Sans';-inkscape-font-specification:LiberationSans-Bold;writing-mode:lr-tb;fill:#000000;fill-opacity:1;fill-rule:nonzero;stroke:none"
         id="text3377"><tspan
           x="0 7.9935002"
           y="0"
           id="tspan3375">11</tspan></text></g><g
       id="g3379"><text
         transform="matrix(1,0,0,-1,386.107,159.987)"
         style="font-variant:normal;font-weight:normal;font-size:15.987px;font-family:'Liberation Sans';-inkscape-font-specification:LiberationSans;writing-mode:lr-tb;fill:#000000;fill-opacity:1;fill-rule:nonzero;stroke:none"
         id="text3383"><tspan
           x="0"
           y="0"
           id="tspan3381">–</tspan></text></g><g
       id="g3385"><text
         transform="matrix(1,0,0,-1,395.008,159.987)"
         style="font-variant:normal;font-weight:bold;font-size:15.987px;font-family:'Liberation Sans';-inkscape-font-specification:LiberationSans-Bold;writing-mode:lr-tb;fill:#000000;fill-opacity:1;fill-rule:nonzero;stroke:none"
         id="text3389"><tspan
           x="0 8.888772"
           y="0"
           id="tspan3387">13</tspan></text></g><g
       id="g3391"><text
         transform="matrix(1,0,0,-1,232.498,142.186)"
         style="font-variant:normal;font-weight:normal;font-size:15.987px;font-family:'Liberation Sans';-inkscape-font-specification:LiberationSans;writing-mode:lr-tb;fill:#000000;fill-opacity:1;fill-rule:nonzero;stroke:none"
         id="text3395"><tspan
           x="0 11.494653 20.383425 29.272198 37.265697 46.154469 51.446167 73.588158 82.476936 86.87336 95.762131 101.05383 112.54848 116.12957 124.92242 133.81119"
           y="0"
           id="tspan3393">Denver 2/7-wide </tspan></text></g><g
       id="g3397"><text
         transform="matrix(1,0,0,-1,375.392,142.186)"
         style="font-variant:normal;font-weight:bold;font-size:15.987px;font-family:'Liberation Sans';-inkscape-font-specification:LiberationSans-Bold;writing-mode:lr-tb;fill:#000000;fill-opacity:1;fill-rule:nonzero;stroke:none"
         id="text3401"><tspan
           x="0 8.888772"
           y="0"
           id="tspan3399">13</tspan></text></g><g
       id="g3403"><text
         transform="matrix(1,0,0,-1,232.498,124.413)"
         style="font-variant:normal;font-weight:normal;font-size:15.987px;font-family:'Liberation Sans';-inkscape-font-specification:LiberationSans;writing-mode:lr-tb;fill:#000000;fill-opacity:1;fill-rule:nonzero;stroke:none"
         id="text3407"><tspan
           x="0 13.285197 22.173969 62.061535 70.854385 76.14608 87.640732 91.221825 100.1106 108.99937"
           y="0"
           id="tspan3405">M4 6-wide </tspan></text></g><g
       id="g3409"><text
         transform="matrix(1,0,0,-1,359.49,124.413)"
         style="font-variant:normal;font-weight:bold;font-size:15.987px;font-family:'Liberation Sans';-inkscape-font-specification:LiberationSans-Bold;writing-mode:lr-tb;fill:#000000;fill-opacity:1;fill-rule:nonzero;stroke:none"
         id="text3413"><tspan
           x="0 8.7928495"
           y="0"
           id="tspan3411">15</tspan></text></g><g
       id="g3415"><text
         transform="matrix(1,0,0,-1,232.498,106.611)"
         style="font-variant:normal;font-weight:normal;font-size:15.987px;font-family:'Liberation Sans';-inkscape-font-specification:LiberationSans;writing-mode:lr-tb;fill:#000000;fill-opacity:1;fill-rule:nonzero;stroke:none"
         id="text3419"><tspan
           x="0 8.888772 12.46986 21.358631 30.151482 34.627842 43.516613 47.097702 55.890553 64.779327 73.652107 82.540878 87.832581 99.327232 102.90832 111.79709 120.58994"
           y="0"
           id="tspan3417">Lightning 7-wide </tspan></text></g><g
       id="g3421"><text
         transform="matrix(1,0,0,-1,371.112,106.611)"
         style="font-variant:normal;font-weight:bold;font-size:15.987px;font-family:'Liberation Sans';-inkscape-font-specification:LiberationSans-Bold;writing-mode:lr-tb;fill:#000000;fill-opacity:1;fill-rule:nonzero;stroke:none"
         id="text3425"><tspan
           x="0 8.888772"
           y="0"
           id="tspan3423">16</tspan></text></g><g
       id="g3427" /><g
       id="g3429"><text
         transform="matrix(1,0,0,-1,485.008,169.002)"
         style="font-variant:normal;font-weight:normal;font-size:15.987px;font-family:'Liberation Sans';-inkscape-font-specification:LiberationSans;writing-mode:lr-tb;fill:#000000;fill-opacity:1;fill-rule:nonzero;stroke:none"
         id="text3433"><tspan
           x="0 10.679316 14.260404 23.948526 27.529613 35.523113 44.411884 48.808311 58.592354 69.175751 78.064522 86.953293 95.842064 101.13376 113.42776 122.31654 131.20531 140.09409"
           y="0"
           id="tspan3431">SiFive FE310-G000 </tspan></text></g><g
       id="g3435"><text
         transform="matrix(1,0,0,-1,629.688,169.002)"
         style="font-variant:normal;font-weight:bold;font-size:15.987px;font-family:'Liberation Sans';-inkscape-font-specification:LiberationSans-Bold;writing-mode:lr-tb;fill:#000000;fill-opacity:1;fill-rule:nonzero;stroke:none"
         id="text3439"><tspan
           x="0"
           y="0"
           id="tspan3437">5</tspan></text></g><g
       id="g3441"><text
         transform="matrix(1,0,0,-1,485.008,151.2)"
         style="font-variant:normal;font-weight:normal;font-size:15.987px;font-family:'Liberation Sans';-inkscape-font-specification:LiberationSans;writing-mode:lr-tb;fill:#000000;fill-opacity:1;fill-rule:nonzero;stroke:none"
         id="text3445"><tspan
           x="0 10.679316 14.260404 23.948526 27.529613 35.523113 44.411884 48.808311 58.592354 70.087006 78.975777 87.768631 96.657402 101.9491 113.44375 122.33253 131.2213 140.11006"
           y="0"
           id="tspan3443">SiFive FU540-C000 </tspan></text></g><g
       id="g3447"><text
         transform="matrix(1,0,0,-1,629.688,151.2)"
         style="font-variant:normal;font-weight:bold;font-size:15.987px;font-family:'Liberation Sans';-inkscape-font-specification:LiberationSans-Bold;writing-mode:lr-tb;fill:#000000;fill-opacity:1;fill-rule:nonzero;stroke:none"
         id="text3451"><tspan
           x="0"
           y="0"
           id="tspan3449">5</tspan></text></g><g
       id="g3453"><text
         transform="matrix(1,0,0,-1,478.29,304.413)"
         style="font-variant:normal;font-weight:normal;font-size:15.987px;font-family:'Liberation Sans';-inkscape-font-specification:LiberationSans;writing-mode:lr-tb;fill:#000000;fill-opacity:1;fill-rule:nonzero;stroke:none"
         id="text3457"><tspan
           x="0 11.574588 20.46336 28.45686 39.951511 48.840286 52.421371 56.00246"
           y="0"
           id="tspan3455">Haswell </tspan></text></g><g
       id="g3459"><text
         transform="matrix(1,0,0,-1,538.809,304.413)"
         style="font-variant:normal;font-weight:bold;font-size:15.987px;font-family:'Liberation Sans';-inkscape-font-specification:LiberationSans-Bold;writing-mode:lr-tb;fill:#000000;fill-opacity:1;fill-rule:nonzero;stroke:none"
         id="text3463"><tspan
           x="0 8.888772"
           y="0"
           id="tspan3461">14</tspan></text></g><g
       id="g3465"><text
         transform="matrix(1,0,0,-1,556.611,304.413)"
         style="font-variant:normal;font-weight:normal;font-size:15.987px;font-family:'Liberation Sans';-inkscape-font-specification:LiberationSans;writing-mode:lr-tb;fill:#000000;fill-opacity:1;fill-rule:nonzero;stroke:none"
         id="text3469"><tspan
           x="0"
           y="0"
           id="tspan3467">-</tspan></text></g><g
       id="g3471"><text
         transform="matrix(1,0,0,-1,561.912,304.413)"
         style="font-variant:normal;font-weight:bold;font-size:15.987px;font-family:'Liberation Sans';-inkscape-font-specification:LiberationSans-Bold;writing-mode:lr-tb;fill:#000000;fill-opacity:1;fill-rule:nonzero;stroke:none"
         id="text3475"><tspan
           x="0 8.888772"
           y="0"
           id="tspan3473">19</tspan></text></g><g
       id="g3477"><text
         transform="matrix(1,0,0,-1,478.29,286.696)"
         style="font-variant:normal;font-weight:normal;font-size:15.987px;font-family:'Liberation Sans';-inkscape-font-specification:LiberationSans;writing-mode:lr-tb;fill:#000000;fill-opacity:1;fill-rule:nonzero;stroke:none"
         id="text3481"><tspan
           x="0 11.574588 20.46336 29.25621 38.144981 47.033752 52.325451 56.721874 65.610649 74.49942 82.49292 91.381691"
           y="0"
           id="tspan3479">Cooper Lake </tspan></text></g><g
       id="g3483"><text
         transform="matrix(1,0,0,-1,574.214,286.696)"
         style="font-variant:normal;font-weight:bold;font-size:15.987px;font-family:'Liberation Sans';-inkscape-font-specification:LiberationSans-Bold;writing-mode:lr-tb;fill:#000000;fill-opacity:1;fill-rule:nonzero;stroke:none"
         id="text3487"><tspan
           x="0 8.888772"
           y="0"
           id="tspan3485">14</tspan></text></g><g
       id="g3489"><text
         transform="matrix(1,0,0,-1,591.987,286.696)"
         style="font-variant:normal;font-weight:normal;font-size:15.987px;font-family:'Liberation Sans';-inkscape-font-specification:LiberationSans;writing-mode:lr-tb;fill:#000000;fill-opacity:1;fill-rule:nonzero;stroke:none"
         id="text3493"><tspan
           x="0 5.291697 14.180469"
           y="0"
           id="tspan3491">-19</tspan></text></g><g
       id="g3495"><text
         transform="matrix(1,0,0,-1,478.29,251.093)"
         style="font-variant:normal;font-weight:normal;font-size:15.987px;font-family:'Liberation Sans';-inkscape-font-specification:LiberationSans;writing-mode:lr-tb;fill:#000000;fill-opacity:1;fill-rule:nonzero;stroke:none"
         id="text3499"><tspan
           x="0 10.679316 24.060434 35.555088 39.951511 49.639633 58.528408 67.417175"
           y="0"
           id="tspan3497">AMD Zen </tspan></text></g><g
       id="g3501"><text
         transform="matrix(1,0,0,-1,554.712,251.093)"
         style="font-variant:normal;font-weight:bold;font-size:15.987px;font-family:'Liberation Sans';-inkscape-font-specification:LiberationSans-Bold;writing-mode:lr-tb;fill:#000000;fill-opacity:1;fill-rule:nonzero;stroke:none"
         id="text3505"><tspan
           x="0 8.7928495"
           y="0"
           id="tspan3503">19</tspan></text></g><g
       id="g3507"><text
         transform="matrix(1,0,0,-1,478.29,233.291)"
         style="font-variant:normal;font-weight:normal;font-size:15.987px;font-family:'Liberation Sans';-inkscape-font-specification:LiberationSans;writing-mode:lr-tb;fill:#000000;fill-opacity:1;fill-rule:nonzero;stroke:none"
         id="text3511"><tspan
           x="0 10.679316 24.060434 35.555088 39.951511 49.639633 58.528408 67.417175 76.305954"
           y="0"
           id="tspan3509">AMD Zen2 </tspan></text></g><g
       id="g3513"><text
         transform="matrix(1,0,0,-1,559.106,233.291)"
         style="font-variant:normal;font-weight:bold;font-size:15.987px;font-family:'Liberation Sans';-inkscape-font-specification:LiberationSans-Bold;writing-mode:lr-tb;fill:#000000;fill-opacity:1;fill-rule:nonzero;stroke:none"
         id="text3517"><tspan
           x="0 8.888772"
           y="0"
           id="tspan3515">19</tspan></text></g></g></svg>
