<?xml version="1.0" encoding="UTF-8" standalone="no"?>
<svg
   xmlns:dc="http://purl.org/dc/elements/1.1/"
   xmlns:cc="http://creativecommons.org/ns#"
   xmlns:rdf="http://www.w3.org/1999/02/22-rdf-syntax-ns#"
   xmlns:svg="http://www.w3.org/2000/svg"
   xmlns="http://www.w3.org/2000/svg"
   width="194.39981mm"
   height="30.215134mm"
   viewBox="0 0 194.39981 30.215134"
   version="1.1"
   id="svg1704">
  <defs
     id="defs1698" />
  <metadata
     id="metadata1701">
    <rdf:RDF>
      <cc:Work
         rdf:about="">
        <dc:format>image/svg+xml</dc:format>
        <dc:type
           rdf:resource="http://purl.org/dc/dcmitype/StillImage" />
        <dc:title></dc:title>
      </cc:Work>
    </rdf:RDF>
  </metadata>
  <g
     id="layer1"
     transform="translate(135.9432,-56.091578)">
    <g
       id="g166"
       transform="matrix(0.35277777,0,0,-0.35277777,-161.37326,149.37159)">
      <text
         transform="matrix(1,0,0,-1,96.406,184.592)"
         style="font-variant:normal;font-weight:normal;font-size:15.987px;font-family:'Liberation Sans';-inkscape-font-specification:LiberationSans;writing-mode:lr-tb;fill:#000000;fill-opacity:1;fill-rule:nonzero;stroke:none"
         id="text170"><tspan
           x="0 4.3964248 14.180469 58.384525 62.860886 73.540199 131.0934 142.58806 152.27617 201.03653 211.71584 222.29924 275.45602 286.95065 296.63879 345.39914 356.8938 367.57309 424.91849 434.6066 446.10126 490.38522 505.46097 516.14032"
           y="0"
           id="tspan168">IF IS RF EX DF DS TC WB</tspan></text>
    </g>
    <g
       id="g330"
       transform="matrix(0.35277777,0,0,-0.35277777,-161.37326,149.37159)">
      <path
         d="M 284.825,230.287 209.622,230.4"
         style="fill:none;stroke:#000000;stroke-width:0.73699;stroke-linecap:butt;stroke-linejoin:miter;stroke-miterlimit:3.8637;stroke-dasharray:none;stroke-opacity:1"
         id="path332" />
    </g>
    <g
       id="g334"
       transform="matrix(0.35277777,0,0,-0.35277777,-161.37326,149.37159)">
      <path
         d="m 588.756,230.4 -279.213,0.113"
         style="fill:none;stroke:#000000;stroke-width:0.73699;stroke-linecap:butt;stroke-linejoin:miter;stroke-miterlimit:3.8637;stroke-dasharray:none;stroke-opacity:1"
         id="path336" />
    </g>
    <g
       id="g338"
       transform="matrix(0.35277777,0,0,-0.35277777,-161.37326,149.37159)">
      <path
         d="m 284.882,247.72 -0.113,-34.498"
         style="fill:none;stroke:#000000;stroke-width:0.73699;stroke-linecap:butt;stroke-linejoin:miter;stroke-miterlimit:3.8637;stroke-dasharray:none;stroke-opacity:1"
         id="path340" />
    </g>
    <g
       id="g342"
       transform="matrix(0.35277777,0,0,-0.35277777,-161.37326,149.37159)">
      <path
         d="m 284.882,247.776 13.011,-0.113"
         style="fill:none;stroke:#000000;stroke-width:0.73699;stroke-linecap:butt;stroke-linejoin:miter;stroke-miterlimit:3.8637;stroke-dasharray:none;stroke-opacity:1"
         id="path344" />
    </g>
    <g
       id="g346"
       transform="matrix(0.35277777,0,0,-0.35277777,-161.37326,149.37159)">
      <path
         d="m 284.882,213.279 13.011,-0.057"
         style="fill:none;stroke:#000000;stroke-width:0.73699;stroke-linecap:butt;stroke-linejoin:miter;stroke-miterlimit:3.8637;stroke-dasharray:none;stroke-opacity:1"
         id="path348" />
    </g>
    <path
       d="M 39.746758,76.481705 H 38.496866 V 59.591764 h 2.499783 v 16.889941 z"
       style="fill:#daedef;fill-opacity:1;fill-rule:evenodd;stroke:none;stroke-width:0.352778"
       id="path350" />
    <g
       id="g352"
       transform="matrix(0.35277777,0,0,-0.35277777,-161.37326,149.37159)">
      <path
         d="m 570.104,206.617 h -3.543 v 47.877 h 7.086 v -47.877 z"
         style="fill:none;stroke:#000000;stroke-width:0.73699;stroke-linecap:butt;stroke-linejoin:round;stroke-miterlimit:10;stroke-dasharray:none;stroke-opacity:1"
         id="path354" />
    </g>
    <path
       d="M 39.746758,60.301553 41.00688,59.021675 H 38.496866 Z"
       style="fill:#daedef;fill-opacity:1;fill-rule:evenodd;stroke:none;stroke-width:0.352778"
       id="path356" />
    <g
       id="g358"
       transform="matrix(0.35277777,0,0,-0.35277777,-161.37326,149.37159)">
      <path
         d="m 570.104,252.482 3.572,3.628 h -7.115 z"
         style="fill:none;stroke:#000000;stroke-width:0.73699;stroke-linecap:butt;stroke-linejoin:round;stroke-miterlimit:10;stroke-dasharray:none;stroke-opacity:1"
         id="path360" />
    </g>
    <path
       d="M -0.30339688,74.121622 H -31.963438 V 61.951495 h 63.320082 v 12.170127 z"
       style="fill:#daedef;fill-opacity:1;fill-rule:evenodd;stroke:none;stroke-width:0.352778"
       id="path362" />
    <g
       id="g364"
       transform="matrix(0.35277777,0,0,-0.35277777,-161.37326,149.37159)">
      <path
         d="m 456.576,213.307 h -89.745 v 34.498 h 179.49 v -34.498 z"
         style="fill:none;stroke:#000000;stroke-width:0.73699;stroke-linecap:butt;stroke-linejoin:round;stroke-miterlimit:10;stroke-dasharray:none;stroke-opacity:1"
         id="path366" />
    </g>
    <g
       id="g368"
       transform="matrix(0.35277777,0,0,-0.35277777,-161.37326,149.37159)">
      <text
         transform="matrix(1,0,0,-1,444.189,224.107)"
         style="font-variant:normal;font-weight:normal;font-size:15.987px;font-family:'Liberation Sans';-inkscape-font-specification:LiberationSans;writing-mode:lr-tb;fill:#000000;fill-opacity:1;fill-rule:nonzero;stroke:none"
         id="text372"><tspan
           x="0 11.494653"
           y="0"
           id="tspan370">DM</tspan></text>
    </g>
    <path
       d="m -38.413274,76.421733 h -1.249891 V 59.531439 h 2.499783 v 16.890294 z"
       style="fill:#daedef;fill-opacity:1;fill-rule:evenodd;stroke:none;stroke-width:0.352778"
       id="path374" />
    <g
       id="g376"
       transform="matrix(0.35277777,0,0,-0.35277777,-161.37326,149.37159)">
      <path
         d="m 348.548,206.787 h -3.543 v 47.878 h 7.086 v -47.878 z"
         style="fill:none;stroke:#000000;stroke-width:0.73699;stroke-linecap:butt;stroke-linejoin:round;stroke-miterlimit:10;stroke-dasharray:none;stroke-opacity:1"
         id="path378" />
    </g>
    <path
       d="m -38.413274,60.241581 1.260122,-1.279878 h -2.510013 z"
       style="fill:#daedef;fill-opacity:1;fill-rule:evenodd;stroke:none;stroke-width:0.352778"
       id="path380" />
    <g
       id="g382"
       transform="matrix(0.35277777,0,0,-0.35277777,-161.37326,149.37159)">
      <path
         d="m 348.548,252.652 3.572,3.628 h -7.115 z"
         style="fill:none;stroke:#000000;stroke-width:0.73699;stroke-linecap:butt;stroke-linejoin:round;stroke-miterlimit:10;stroke-dasharray:none;stroke-opacity:1"
         id="path384" />
    </g>
    <path
       d="M 51.326688,74.121622 H 46.316891 V 61.951495 h 10.009716 v 12.170127 z"
       style="fill:#daedef;fill-opacity:1;fill-rule:evenodd;stroke:none;stroke-width:0.352778"
       id="path386" />
    <g
       id="g388"
       transform="matrix(0.35277777,0,0,-0.35277777,-161.37326,149.37159)">
      <path
         d="m 602.929,213.307 h -14.201 v 34.498 h 28.374 v -34.498 z"
         style="fill:none;stroke:#000000;stroke-width:0.73699;stroke-linecap:butt;stroke-linejoin:round;stroke-miterlimit:10;stroke-dasharray:none;stroke-opacity:1"
         id="path390" />
    </g>
    <g
       id="g392"
       transform="matrix(0.35277777,0,0,-0.35277777,-161.37326,149.37159)">
      <text
         transform="matrix(1,0,0,-1,592.299,224.107)"
         style="font-variant:normal;font-weight:normal;font-size:15.987px;font-family:'Liberation Sans';-inkscape-font-specification:LiberationSans;writing-mode:lr-tb;fill:#000000;fill-opacity:1;fill-rule:nonzero;stroke:none"
         id="text396"><tspan
           x="0 11.494653"
           y="0"
           id="tspan394">RF</tspan></text>
    </g>
    <path
       d="M -110.61313,74.121622 H -133.8132 V 61.951495 h 46.399799 v 12.170127 z"
       style="fill:#daedef;fill-opacity:1;fill-rule:evenodd;stroke:none;stroke-width:0.352778"
       id="path398" />
    <g
       id="g400"
       transform="matrix(0.35277777,0,0,-0.35277777,-161.37326,149.37159)">
      <path
         d="M 143.887,213.307 H 78.123 v 34.498 H 209.65 v -34.498 z"
         style="fill:none;stroke:#000000;stroke-width:0.73699;stroke-linecap:butt;stroke-linejoin:round;stroke-miterlimit:10;stroke-dasharray:none;stroke-opacity:1"
         id="path402" />
    </g>
    <g
       id="g404"
       transform="matrix(0.35277777,0,0,-0.35277777,-161.37326,149.37159)">
      <text
         transform="matrix(1,0,0,-1,135.014,224.107)"
         style="font-variant:normal;font-weight:normal;font-size:15.987px;font-family:'Liberation Sans';-inkscape-font-specification:LiberationSans;writing-mode:lr-tb;fill:#000000;fill-opacity:1;fill-rule:nonzero;stroke:none"
         id="text408"><tspan
           x="0 4.4763598"
           y="0"
           id="tspan406">IM</tspan></text>
    </g>
    <path
       d="m -73.813112,74.121622 h -5.01015 V 61.951495 h 10.010069 v 12.170127 z"
       style="fill:#daedef;fill-opacity:1;fill-rule:evenodd;stroke:none;stroke-width:0.352778"
       id="path410" />
    <g
       id="g412"
       transform="matrix(0.35277777,0,0,-0.35277777,-161.37326,149.37159)">
      <path
         d="M 248.202,213.307 H 234 v 34.498 h 28.375 v -34.498 z"
         style="fill:none;stroke:#000000;stroke-width:0.73699;stroke-linecap:butt;stroke-linejoin:round;stroke-miterlimit:10;stroke-dasharray:none;stroke-opacity:1"
         id="path414" />
    </g>
    <g
       id="g416"
       transform="matrix(0.35277777,0,0,-0.35277777,-161.37326,149.37159)">
      <text
         transform="matrix(1,0,0,-1,238.904,224.901)"
         style="font-variant:normal;font-weight:normal;font-size:14.003px;font-family:'Liberation Sans';-inkscape-font-specification:LiberationSans;writing-mode:lr-tb;fill:#000000;fill-opacity:1;fill-rule:nonzero;stroke:none"
         id="text420"><tspan
           x="0 10.096163"
           y="0"
           id="tspan418">RF</tspan></text>
    </g>
    <path
       d="m -64.653237,76.481705 h -1.249892 V 59.591764 h 2.499784 v 16.889941 z"
       style="fill:#daedef;fill-opacity:1;fill-rule:evenodd;stroke:none;stroke-width:0.352778"
       id="path422" />
    <g
       id="g424"
       transform="matrix(0.35277777,0,0,-0.35277777,-161.37326,149.37159)">
      <path
         d="m 274.167,206.617 h -3.543 v 47.877 h 7.086 v -47.877 z"
         style="fill:none;stroke:#000000;stroke-width:0.73699;stroke-linecap:butt;stroke-linejoin:round;stroke-miterlimit:10;stroke-dasharray:none;stroke-opacity:1"
         id="path426" />
    </g>
    <path
       d="m -64.653237,60.301553 1.260122,-1.279878 h -2.510014 z"
       style="fill:#daedef;fill-opacity:1;fill-rule:evenodd;stroke:none;stroke-width:0.352778"
       id="path428" />
    <g
       id="g430"
       transform="matrix(0.35277777,0,0,-0.35277777,-161.37326,149.37159)">
      <path
         d="m 274.167,252.482 3.572,3.628 h -7.115 z"
         style="fill:none;stroke:#000000;stroke-width:0.73699;stroke-linecap:butt;stroke-linejoin:round;stroke-miterlimit:10;stroke-dasharray:none;stroke-opacity:1"
         id="path432" />
    </g>
    <path
       d="m -56.273354,58.641734 8.070144,5.289902 c -0.05009,2.829984 -0.08996,5.650089 -0.140052,8.469842 l -7.670095,5.040136 v -6.230056 l 2.250017,-2.910063 -2.250017,-3.179939 z"
       style="fill:#daedef;fill-opacity:1;fill-rule:evenodd;stroke:none;stroke-width:0.352778"
       id="path434" />
    <g
       id="g436"
       transform="matrix(0.35277777,0,0,-0.35277777,-161.37326,149.37159)">
      <path
         d="m 297.921,257.187 22.876,-14.995 c -0.142,-8.022 -0.255,-16.016 -0.397,-24.009 l -21.742,-14.287 v 17.66 l 6.378,8.249 -6.378,9.014 z"
         style="fill:none;stroke:#000000;stroke-width:0.73699;stroke-linecap:butt;stroke-linejoin:round;stroke-miterlimit:10;stroke-dasharray:none;stroke-opacity:1"
         id="path438" />
    </g>
    <path
       d="M -90.843106,75.681606 H -92.09335 V 58.791664 h 2.500136 v 16.889942 z"
       style="fill:#daedef;fill-opacity:1;fill-rule:evenodd;stroke:none;stroke-width:0.352778"
       id="path440" />
    <g
       id="g442"
       transform="matrix(0.35277777,0,0,-0.35277777,-161.37326,149.37159)">
      <path
         d="m 199.928,208.885 h -3.544 v 47.877 h 7.087 v -47.877 z"
         style="fill:none;stroke:#000000;stroke-width:0.73699;stroke-linecap:butt;stroke-linejoin:round;stroke-miterlimit:10;stroke-dasharray:none;stroke-opacity:1"
         id="path444" />
    </g>
    <path
       d="m -90.843106,59.501453 1.259769,-1.279878 h -2.510013 z"
       style="fill:#daedef;fill-opacity:1;fill-rule:evenodd;stroke:none;stroke-width:0.352778"
       id="path446" />
    <g
       id="g448"
       transform="matrix(0.35277777,0,0,-0.35277777,-161.37326,149.37159)">
      <path
         d="m 199.928,254.75 3.571,3.628 h -7.115 z"
         style="fill:none;stroke:#000000;stroke-width:0.73699;stroke-linecap:butt;stroke-linejoin:round;stroke-miterlimit:10;stroke-dasharray:none;stroke-opacity:1"
         id="path450" />
    </g>
    <path
       d="m -116.97336,75.681606 h -1.24989 V 58.791664 h 2.50014 v 16.889942 z"
       style="fill:#daedef;fill-opacity:1;fill-rule:evenodd;stroke:none;stroke-width:0.352778"
       id="path452" />
    <g
       id="g454"
       transform="matrix(0.35277777,0,0,-0.35277777,-161.37326,149.37159)">
      <path
         d="m 125.858,208.885 h -3.543 v 47.877 h 7.087 v -47.877 z"
         style="fill:none;stroke:#000000;stroke-width:0.73699;stroke-linecap:butt;stroke-linejoin:round;stroke-miterlimit:10;stroke-dasharray:none;stroke-opacity:1"
         id="path456" />
    </g>
    <path
       d="m -116.97336,59.501453 1.26013,-1.279878 h -2.51002 z"
       style="fill:#daedef;fill-opacity:1;fill-rule:evenodd;stroke:none;stroke-width:0.352778"
       id="path458" />
    <g
       id="g460"
       transform="matrix(0.35277777,0,0,-0.35277777,-161.37326,149.37159)">
      <path
         d="m 125.858,254.75 3.572,3.628 h -7.115 z"
         style="fill:none;stroke:#000000;stroke-width:0.73699;stroke-linecap:butt;stroke-linejoin:round;stroke-miterlimit:10;stroke-dasharray:none;stroke-opacity:1"
         id="path462" />
    </g>
    <path
       d="m -12.42343,76.421733 h -1.249892 V 59.531439 h 2.500136 v 16.890294 z"
       style="fill:#daedef;fill-opacity:1;fill-rule:evenodd;stroke:none;stroke-width:0.352778"
       id="path464" />
    <g
       id="g466"
       transform="matrix(0.35277777,0,0,-0.35277777,-161.37326,149.37159)">
      <path
         d="m 422.22,206.787 h -3.543 v 47.878 h 7.087 v -47.878 z"
         style="fill:none;stroke:#000000;stroke-width:0.73699;stroke-linecap:butt;stroke-linejoin:round;stroke-miterlimit:10;stroke-dasharray:none;stroke-opacity:1"
         id="path468" />
    </g>
    <path
       d="m -12.42343,60.241581 1.260122,-1.279878 h -2.510014 z"
       style="fill:#daedef;fill-opacity:1;fill-rule:evenodd;stroke:none;stroke-width:0.352778"
       id="path470" />
    <g
       id="g472"
       transform="matrix(0.35277777,0,0,-0.35277777,-161.37326,149.37159)">
      <path
         d="m 422.22,252.652 3.572,3.628 h -7.115 z"
         style="fill:none;stroke:#000000;stroke-width:0.73699;stroke-linecap:butt;stroke-linejoin:round;stroke-miterlimit:10;stroke-dasharray:none;stroke-opacity:1"
         id="path474" />
    </g>
    <path
       d="M 13.756561,76.521569 H 12.506669 V 59.631628 h 2.500137 v 16.889941 z"
       style="fill:#daedef;fill-opacity:1;fill-rule:evenodd;stroke:none;stroke-width:0.352778"
       id="path476" />
    <g
       id="g478"
       transform="matrix(0.35277777,0,0,-0.35277777,-161.37326,149.37159)">
      <path
         d="m 496.431,206.504 h -3.543 v 47.877 h 7.087 v -47.877 z"
         style="fill:none;stroke:#000000;stroke-width:0.73699;stroke-linecap:butt;stroke-linejoin:round;stroke-miterlimit:10;stroke-dasharray:none;stroke-opacity:1"
         id="path480" />
    </g>
    <path
       d="m 13.756561,60.341417 1.260122,-1.279878 h -2.510014 z"
       style="fill:#daedef;fill-opacity:1;fill-rule:evenodd;stroke:none;stroke-width:0.352778"
       id="path482" />
    <g
       id="g484"
       transform="matrix(0.35277777,0,0,-0.35277777,-161.37326,149.37159)">
      <path
         d="m 496.431,252.369 3.572,3.628 h -7.115 z"
         style="fill:none;stroke:#000000;stroke-width:0.73699;stroke-linecap:butt;stroke-linejoin:round;stroke-miterlimit:10;stroke-dasharray:none;stroke-opacity:1"
         id="path486" />
    </g>
  </g>
</svg>
