<?xml version="1.0" encoding="UTF-8" standalone="no"?>
<svg
   xmlns:dc="http://purl.org/dc/elements/1.1/"
   xmlns:cc="http://creativecommons.org/ns#"
   xmlns:rdf="http://www.w3.org/1999/02/22-rdf-syntax-ns#"
   xmlns:svg="http://www.w3.org/2000/svg"
   xmlns="http://www.w3.org/2000/svg"
   width="195.41516mm"
   height="29.958866mm"
   viewBox="0 0 195.41516 29.958866"
   version="1.1"
   id="svg1704">
  <defs
     id="defs1698" />
  <metadata
     id="metadata1701">
    <rdf:RDF>
      <cc:Work
         rdf:about="">
        <dc:format>image/svg+xml</dc:format>
        <dc:type
           rdf:resource="http://purl.org/dc/dcmitype/StillImage" />
        <dc:title></dc:title>
      </cc:Work>
    </rdf:RDF>
  </metadata>
  <g
     id="layer1"
     transform="translate(65.201626,-61.37176)">
    <g
       id="g122"
       transform="matrix(0.35277777,0,0,-0.35277777,-90.631687,209.59045)">
      <text
         transform="matrix(1,0,0,-1,141.392,340.894)"
         style="font-variant:normal;font-weight:normal;font-size:15.987px;font-family:'Liberation Sans';-inkscape-font-specification:LiberationSans;writing-mode:lr-tb;fill:#000000;fill-opacity:1;fill-rule:nonzero;stroke:none"
         id="text126"><tspan
           x="0 4.3964248 14.084547"
           y="0"
           id="tspan124">IF</tspan></text>
    </g>
    <g
       id="g128"
       transform="matrix(0.35277777,0,0,-0.35277777,-90.631687,209.59045)">
      <text
         transform="matrix(1,0,0,-1,239.8492,340.894)"
         style="font-variant:normal;font-weight:normal;font-size:15.987px;font-family:'Liberation Sans';-inkscape-font-specification:LiberationSans;writing-mode:lr-tb;fill:#000000;fill-opacity:1;fill-rule:nonzero;stroke:none"
         id="text132"><tspan
           x="0 4.4763598 15.971013 55.778645 66.457962"
           y="0"
           id="tspan130">ID EX</tspan></text>
    </g>
    <g
       id="g134"
       transform="matrix(0.35277777,0,0,-0.35277777,-90.631687,209.59045)">
      <text
         transform="matrix(1,0,0,-1,442.57999,340.894)"
         style="font-variant:normal;font-weight:normal;font-size:15.987px;font-family:'Liberation Sans';-inkscape-font-specification:LiberationSans;writing-mode:lr-tb;fill:#000000;fill-opacity:1;fill-rule:nonzero;stroke:none"
         id="text138"><tspan
           x="0 13.285197 23.964514 37.24971"
           y="0"
           id="tspan136">MEM</tspan></text>
    </g>
    <g
       id="g140"
       transform="matrix(0.35277777,0,0,-0.35277777,-90.631687,209.59045)">
      <text
         transform="matrix(1,0,0,-1,595.45278,340.894)"
         style="font-variant:normal;font-weight:normal;font-size:15.987px;font-family:'Liberation Sans';-inkscape-font-specification:LiberationSans;writing-mode:lr-tb;fill:#000000;fill-opacity:1;fill-rule:nonzero;stroke:none"
         id="text144"><tspan
           x="0 15.075741"
           y="0"
           id="tspan142">WB</tspan></text>
    </g>
    <g
       id="g208"
       transform="matrix(0.35277777,0,0,-0.35277777,-90.631687,209.59045)">
      <path
         d="m 209.792,387.638 75.09,-0.114"
         style="fill:none;stroke:#000000;stroke-width:0.73699;stroke-linecap:butt;stroke-linejoin:miter;stroke-miterlimit:3.8637;stroke-dasharray:none;stroke-opacity:1"
         id="path210" />
    </g>
    <g
       id="g212"
       transform="matrix(0.35277777,0,0,-0.35277777,-90.631687,209.59045)">
      <path
         d="m 588.756,387.383 -279.213,0.113"
         style="fill:none;stroke:#000000;stroke-width:0.73699;stroke-linecap:butt;stroke-linejoin:miter;stroke-miterlimit:3.8637;stroke-dasharray:none;stroke-opacity:1"
         id="path214" />
    </g>
    <g
       id="g216"
       transform="matrix(0.35277777,0,0,-0.35277777,-90.631687,209.59045)">
      <path
         d="m 284.882,404.702 -0.113,-34.497"
         style="fill:none;stroke:#000000;stroke-width:0.73699;stroke-linecap:butt;stroke-linejoin:miter;stroke-miterlimit:3.8637;stroke-dasharray:none;stroke-opacity:1"
         id="path218" />
    </g>
    <g
       id="g220"
       transform="matrix(0.35277777,0,0,-0.35277777,-90.631687,209.59045)">
      <path
         d="m 284.882,404.759 13.011,-0.113"
         style="fill:none;stroke:#000000;stroke-width:0.73699;stroke-linecap:butt;stroke-linejoin:miter;stroke-miterlimit:3.8637;stroke-dasharray:none;stroke-opacity:1"
         id="path222" />
    </g>
    <g
       id="g224"
       transform="matrix(0.35277777,0,0,-0.35277777,-90.631687,209.59045)">
      <path
         d="m 284.882,370.261 13.011,-0.056"
         style="fill:none;stroke:#000000;stroke-width:0.73699;stroke-linecap:butt;stroke-linejoin:miter;stroke-miterlimit:3.8637;stroke-dasharray:none;stroke-opacity:1"
         id="path226" />
    </g>
    <path
       d="m 110.48833,81.320453 h -1.24989 V 64.430512 h 2.49978 v 16.889941 z"
       style="fill:#daedef;fill-opacity:1;fill-rule:evenodd;stroke:none;stroke-width:0.352778"
       id="path228" />
    <g
       id="g230"
       transform="matrix(0.35277777,0,0,-0.35277777,-90.631687,209.59045)">
      <path
         d="m 570.104,363.6 h -3.543 v 47.877 h 7.086 V 363.6 Z"
         style="fill:none;stroke:#000000;stroke-width:0.73699;stroke-linecap:butt;stroke-linejoin:round;stroke-miterlimit:10;stroke-dasharray:none;stroke-opacity:1"
         id="path232" />
    </g>
    <path
       d="m 110.48833,65.1403 1.26012,-1.279877 h -2.51001 z"
       style="fill:#daedef;fill-opacity:1;fill-rule:evenodd;stroke:none;stroke-width:0.352778"
       id="path234" />
    <g
       id="g236"
       transform="matrix(0.35277777,0,0,-0.35277777,-90.631687,209.59045)">
      <path
         d="m 570.104,409.465 3.572,3.628 h -7.115 z"
         style="fill:none;stroke:#000000;stroke-width:0.73699;stroke-linecap:butt;stroke-linejoin:round;stroke-miterlimit:10;stroke-dasharray:none;stroke-opacity:1"
         id="path238" />
    </g>
    <path
       d="M 70.438176,78.96037 H 38.778135 V 66.790595 H 102.09822 V 78.96037 Z"
       style="fill:#daedef;fill-opacity:1;fill-rule:evenodd;stroke:none;stroke-width:0.352778"
       id="path240" />
    <g
       id="g242"
       transform="matrix(0.35277777,0,0,-0.35277777,-90.631687,209.59045)">
      <path
         d="m 456.576,370.29 h -89.745 v 34.497 h 179.49 V 370.29 Z"
         style="fill:none;stroke:#000000;stroke-width:0.73699;stroke-linecap:butt;stroke-linejoin:round;stroke-miterlimit:10;stroke-dasharray:none;stroke-opacity:1"
         id="path244" />
    </g>
    <g
       id="g246"
       transform="matrix(0.35277777,0,0,-0.35277777,-90.631687,209.59045)">
      <text
         transform="matrix(1,0,0,-1,444.189,381.09)"
         style="font-variant:normal;font-weight:normal;font-size:15.987px;font-family:'Liberation Sans';-inkscape-font-specification:LiberationSans;writing-mode:lr-tb;fill:#000000;fill-opacity:1;fill-rule:nonzero;stroke:none"
         id="text250"><tspan
           x="0 11.494653"
           y="0"
           id="tspan248">DM</tspan></text>
    </g>
    <path
       d="M 32.328299,81.260481 H 31.078408 V 64.370539 h 2.499783 v 16.889942 z"
       style="fill:#daedef;fill-opacity:1;fill-rule:evenodd;stroke:none;stroke-width:0.352778"
       id="path252" />
    <g
       id="g254"
       transform="matrix(0.35277777,0,0,-0.35277777,-90.631687,209.59045)">
      <path
         d="m 348.548,363.77 h -3.543 v 47.877 h 7.086 V 363.77 Z"
         style="fill:none;stroke:#000000;stroke-width:0.73699;stroke-linecap:butt;stroke-linejoin:round;stroke-miterlimit:10;stroke-dasharray:none;stroke-opacity:1"
         id="path256" />
    </g>
    <path
       d="M 32.328299,65.080328 33.588421,63.80045 H 31.078408 Z"
       style="fill:#daedef;fill-opacity:1;fill-rule:evenodd;stroke:none;stroke-width:0.352778"
       id="path258" />
    <g
       id="g260"
       transform="matrix(0.35277777,0,0,-0.35277777,-90.631687,209.59045)">
      <path
         d="m 348.548,409.635 3.572,3.628 h -7.115 z"
         style="fill:none;stroke:#000000;stroke-width:0.73699;stroke-linecap:butt;stroke-linejoin:round;stroke-miterlimit:10;stroke-dasharray:none;stroke-opacity:1"
         id="path262" />
    </g>
    <path
       d="m 122.06826,78.96037 h -5.0098 V 66.790595 h 10.00972 V 78.96037 Z"
       style="fill:#daedef;fill-opacity:1;fill-rule:evenodd;stroke:none;stroke-width:0.352778"
       id="path264" />
    <g
       id="g266"
       transform="matrix(0.35277777,0,0,-0.35277777,-90.631687,209.59045)">
      <path
         d="m 602.929,370.29 h -14.201 v 34.497 h 28.374 V 370.29 Z"
         style="fill:none;stroke:#000000;stroke-width:0.73699;stroke-linecap:butt;stroke-linejoin:round;stroke-miterlimit:10;stroke-dasharray:none;stroke-opacity:1"
         id="path268" />
    </g>
    <g
       id="g270"
       transform="matrix(0.35277777,0,0,-0.35277777,-90.631687,209.59045)">
      <text
         transform="matrix(1,0,0,-1,592.299,381.09)"
         style="font-variant:normal;font-weight:normal;font-size:15.987px;font-family:'Liberation Sans';-inkscape-font-specification:LiberationSans;writing-mode:lr-tb;fill:#000000;fill-opacity:1;fill-rule:nonzero;stroke:none"
         id="text274"><tspan
           x="0 11.494653"
           y="0"
           id="tspan272">RF</tspan></text>
    </g>
    <path
       d="M -39.871552,78.96037 H -63.071629 V 66.790595 h 46.399801 V 78.96037 Z"
       style="fill:#daedef;fill-opacity:1;fill-rule:evenodd;stroke:none;stroke-width:0.352778"
       id="path276" />
    <g
       id="g278"
       transform="matrix(0.35277777,0,0,-0.35277777,-90.631687,209.59045)">
      <path
         d="M 143.887,370.29 H 78.123 v 34.497 H 209.65 V 370.29 Z"
         style="fill:none;stroke:#000000;stroke-width:0.73699;stroke-linecap:butt;stroke-linejoin:round;stroke-miterlimit:10;stroke-dasharray:none;stroke-opacity:1"
         id="path280" />
    </g>
    <g
       id="g282"
       transform="matrix(0.35277777,0,0,-0.35277777,-90.631687,209.59045)">
      <text
         transform="matrix(1,0,0,-1,135.014,381.09)"
         style="font-variant:normal;font-weight:normal;font-size:15.987px;font-family:'Liberation Sans';-inkscape-font-specification:LiberationSans;writing-mode:lr-tb;fill:#000000;fill-opacity:1;fill-rule:nonzero;stroke:none"
         id="text286"><tspan
           x="0 4.4763598"
           y="0"
           id="tspan284">IM</tspan></text>
    </g>
    <path
       d="M -3.0715389,78.96037 H -8.0816888 V 66.790595 H 1.9283804 V 78.96037 Z"
       style="fill:#daedef;fill-opacity:1;fill-rule:evenodd;stroke:none;stroke-width:0.352778"
       id="path288" />
    <g
       id="g290"
       transform="matrix(0.35277777,0,0,-0.35277777,-90.631687,209.59045)">
      <path
         d="M 248.202,370.29 H 234 v 34.497 h 28.375 V 370.29 Z"
         style="fill:none;stroke:#000000;stroke-width:0.73699;stroke-linecap:butt;stroke-linejoin:round;stroke-miterlimit:10;stroke-dasharray:none;stroke-opacity:1"
         id="path292" />
    </g>
    <g
       id="g294"
       transform="matrix(0.35277777,0,0,-0.35277777,-90.631687,209.59045)">
      <text
         transform="matrix(1,0,0,-1,238.904,381.912)"
         style="font-variant:normal;font-weight:normal;font-size:14.003px;font-family:'Liberation Sans';-inkscape-font-specification:LiberationSans;writing-mode:lr-tb;fill:#000000;fill-opacity:1;fill-rule:nonzero;stroke:none"
         id="text298"><tspan
           x="0 10.096163"
           y="0"
           id="tspan296">RF</tspan></text>
    </g>
    <path
       d="m 14.468219,63.480481 8.070144,5.289903 c -0.05009,2.829983 -0.08996,5.650088 -0.140052,8.470194 l -7.670095,5.039783 v -6.230055 l 2.250017,-2.909711 -2.250017,-3.180292 z"
       style="fill:#daedef;fill-opacity:1;fill-rule:evenodd;stroke:none;stroke-width:0.352778"
       id="path300" />
    <g
       id="g302"
       transform="matrix(0.35277777,0,0,-0.35277777,-90.631687,209.59045)">
      <path
         d="m 297.921,414.17 22.876,-14.995 c -0.142,-8.022 -0.255,-16.016 -0.397,-24.01 l -21.742,-14.286 v 17.66 l 6.378,8.248 -6.378,9.015 z"
         style="fill:none;stroke:#000000;stroke-width:0.73699;stroke-linecap:butt;stroke-linejoin:round;stroke-miterlimit:10;stroke-dasharray:none;stroke-opacity:1"
         id="path304" />
    </g>
    <path
       d="m -11.441544,81.330331 h -1.250245 V 64.430512 h 2.500136 v 16.899819 z"
       style="fill:#daedef;fill-opacity:1;fill-rule:evenodd;stroke:none;stroke-width:0.352778"
       id="path306" />
    <g
       id="g308"
       transform="matrix(0.35277777,0,0,-0.35277777,-90.631687,209.59045)">
      <path
         d="m 224.476,363.572 h -3.544 v 47.905 h 7.087 v -47.905 z"
         style="fill:none;stroke:#000000;stroke-width:0.73699;stroke-linecap:butt;stroke-linejoin:round;stroke-miterlimit:10;stroke-dasharray:none;stroke-opacity:1"
         id="path310" />
    </g>
    <path
       d="m -11.441544,65.130423 1.259769,-1.279878 h -2.510014 z"
       style="fill:#daedef;fill-opacity:1;fill-rule:evenodd;stroke:none;stroke-width:0.352778"
       id="path312" />
    <g
       id="g314"
       transform="matrix(0.35277777,0,0,-0.35277777,-90.631687,209.59045)">
      <path
         d="m 224.476,409.493 3.571,3.628 h -7.115 z"
         style="fill:none;stroke:#000000;stroke-width:0.73699;stroke-linecap:butt;stroke-linejoin:round;stroke-miterlimit:10;stroke-dasharray:none;stroke-opacity:1"
         id="path316" />
    </g>
    <path
       d="M 5.7581359,81.280589 H 4.5082442 V 64.380417 h 2.5001361 v 16.900172 z"
       style="fill:#daedef;fill-opacity:1;fill-rule:evenodd;stroke:none;stroke-width:0.352778"
       id="path318" />
    <g
       id="g320"
       transform="matrix(0.35277777,0,0,-0.35277777,-90.631687,209.59045)">
      <path
         d="m 273.231,363.713 h -3.543 v 47.906 h 7.087 v -47.906 z"
         style="fill:none;stroke:#000000;stroke-width:0.73699;stroke-linecap:butt;stroke-linejoin:round;stroke-miterlimit:10;stroke-dasharray:none;stroke-opacity:1"
         id="path322" />
    </g>
    <path
       d="M 5.7581359,65.080328 7.0182581,63.80045 H 4.5082442 Z"
       style="fill:#daedef;fill-opacity:1;fill-rule:evenodd;stroke:none;stroke-width:0.352778"
       id="path324" />
    <g
       id="g326"
       transform="matrix(0.35277777,0,0,-0.35277777,-90.631687,209.59045)">
      <path
         d="m 273.231,409.635 3.572,3.628 h -7.115 z"
         style="fill:none;stroke:#000000;stroke-width:0.73699;stroke-linecap:butt;stroke-linejoin:round;stroke-miterlimit:10;stroke-dasharray:none;stroke-opacity:1"
         id="path328" />
    </g>
  </g>
</svg>
