<?xml version="1.0" encoding="UTF-8" standalone="no"?>
<!-- Created with Inkscape (http://www.inkscape.org/) -->

<svg
   xmlns:dc="http://purl.org/dc/elements/1.1/"
   xmlns:cc="http://creativecommons.org/ns#"
   xmlns:rdf="http://www.w3.org/1999/02/22-rdf-syntax-ns#"
   xmlns:svg="http://www.w3.org/2000/svg"
   xmlns="http://www.w3.org/2000/svg"
   xmlns:xlink="http://www.w3.org/1999/xlink"
   xmlns:sodipodi="http://sodipodi.sourceforge.net/DTD/sodipodi-0.dtd"
   xmlns:inkscape="http://www.inkscape.org/namespaces/inkscape"
   width="114.35545mm"
   height="82.613113mm"
   viewBox="0 0 114.35545 82.613113"
   version="1.1"
   id="svg5253"
   inkscape:version="0.92.5 (2060ec1f9f, 2020-04-08)"
   sodipodi:docname="d_latch_e1.svg">
  <defs
     id="defs5247">
    <marker
       inkscape:isstock="true"
       style="overflow:visible"
       id="marker10697"
       refX="0"
       refY="0"
       orient="auto"
       inkscape:stockid="DotM">
      <path
         transform="matrix(0.4,0,0,0.4,2.96,0.4)"
         style="fill:#ff0000;fill-opacity:1;fill-rule:evenodd;stroke:#ff0000;stroke-width:1.00000003pt;stroke-opacity:1"
         d="m -2.5,-1 c 0,2.76 -2.24,5 -5,5 -2.76,0 -5,-2.24 -5,-5 0,-2.76 2.24,-5 5,-5 2.76,0 5,2.24 5,5 z"
         id="path10695"
         inkscape:connector-curvature="0" />
    </marker>
    <marker
       inkscape:stockid="DotM"
       orient="auto"
       refY="0"
       refX="0"
       id="marker10651"
       style="overflow:visible"
       inkscape:isstock="true"
       inkscape:collect="always">
      <path
         id="path10649"
         d="m -2.5,-1 c 0,2.76 -2.24,5 -5,5 -2.76,0 -5,-2.24 -5,-5 0,-2.76 2.24,-5 5,-5 2.76,0 5,2.24 5,5 z"
         style="fill:#00ff00;fill-opacity:1;fill-rule:evenodd;stroke:#00ff00;stroke-width:1.00000003pt;stroke-opacity:1"
         transform="matrix(0.4,0,0,0.4,2.96,0.4)"
         inkscape:connector-curvature="0" />
    </marker>
    <marker
       inkscape:isstock="true"
       style="overflow:visible"
       id="marker10611"
       refX="0"
       refY="0"
       orient="auto"
       inkscape:stockid="DotM"
       inkscape:collect="always">
      <path
         transform="matrix(0.4,0,0,0.4,2.96,0.4)"
         style="fill:#00ff00;fill-opacity:1;fill-rule:evenodd;stroke:#00ff00;stroke-width:1.00000003pt;stroke-opacity:1"
         d="m -2.5,-1 c 0,2.76 -2.24,5 -5,5 -2.76,0 -5,-2.24 -5,-5 0,-2.76 2.24,-5 5,-5 2.76,0 5,2.24 5,5 z"
         id="path10609"
         inkscape:connector-curvature="0" />
    </marker>
    <marker
       inkscape:stockid="DotM"
       orient="auto"
       refY="0"
       refX="0"
       id="DotM"
       style="overflow:visible"
       inkscape:isstock="true"
       inkscape:collect="always">
      <path
         id="path9977"
         d="m -2.5,-1 c 0,2.76 -2.24,5 -5,5 -2.76,0 -5,-2.24 -5,-5 0,-2.76 2.24,-5 5,-5 2.76,0 5,2.24 5,5 z"
         style="fill:#00ff00;fill-opacity:1;fill-rule:evenodd;stroke:#00ff00;stroke-width:1.00000003pt;stroke-opacity:1"
         transform="matrix(0.4,0,0,0.4,2.96,0.4)"
         inkscape:connector-curvature="0" />
    </marker>
    <symbol
       id="And_Gate">
      <title
         id="title7606">And Gate</title>
      <path
         style="stroke-width:0.26458332"
         inkscape:connector-curvature="0"
         d="M 6.6145833,18.520833 V 15.875 13.229167 10.583333 7.9375 h 7.9374997 c 2.922507,0 5.291667,2.36916 5.291667,5.291667 0,2.922506 -2.36916,5.291666 -5.291667,5.291666 z"
         id="path7608" />
    </symbol>
    <symbol
       id="Not_Gate">
      <title
         id="title7616">Not Gate</title>
      <path
         inkscape:connector-curvature="0"
         style="stroke-width:0.26458332;stroke-miterlimit:2"
         d="M 6.6145833,7.9375 19.84375,13.229167 6.6145833,18.520833 v -5.291666 z"
         id="path7618" />
      <path
         style="stroke-width:0.26458332"
         inkscape:connector-curvature="0"
         d="m 21.166667,13.229167 c 0,0.365313 -0.296145,0.661458 -0.661459,0.661458 -0.365313,0 -0.661458,-0.296145 -0.661458,-0.661458 0,-0.365314 0.296145,-0.661459 0.661458,-0.661459 0.365314,0 0.661459,0.296145 0.661459,0.661459 z"
         id="path7620" />
    </symbol>
    <symbol
       id="Nor_Gate">
      <title
         id="title7587">Nor Gate</title>
      <path
         style="stroke-width:0.26458332"
         inkscape:connector-curvature="0"
         d="M 6.5236328,18.520833 H 11.90625 c 5.291667,0 7.9375,-5.291666 7.9375,-5.291666 0,0 -1.322917,-5.291667 -7.9375,-5.291667 H 6.5236328 c 0.4735846,0.8186706 0.8337984,1.7074809 1.0748698,2.645833 0.2173208,0.845905 0.3389974,1.731915 0.3389974,2.645834 0,0.913918 -0.1216766,1.799928 -0.3389974,2.645833 -0.2410714,0.938352 -0.6012852,1.827163 -1.0748698,2.645833 z"
         id="path7589" />
      <path
         style="stroke-width:0.26458332"
         inkscape:connector-curvature="0"
         d="m 21.166667,13.229167 c 0,0.365313 -0.296145,0.661458 -0.661459,0.661458 -0.365313,0 -0.661458,-0.296145 -0.661458,-0.661458 0,-0.365314 0.296145,-0.661459 0.661458,-0.661459 0.365314,0 0.661459,0.296145 0.661459,0.661459 z"
         id="path7591" />
    </symbol>
    <symbol
       id="Nand_Gate">
      <title
         id="title2685">Nand Gate</title>
      <path
         style="stroke-width:0.26458332"
         inkscape:connector-curvature="0"
         d="M 6.6145833,18.520833 V 15.875 13.229167 10.583333 7.9375 h 7.9374997 c 2.922507,0 5.291667,2.36916 5.291667,5.291667 0,2.922506 -2.36916,5.291666 -5.291667,5.291666 z"
         id="path2687" />
      <path
         style="stroke-width:0.26458332"
         inkscape:connector-curvature="0"
         d="m 21.166667,13.229167 c 0,0.365313 -0.296145,0.661458 -0.661459,0.661458 -0.365313,0 -0.661458,-0.296145 -0.661458,-0.661458 0,-0.365314 0.296145,-0.661459 0.661458,-0.661459 0.365314,0 0.661459,0.296145 0.661459,0.661459 z"
         id="path2689" />
    </symbol>
    <marker
       inkscape:isstock="true"
       style="overflow:visible"
       id="marker10697-1"
       refX="0"
       refY="0"
       orient="auto"
       inkscape:stockid="DotM">
      <path
         transform="matrix(0.4,0,0,0.4,2.96,0.4)"
         style="fill:#00ff00;fill-opacity:1;fill-rule:evenodd;stroke:#00ff00;stroke-width:1.00000003pt;stroke-opacity:1"
         d="m -2.5,-1 c 0,2.76 -2.24,5 -5,5 -2.76,0 -5,-2.24 -5,-5 0,-2.76 2.24,-5 5,-5 2.76,0 5,2.24 5,5 z"
         id="path10695-2"
         inkscape:connector-curvature="0" />
    </marker>
    <marker
       inkscape:stockid="DotM"
       orient="auto"
       refY="0"
       refX="0"
       id="marker10651-7"
       style="overflow:visible"
       inkscape:isstock="true"
       inkscape:collect="always">
      <path
         id="path10649-0"
         d="m -2.5,-1 c 0,2.76 -2.24,5 -5,5 -2.76,0 -5,-2.24 -5,-5 0,-2.76 2.24,-5 5,-5 2.76,0 5,2.24 5,5 z"
         style="fill:#ff0200;fill-opacity:1;fill-rule:evenodd;stroke:#ff0200;stroke-width:1.00000003pt;stroke-opacity:1"
         transform="matrix(0.4,0,0,0.4,2.96,0.4)"
         inkscape:connector-curvature="0" />
    </marker>
    <marker
       inkscape:isstock="true"
       style="overflow:visible"
       id="marker10611-9"
       refX="0"
       refY="0"
       orient="auto"
       inkscape:stockid="DotM"
       inkscape:collect="always">
      <path
         transform="matrix(0.4,0,0,0.4,2.96,0.4)"
         style="fill:#00ff00;fill-opacity:1;fill-rule:evenodd;stroke:#00ff00;stroke-width:1.00000003pt;stroke-opacity:1"
         d="m -2.5,-1 c 0,2.76 -2.24,5 -5,5 -2.76,0 -5,-2.24 -5,-5 0,-2.76 2.24,-5 5,-5 2.76,0 5,2.24 5,5 z"
         id="path10609-3"
         inkscape:connector-curvature="0" />
    </marker>
    <marker
       inkscape:stockid="DotM"
       orient="auto"
       refY="0"
       refX="0"
       id="DotM-6"
       style="overflow:visible"
       inkscape:isstock="true"
       inkscape:collect="always">
      <path
         id="path9977-0"
         d="m -2.5,-1 c 0,2.76 -2.24,5 -5,5 -2.76,0 -5,-2.24 -5,-5 0,-2.76 2.24,-5 5,-5 2.76,0 5,2.24 5,5 z"
         style="fill:#ff0000;fill-opacity:1;fill-rule:evenodd;stroke:#ff0000;stroke-width:1.00000003pt;stroke-opacity:1"
         transform="matrix(0.4,0,0,0.4,2.96,0.4)"
         inkscape:connector-curvature="0" />
    </marker>
  </defs>
  <sodipodi:namedview
     id="base"
     pagecolor="#ffffff"
     bordercolor="#666666"
     borderopacity="1.0"
     inkscape:pageopacity="0.0"
     inkscape:pageshadow="2"
     inkscape:zoom="1.979899"
     inkscape:cx="244.58383"
     inkscape:cy="87.007023"
     inkscape:document-units="mm"
     inkscape:current-layer="layer1"
     showgrid="true"
     inkscape:window-width="1848"
     inkscape:window-height="1136"
     inkscape:window-x="72"
     inkscape:window-y="27"
     inkscape:window-maximized="1"
     fit-margin-top="0"
     fit-margin-left="0"
     fit-margin-right="0"
     fit-margin-bottom="0">
    <inkscape:grid
       type="xygrid"
       id="grid9730"
       originx="-26.410787"
       originy="-159.67603" />
  </sodipodi:namedview>
  <metadata
     id="metadata5250">
    <rdf:RDF>
      <cc:Work
         rdf:about="">
        <dc:format>image/svg+xml</dc:format>
        <dc:type
           rdf:resource="http://purl.org/dc/dcmitype/StillImage" />
        <dc:title></dc:title>
      </cc:Work>
    </rdf:RDF>
  </metadata>
  <g
     inkscape:label="Layer 1"
     inkscape:groupmode="layer"
     id="layer1"
     transform="translate(-26.410788,-54.710851)">
    <use
       id="use9841"
       style="fill:none;stroke:#000000;stroke-width:2"
       xlink:href="#Not_Gate"
       x="0"
       y="0"
       width="100%"
       height="100%"
       transform="translate(34.395833,46.96875)" />
    <path
       style="fill:none;stroke:#00ff00;stroke-width:0.26458332px;stroke-linecap:butt;stroke-linejoin:miter;stroke-opacity:1"
       d="m 66.145833,90.624993 -39.6875,7e-6"
       id="path9909"
       inkscape:connector-curvature="0"
       sodipodi:nodetypes="cc" />
    <path
       style="fill:none;stroke:#00ff00;stroke-width:0.26499999;stroke-linecap:butt;stroke-linejoin:miter;stroke-miterlimit:4;stroke-dasharray:none;stroke-opacity:1;marker-end:url(#DotM)"
       d="M 41.010417,60.197917 H 34.395833 V 90.625"
       id="path9911"
       inkscape:connector-curvature="0"
       sodipodi:nodetypes="ccc" />
    <path
       style="fill:none;stroke:#ff0000;stroke-width:0.26458332px;stroke-linecap:butt;stroke-linejoin:miter;stroke-opacity:1"
       d="m 55.5625,60.197917 10.583333,-7e-6"
       id="path10195"
       inkscape:connector-curvature="0"
       sodipodi:nodetypes="cc" />
    <path
       style="fill:none;stroke:#00ff00;stroke-width:0.26458332px;stroke-linecap:butt;stroke-linejoin:miter;stroke-opacity:1"
       d="m 48.947916,74.75 h 7.9375 v 10.583334 l 9.260417,-7e-6"
       id="path10599"
       inkscape:connector-curvature="0"
       sodipodi:nodetypes="cccc" />
    <path
       style="fill:none;stroke:#00ff00;stroke-width:0.26458332px;stroke-linecap:butt;stroke-linejoin:miter;stroke-opacity:1;marker-start:url(#marker10611)"
       d="m 56.885416,74.75 v -9.260416 l 9.260417,-7e-6"
       id="path10601"
       inkscape:connector-curvature="0"
       sodipodi:nodetypes="ccc" />
    <path
       style="fill:none;stroke:#00ff00;stroke-width:0.26458332px;stroke-linecap:butt;stroke-linejoin:miter;stroke-opacity:1"
       d="m 80.697916,62.843751 19.843754,-8e-6"
       id="path10637"
       inkscape:connector-curvature="0"
       sodipodi:nodetypes="cc" />
    <path
       style="fill:none;stroke:#ff0000;stroke-width:0.26458332px;stroke-linecap:butt;stroke-linejoin:miter;stroke-opacity:1"
       d="m 80.697916,87.979167 19.843754,-7e-6"
       id="path10639"
       inkscape:connector-curvature="0"
       sodipodi:nodetypes="cc" />
    <path
       style="fill:none;stroke:#00ff00;stroke-width:0.26458332px;stroke-linecap:butt;stroke-linejoin:miter;stroke-opacity:1;marker-end:url(#marker10651)"
       d="m 100.54167,68.13541 -5.291671,7e-6 v 3.96875 l 23.812501,9.260417 v 3.96875"
       id="path10641"
       inkscape:connector-curvature="0"
       sodipodi:nodetypes="ccccc" />
    <path
       style="fill:none;stroke:#00ff00;stroke-width:0.26458332px;stroke-linecap:butt;stroke-linejoin:miter;stroke-opacity:1"
       d="M 115.09375,85.333327 127,85.333334"
       id="path10683"
       inkscape:connector-curvature="0"
       sodipodi:nodetypes="cc" />
    <path
       style="fill:none;stroke:#ff0000;stroke-width:0.26458332px;stroke-linecap:butt;stroke-linejoin:miter;stroke-opacity:1"
       d="M 115.09375,65.489577 127,65.489584"
       id="path10685"
       inkscape:connector-curvature="0"
       sodipodi:nodetypes="cc" />
    <path
       style="fill:none;stroke:#ff0000;stroke-width:0.26458332px;stroke-linecap:butt;stroke-linejoin:miter;stroke-opacity:1;marker-end:url(#marker10697)"
       d="m 100.54167,82.687493 -5.291671,7e-6 V 78.71875 L 119.0625,69.458334 v -3.96875"
       id="path10687"
       inkscape:connector-curvature="0"
       sodipodi:nodetypes="ccccc" />
    <text
       xml:space="preserve"
       style="font-style:normal;font-variant:normal;font-weight:normal;font-stretch:normal;font-size:4.23333311px;line-height:1.25;font-family:'Bitstream Vera Sans Mono';-inkscape-font-specification:'Bitstream Vera Sans Mono';letter-spacing:0px;word-spacing:0px;fill:#000000;fill-opacity:1;stroke:none;stroke-width:0.26458332"
       x="26.127604"
       y="88.735115"
       id="text10737"><tspan
         sodipodi:role="line"
         id="tspan10735"
         x="26.127604"
         y="88.735115"
         style="stroke-width:0.26458332">D=<tspan
   style="fill:#66ff00"
   id="tspan5242">1</tspan></tspan></text>
    <text
       xml:space="preserve"
       style="font-style:normal;font-variant:normal;font-weight:normal;font-stretch:normal;font-size:4.23333311px;line-height:1.25;font-family:'Bitstream Vera Sans Mono';-inkscape-font-specification:'Bitstream Vera Sans Mono';letter-spacing:0px;word-spacing:0px;fill:#000000;fill-opacity:1;stroke:none;stroke-width:0.26458332"
       x="48.41338"
       y="73.427086"
       id="text10741"><tspan
         sodipodi:role="line"
         id="tspan10739"
         x="48.41338"
         y="73.427086"
         style="stroke-width:0.26458332">E=<tspan
   style="fill:#66ff00"
   id="tspan5298">1</tspan></tspan></text>
    <text
       xml:space="preserve"
       style="font-style:normal;font-variant:normal;font-weight:normal;font-stretch:normal;font-size:4.23333311px;line-height:1.25;font-family:'Bitstream Vera Sans Mono';-inkscape-font-specification:'Bitstream Vera Sans Mono';letter-spacing:0px;word-spacing:0px;fill:#000000;fill-opacity:1;stroke:none;stroke-width:0.26458332"
       x="124.23396"
       y="64.046463"
       id="text10745"><tspan
         sodipodi:role="line"
         id="tspan10743"
         x="124.23396"
         y="64.046463"
         style="stroke-width:0.26458332">Q</tspan></text>
    <text
       xml:space="preserve"
       style="font-style:normal;font-variant:normal;font-weight:normal;font-stretch:normal;font-size:4.23333311px;line-height:1.25;font-family:'Bitstream Vera Sans Mono';-inkscape-font-specification:'Bitstream Vera Sans Mono';letter-spacing:0px;word-spacing:0px;fill:#000000;fill-opacity:1;stroke:none;stroke-width:0.26458332"
       x="124.23396"
       y="84.077232"
       id="text10749"><tspan
         sodipodi:role="line"
         id="tspan10747"
         x="124.23396"
         y="84.077232"
         style="stroke-width:0.26458332">Q</tspan></text>
    <path
       style="fill:none;stroke:#000000;stroke-width:0.26458332px;stroke-linecap:butt;stroke-linejoin:miter;stroke-opacity:1"
       d="m 124.61875,60.462493 h 1.85208"
       id="path10817"
       inkscape:connector-curvature="0"
       sodipodi:nodetypes="cc" />
    <use
       id="use4911"
       transform="translate(59.53125,49.614576)"
       style="fill:none;stroke:#000000;stroke-width:2"
       xlink:href="#Nand_Gate"
       x="0"
       y="0"
       width="100%"
       height="100%" />
    <use
       id="use4939"
       transform="translate(59.663541,75.014582)"
       style="fill:none;stroke:#000000;stroke-width:2"
       xlink:href="#Nand_Gate"
       x="0"
       y="0"
       width="100%"
       height="100%" />
    <use
       id="use4963"
       transform="translate(93.927083,52.26041)"
       style="fill:none;stroke:#000000;stroke-width:2"
       xlink:href="#Nand_Gate"
       x="0"
       y="0"
       width="100%"
       height="100%" />
    <use
       id="use5001"
       transform="translate(93.927083,72.10416)"
       style="fill:none;stroke:#000000;stroke-width:2"
       xlink:href="#Nand_Gate"
       x="0"
       y="0"
       width="100%"
       height="100%" />
    <use
       id="use9841-6"
       style="fill:none;stroke:#000000;stroke-width:2"
       xlink:href="#Not_Gate"
       x="0"
       y="0"
       width="100%"
       height="100%"
       transform="translate(34.395829,90.625)" />
    <path
       style="fill:none;stroke:#ff0000;stroke-width:0.26458332px;stroke-linecap:butt;stroke-linejoin:miter;stroke-opacity:1"
       d="M 66.145833,134.28125 H 26.45833"
       id="path9909-2"
       inkscape:connector-curvature="0"
       sodipodi:nodetypes="cc" />
    <path
       style="fill:none;stroke:#ff0000;stroke-width:0.26499999;stroke-linecap:butt;stroke-linejoin:miter;stroke-miterlimit:4;stroke-dasharray:none;stroke-opacity:1;marker-end:url(#DotM-6)"
       d="M 41.010414,103.85417 H 34.39583 v 30.42708"
       id="path9911-6"
       inkscape:connector-curvature="0"
       sodipodi:nodetypes="ccc" />
    <path
       style="fill:none;stroke:#00ff00;stroke-width:0.26458332px;stroke-linecap:butt;stroke-linejoin:miter;stroke-opacity:1"
       d="m 55.562497,103.85417 10.583336,-1e-5"
       id="path10195-1"
       inkscape:connector-curvature="0"
       sodipodi:nodetypes="cc" />
    <path
       style="fill:none;stroke:#00ff00;stroke-width:0.26458332px;stroke-linecap:butt;stroke-linejoin:miter;stroke-opacity:1"
       d="m 48.947913,118.40625 h 7.9375 v 10.58334 l 9.26042,-1e-5"
       id="path10599-8"
       inkscape:connector-curvature="0"
       sodipodi:nodetypes="cccc" />
    <path
       style="fill:none;stroke:#00ff00;stroke-width:0.26458332px;stroke-linecap:butt;stroke-linejoin:miter;stroke-opacity:1;marker-start:url(#marker10611-9)"
       d="m 56.885413,118.40625 v -9.26042 h 9.26042"
       id="path10601-7"
       inkscape:connector-curvature="0"
       sodipodi:nodetypes="ccc" />
    <path
       style="fill:none;stroke:#ff0000;stroke-width:0.26458332px;stroke-linecap:butt;stroke-linejoin:miter;stroke-opacity:1"
       d="m 80.697913,106.5 19.843747,-1e-5"
       id="path10637-9"
       inkscape:connector-curvature="0"
       sodipodi:nodetypes="cc" />
    <path
       style="fill:none;stroke:#00ff00;stroke-width:0.26458332px;stroke-linecap:butt;stroke-linejoin:miter;stroke-opacity:1"
       d="m 80.697913,131.63542 19.843747,-1e-5"
       id="path10639-2"
       inkscape:connector-curvature="0"
       sodipodi:nodetypes="cc" />
    <path
       style="fill:none;stroke:#ff0200;stroke-width:0.26458332px;stroke-linecap:butt;stroke-linejoin:miter;stroke-opacity:1;marker-end:url(#marker10651-7)"
       d="m 100.54166,111.79166 -5.291667,1e-5 v 3.96875 l 23.812497,9.26042 v 3.96875"
       id="path10641-0"
       inkscape:connector-curvature="0"
       sodipodi:nodetypes="ccccc" />
    <path
       style="fill:none;stroke:#ff0200;stroke-width:0.26458332px;stroke-linecap:butt;stroke-linejoin:miter;stroke-opacity:1"
       d="m 115.09374,128.98958 11.90625,1e-5"
       id="path10683-2"
       inkscape:connector-curvature="0"
       sodipodi:nodetypes="cc" />
    <path
       style="fill:none;stroke:#00ff00;stroke-width:0.26458332px;stroke-linecap:butt;stroke-linejoin:miter;stroke-opacity:1"
       d="m 115.09374,109.14583 h 11.90625"
       id="path10685-3"
       inkscape:connector-curvature="0"
       sodipodi:nodetypes="cc" />
    <path
       style="fill:none;stroke:#00ff00;stroke-width:0.26458332px;stroke-linecap:butt;stroke-linejoin:miter;stroke-opacity:1;marker-end:url(#marker10697-1)"
       d="M 100.54166,126.34375 H 95.249993 V 122.375 l 23.812497,-9.26042 v -3.96875"
       id="path10687-7"
       inkscape:connector-curvature="0"
       sodipodi:nodetypes="ccccc" />
    <text
       xml:space="preserve"
       style="font-style:normal;font-variant:normal;font-weight:normal;font-stretch:normal;font-size:4.23333311px;line-height:1.25;font-family:'Bitstream Vera Sans Mono';-inkscape-font-specification:'Bitstream Vera Sans Mono';letter-spacing:0px;word-spacing:0px;fill:#000000;fill-opacity:1;stroke:none;stroke-width:0.26458332"
       x="26.127602"
       y="132.39136"
       id="text10737-5"><tspan
         sodipodi:role="line"
         id="tspan10735-9"
         x="26.127602"
         y="132.39136"
         style="stroke-width:0.26458332">D=<tspan
   style="fill:#ff0000"
   id="tspan5585">0</tspan></tspan></text>
    <text
       xml:space="preserve"
       style="font-style:normal;font-variant:normal;font-weight:normal;font-stretch:normal;font-size:4.23333311px;line-height:1.25;font-family:'Bitstream Vera Sans Mono';-inkscape-font-specification:'Bitstream Vera Sans Mono';letter-spacing:0px;word-spacing:0px;fill:#000000;fill-opacity:1;stroke:none;stroke-width:0.26458332"
       x="48.413376"
       y="117.08333"
       id="text10741-2"><tspan
         sodipodi:role="line"
         id="tspan10739-8"
         x="48.413376"
         y="117.08333"
         style="stroke-width:0.26458332">E=<tspan
   style="fill:#66ff00;stroke-width:0.26458332"
   id="tspan5298-9">1</tspan></tspan></text>
    <text
       xml:space="preserve"
       style="font-style:normal;font-variant:normal;font-weight:normal;font-stretch:normal;font-size:4.23333311px;line-height:1.25;font-family:'Bitstream Vera Sans Mono';-inkscape-font-specification:'Bitstream Vera Sans Mono';letter-spacing:0px;word-spacing:0px;fill:#000000;fill-opacity:1;stroke:none;stroke-width:0.26458332"
       x="124.23396"
       y="107.70271"
       id="text10745-7"><tspan
         sodipodi:role="line"
         id="tspan10743-3"
         x="124.23396"
         y="107.70271"
         style="stroke-width:0.26458332">Q</tspan></text>
    <text
       xml:space="preserve"
       style="font-style:normal;font-variant:normal;font-weight:normal;font-stretch:normal;font-size:4.23333311px;line-height:1.25;font-family:'Bitstream Vera Sans Mono';-inkscape-font-specification:'Bitstream Vera Sans Mono';letter-spacing:0px;word-spacing:0px;fill:#000000;fill-opacity:1;stroke:none;stroke-width:0.26458332"
       x="124.23396"
       y="127.73347"
       id="text10749-6"><tspan
         sodipodi:role="line"
         id="tspan10747-1"
         x="124.23396"
         y="127.73347"
         style="stroke-width:0.26458332">Q</tspan></text>
    <path
       style="fill:none;stroke:#000000;stroke-width:0.26458332px;stroke-linecap:butt;stroke-linejoin:miter;stroke-opacity:1"
       d="m 124.61874,104.11874 h 1.85208"
       id="path10817-2"
       inkscape:connector-curvature="0"
       sodipodi:nodetypes="cc" />
    <use
       id="use4911-9"
       transform="translate(59.531247,93.270826)"
       style="fill:none;stroke:#000000;stroke-width:2"
       xlink:href="#Nand_Gate"
       x="0"
       y="0"
       width="100%"
       height="100%" />
    <use
       id="use4939-3"
       transform="translate(59.663538,118.67084)"
       style="fill:none;stroke:#000000;stroke-width:2"
       xlink:href="#Nand_Gate"
       x="0"
       y="0"
       width="100%"
       height="100%" />
    <use
       id="use4963-1"
       transform="translate(93.927083,95.916659)"
       style="fill:none;stroke:#000000;stroke-width:2"
       xlink:href="#Nand_Gate"
       x="0"
       y="0"
       width="100%"
       height="100%" />
    <use
       id="use5001-9"
       transform="translate(93.927083,115.76041)"
       style="fill:none;stroke:#000000;stroke-width:2"
       xlink:href="#Nand_Gate"
       x="0"
       y="0"
       width="100%"
       height="100%" />
    <text
       xml:space="preserve"
       style="font-style:normal;font-variant:normal;font-weight:normal;font-stretch:normal;font-size:4.23333311px;line-height:1.25;font-family:'Bitstream Vera Sans Mono';-inkscape-font-specification:'Bitstream Vera Sans Mono';letter-spacing:0px;word-spacing:0px;fill:#000000;fill-opacity:1;stroke:none;stroke-width:0.26458332"
       x="114.14487"
       y="91.293167"
       id="text5907"><tspan
         sodipodi:role="line"
         id="tspan5905"
         x="114.14487"
         y="91.293167"
         style="stroke-width:0.26458332">musí být 1</tspan></text>
    <text
       xml:space="preserve"
       style="font-style:normal;font-variant:normal;font-weight:normal;font-stretch:normal;font-size:4.23333311px;line-height:1.25;font-family:'Bitstream Vera Sans Mono';-inkscape-font-specification:'Bitstream Vera Sans Mono';letter-spacing:0px;word-spacing:0px;fill:#000000;fill-opacity:1;stroke:none;stroke-width:0.26458332"
       x="128.31015"
       y="107.80813"
       id="text5907-4"><tspan
         sodipodi:role="line"
         id="tspan5905-7"
         x="128.31015"
         y="107.80813"
         style="stroke-width:0.26458332">musí </tspan><tspan
         sodipodi:role="line"
         x="128.31015"
         y="113.09979"
         style="stroke-width:0.26458332"
         id="tspan5927">být 1</tspan></text>
  </g>
</svg>
